<?xml version="1.0" standalone="no"?>
<!DOCTYPE svg PUBLIC "-//W3C//DTD SVG 1.1//EN" "http://www.w3.org/Graphics/SVG/1.1/DTD/svg11.dtd" >
<svg xmlns="http://www.w3.org/2000/svg" xmlns:xlink="http://www.w3.org/1999/xlink" version="1.1">
<metadata>
Created by FontForge 20170910 at Wed Nov 24 02:20:50 2010
 By Jimmy Wärting
Copyright (c) 2010, Sebastian Kosch (sebastian@aldusleaf.org),
with Reserved Font Name "Crimson Text".
This Font Software is licensed under the SIL Open Font License, Version 1.1.
This license is available with a FAQ at: http://scripts.sil.org/OFL
</metadata>
<defs>
<font id="CrimsonText-BoldItalic" horiz-adv-x="0" >
  <font-face 
    font-family="Crimson Text"
    font-weight="700"
    font-style="italic"
    font-stretch="normal"
    units-per-em="1024"
    panose-1="2 0 8 3 0 0 0 0 0 0"
    ascent="717"
    descent="-307"
    x-height="449"
    cap-height="662"
    bbox="-168 -238 1266 939"
    underline-thickness="51"
    underline-position="-152"
    slope="-11"
    unicode-range="U+0020-F89F"
  />
<missing-glyph horiz-adv-x="374" 
d="M34 0v682h272v-682h-272zM68 34h204v614h-204v-614z" />
    <glyph glyph-name=".notdef" horiz-adv-x="374" 
d="M34 0v682h272v-682h-272zM68 34h204v614h-204v-614z" />
    <glyph glyph-name=".null" 
 />
    <glyph glyph-name="nonmarkingreturn" horiz-adv-x="341" 
 />
    <glyph glyph-name="space" unicode=" " horiz-adv-x="190" 
 />
    <glyph glyph-name="exclam" unicode="!" horiz-adv-x="230" 
d="M2 66q6 31 30 52t51 21q29 0 45 -21t10 -52t-30 -54t-51 -23t-44 22.5t-11 54.5zM185 642q23 0 37 -18.5t8 -49.5q-10 -55 -108 -353q-11 -31 -37 -31q-6 0 -6 22q3 60 14 194t18 169q6 30 27 48.5t47 18.5z" />
    <glyph glyph-name="quotedbl" unicode="&#x22;" horiz-adv-x="340" 
d="M289 698q23 0 28.5 -10.5t-0.5 -54.5q-6 -30 -31 -92t-34 -92q-4 -15 -21 -15q-6 0 -11 3.5t-4 9.5q4 40 4 75.5t-2 68t-2 45.5q3 17 25.5 39.5t47.5 22.5zM135 698q23 0 28.5 -10.5t-0.5 -54.5q-6 -30 -31 -92t-34 -92q-4 -15 -21 -15q-6 0 -11 3.5t-4 9.5q4 40 4 75.5
t-2 68t-2 45.5q3 17 25.5 39.5t47.5 22.5z" />
    <glyph glyph-name="numbersign" unicode="#" horiz-adv-x="442" 
d="M356 378h71q7 0 7 -5q0 -14 -8.5 -38t-16.5 -24h-72l-29 -74h71q7 0 7 -6q0 -14 -8.5 -37.5t-16.5 -23.5h-72l-51 -146q-3 -8 -38 -8q-27 0 -27 5q1 2 1 3l52 146h-77l-51 -146q-3 -8 -38 -8q-27 0 -27 5q1 2 1 3l52 146h-71q-7 0 -7 6q0 14 8.5 37.5t16.5 23.5h72l29 74
h-71q-7 0 -7 6q0 14 8.5 37.5t16.5 23.5h72l51 146q3 8 43 8q22 0 22 -6q-1 -1 -1 -2l-52 -146h77l51 146q3 8 43 8q22 0 22 -6q-1 -1 -1 -2zM274 311h-77l-29 -74h77z" />
    <glyph glyph-name="dollar" unicode="$" horiz-adv-x="452" 
d="M233 231l-67 -185h4q43 0 71.5 38.5t28.5 76.5q0 28 -27 59q-3 4 -10 11zM146 -9l-22 -60q-2 -5 -14 -5q-17 0 -36 16l20 55q-36 6 -88 19v26q0 61 8 133q1 10 24 10q16 0 21 -4q0 -34 15 -69.5t43 -52.5l74 207q-8 8 -24.5 21t-23.5 19q-34 28 -52.5 56.5t-18.5 69.5
q0 89 74.5 150t153.5 61q10 0 28 -2l19 53q2 6 13 6q24 0 40 -18l-20 -51q23 -7 57 -13q-11 -172 -19 -172q-21 0 -29 4q-7 2 -7 12q0 56 -28 95l-67 -183q11 -9 31 -23.5t28 -20.5q28 -23 42 -47.5t14 -63.5q0 -87 -59 -151q-34 -37 -81.5 -57t-93.5 -20h-22zM245 411
l64 176q-12 2 -19 2q-47 0 -68 -34t-21 -63q0 -27 16 -50q5 -8 28 -31z" />
    <glyph glyph-name="percent" unicode="%" horiz-adv-x="627" 
d="M220 605q-49 0 -67 -95q-25 -135 38 -135q26 0 43.5 27.5t24.5 63.5q27 139 -39 139zM236 642q61 0 95 -45t22 -108t-63.5 -107.5t-112.5 -44.5t-95 44.5t-22 107.5t63.5 108t112.5 45zM431 268q-49 0 -67 -94q-25 -136 38 -136q26 0 43.5 27.5t24.5 64.5q27 138 -39 138
zM447 306q61 0 95 -45t22 -108t-63.5 -107.5t-112.5 -44.5t-95 44.5t-22 107.5t63.5 108t112.5 45zM629 629l-568 -622q-11 -11 -33 -11q-11 0 -19 2.5t-11.5 5.5t-3.5 6l569 622q14 14 20 14q29 0 46 -17z" />
    <glyph glyph-name="ampersand" unicode="&#x26;" horiz-adv-x="649" 
d="M294 635q46 0 80.5 -25t34.5 -67q0 -29 -21.5 -56t-38.5 -27q-14 0 -14 9q0 1 4 14.5t4 30.5q0 31 -20.5 50.5t-50.5 19.5q-44 0 -73 -35.5t-29 -82.5q0 -41 29 -66q25 7 40 7q27 0 48.5 -13t21.5 -34q0 -19 -20 -29.5t-45 -10.5q-38 0 -62 21q-45 -38 -45 -137
q0 -69 38 -116.5t109 -47.5q79 0 131.5 58.5t52.5 138.5q0 37 -14 64.5t-43 27.5q-25 0 -43.5 -13.5t-18.5 -35.5q0 -16 28 -23q15 -4 29.5 -15t14.5 -25q0 -49 -43 -60q-23 0 -51 30.5t-28 68.5q0 55 44 92.5t102 37.5q15 0 38 -1t38 -1q33 0 57.5 16t24.5 44
q0 13 -9.5 21.5t-23.5 8.5q-10 0 -24 -11t-25 -11q-18 0 -30 14t-12 33q0 31 22 47q145 0 145 -102q0 -45 -28.5 -73.5t-78.5 -28.5q-6 0 -26 2q57 -51 57 -120q0 -99 -91.5 -168.5t-206.5 -69.5q-102 0 -178.5 58.5t-76.5 151.5q0 62 42 114t91 71q-2 2 -11 11.5t-14 15.5
t-12 17.5t-10 24.5t-3 29q0 74 61.5 115t132.5 41z" />
    <glyph glyph-name="quotesingle" unicode="'" horiz-adv-x="186" 
d="M135 698q23 0 28.5 -10.5t-0.5 -54.5q-6 -30 -31 -92t-34 -92q-4 -15 -21 -15q-6 0 -11 3.5t-4 9.5q4 40 4 75.5t-2 68t-2 45.5q3 17 25.5 39.5t47.5 22.5z" />
    <glyph glyph-name="parenleft" unicode="(" horiz-adv-x="353" 
d="M29 200q0 89 29.5 177.5t72.5 153t89.5 115t83.5 76.5t52 26q7 0 7 -19q0 -2 -0.5 -4.5t-0.5 -3.5t-2 -3q-68 -44 -144.5 -216.5t-76.5 -360.5q0 -96 20 -165t40 -82q1 0 1 -5q-1 -7 -6 -16.5t-10 -9.5q-10 0 -28 14.5t-40 44.5t-41.5 69t-32.5 94.5t-13 114.5z" />
    <glyph glyph-name="parenright" unicode=")" horiz-adv-x="344" 
d="M319 408q0 -86 -28.5 -173t-71 -151.5t-89 -116t-83.5 -78t-54 -26.5q-7 0 -7 19v6q0 4 3 6q20 10 55 58.5t72.5 122t65 181.5t27.5 215q0 90 -17.5 158t-42.5 89q-1 1 -1 3q1 7 6.5 17t10.5 10q16 0 41 -25.5t50.5 -68t44 -109t18.5 -137.5z" />
    <glyph glyph-name="asterisk" unicode="*" horiz-adv-x="376" 
d="M221 516q10 0 28 30t42.5 59.5t49.5 29.5q27 0 27 -33q0 -27 -33 -47.5t-65.5 -35.5t-32.5 -27q0 -9 19 -13.5t41.5 -7.5t41.5 -14.5t19 -32.5q0 -17 -14.5 -31.5t-30.5 -14.5q-18 0 -36.5 21t-33.5 42t-25 21t-12.5 -17.5t-4.5 -50t-9 -55.5q-11 -38 -44 -38
q-12 0 -22 10t-10 23q0 22 34 70.5t34 59.5q0 8 -8 8t-53.5 -22t-66.5 -22q-13 0 -22.5 9t-9.5 21q0 9 3.5 19t18.5 20.5t40 10.5q16 0 43.5 -4t36.5 -4q11 0 15.5 1t5.5 3t1 6q0 10 -26.5 46t-26.5 60q0 19 13 34t31 15q12 0 19.5 -5.5t10 -21.5t3 -23.5t0.5 -30.5v-9
q-1 -9 -1 -17.5t0.5 -19t3 -16.5t6.5 -6z" />
    <glyph glyph-name="plus" unicode="+" horiz-adv-x="485" 
d="M236 470q2 9 30.5 13.5t41.5 4.5q6 0 8.5 -2.5t1.5 -6.5l-35 -188q-2 -5 3 -5h173q4 0 4 -18q0 -28 -26 -54h-166q-4 0 -4 -4l-35 -180q-1 -7 -25 -12.5t-41 -5.5q-8 0 -12 3t-3 6l36 188q0 5 -4 5h-171q-4 0 -4 18q0 28 26 54h165q4 0 4 4q6 29 16 86.5t17 93.5z" />
    <glyph glyph-name="comma" unicode="," horiz-adv-x="243" 
d="M2 -134q0 2 8.5 7.5t20.5 15.5t24 23.5t20.5 34.5t8.5 44q0 10 -8 33t-8 37q0 32 26.5 52.5t64.5 20.5q26 0 35 -8q1 -7 1 -31q0 -65 -29 -115q-30 -52 -60 -81.5t-88 -66.5q-16 12 -16 34z" />
    <glyph glyph-name="hyphen" unicode="-" horiz-adv-x="330" 
d="M53 267l227 12q6 0 6 -12q0 -11 -9.5 -36.5t-16.5 -26.5l-226 -11q-5 0 -5 15q0 11 8.5 34.5t15.5 24.5z" />
    <glyph glyph-name="period" unicode="." horiz-adv-x="203" 
d="M156 66q-6 -31 -29.5 -54t-51.5 -23q-29 0 -45.5 23.5t-10.5 53.5t30.5 51.5t52.5 21.5t44 -21.5t10 -51.5z" />
    <glyph glyph-name="slash" unicode="/" horiz-adv-x="486" 
d="M496 755l-424 -767q-3 -6 -24.5 -14.5t-43.5 -8.5q-6 0 -10 1.5t-4 3.5l-1 2l424 767q12 22 50 22q24 0 33 -6z" />
    <glyph glyph-name="zero" unicode="0" horiz-adv-x="502" 
d="M307 575q-41 0 -78 -72t-61 -191q-22 -118 -10.5 -190.5t47.5 -72.5q80 0 133 268q23 118 15 188t-46 70zM316 625q85 0 130.5 -92.5t20.5 -221.5t-107 -221.5t-167 -92.5t-132.5 92.5t-22.5 221.5t109 221.5t169 92.5z" />
    <glyph glyph-name="one" unicode="1" horiz-adv-x="309" 
d="M298 643q9 0 9 -19q-14 -29 -27 -94l-78 -404q-7 -39 -7 -60q0 -13 11.5 -22t21.5 -11.5t16 -2.5q1 0 1 -3q0 -17 -7 -31q-10 1 -54.5 4.5t-65.5 3.5q-22 0 -68.5 -3.5t-56.5 -4.5q-1 1 -1 7q0 27 8 27q11 0 34.5 8.5t27.5 17.5q8 17 16 57l66 339q4 16 4 29q0 21 -13 21
t-71 -33q-12 7 -9 24q0 8 4 12q224 138 239 138z" />
    <glyph glyph-name="two" unicode="2" horiz-adv-x="452" 
d="M245 559q-30 0 -59.5 -21.5t-48 -42.5t-19.5 -21q-6 0 -10 8t-4 17l4 17q28 37 88.5 81.5t108.5 44.5q59 0 95.5 -35t36.5 -96q0 -23 -6 -47.5t-13 -44.5t-24 -45t-28 -41.5t-35.5 -42t-36.5 -38t-42 -38.5t-40 -34.5t-42 -35t-38 -31.5q-2 -2 -2 -7q0 -4 3 -4h159
q16 0 29 4.5t22.5 14.5t14.5 17t11.5 20.5t7.5 15.5q5 8 29 8q9 0 14 -8q-7 -18 -35 -82t-39 -92l-143 1q-199 -1 -206 -1q-5 8 -5 19q0 8 1 14q110 106 201 225.5t105 192.5q3 17 3 32q0 34 -14 55t-43 21z" />
    <glyph glyph-name="three" unicode="3" horiz-adv-x="430" 
d="M310 642q38 0 67 -29.5t18 -85.5q-7 -34 -24 -62t-33 -43t-51 -44q36 0 76 -47t27 -117q-13 -67 -61 -118t-108.5 -75.5t-122.5 -24.5q-69 0 -101 32q-3 8 -3 28q0 22 15 35t33 13q19 0 47.5 -28t52.5 -28q44 0 74.5 36t43.5 104q12 58 -7.5 94.5t-65.5 36.5
q-36 0 -67 -5q-5 9 -1 26q4 15 6 19q130 22 156 142q7 31 -8 51t-35 20q-30 0 -59 -12t-47 -24t-20 -12q-8 0 -8 20q0 13 3 16q36 41 82.5 61.5t120.5 20.5z" />
    <glyph glyph-name="four" unicode="4" horiz-adv-x="464" 
d="M439 646q5 0 10 -3.5t4 -8.5l-75 -382q-2 -8 7 -8h30q8 0 8 -15q0 -8 -4 -22t-8 -23l-4 -10h-38q-5 0 -7 -8l-32 -162q-24 -9 -63 -9q-54 0 -51 13l31 160q0 5 -8 5l-223 1q-7 9 -7 24q0 9 3 24l398 408q16 16 29 16zM300 445q2 7 -2 7q-2 0 -4 -2l-188 -194q-2 -2 -2 -5
q0 -7 5 -7h144q9 3 11 9z" />
    <glyph glyph-name="five" unicode="5" horiz-adv-x="445" 
d="M402 535h-85q-77 1 -96.5 -1t-22.5 -11l-39 -111q40 10 77 10q72 0 124 -55.5t38 -131.5q-20 -103 -106 -171t-193 -68q-69 0 -101 32q-3 8 -3 28q0 22 15 35t33 13q19 0 47.5 -28t52.5 -28q48 0 78.5 42t40.5 93q13 65 -10.5 105t-65.5 40q-26 0 -48 -3.5t-34 -7
t-14 -3.5q-8 0 -14 14l26 78q27 79 54.5 155.5t32.5 76.5q215 0 237 5q5 -10 1 -34q-9 -51 -25 -74z" />
    <glyph glyph-name="six" unicode="6" horiz-adv-x="467" 
d="M231 344q0 8 17.5 15.5t38.5 7.5q50 0 86 -44t36 -105q0 -86 -72.5 -155t-155.5 -69q-72 0 -117.5 44.5t-45.5 122.5q0 43 15 91t49 102.5t83.5 105t124.5 100t165 85.5q5 -2 8 -13.5t2 -20.5q-197 -84 -279 -277q-42 -99 -42 -214q0 -74 49 -74q38 0 64 56.5t26 121.5
q0 58 -18 76q-12 12 -33 18q-1 5 -1 26z" />
    <glyph glyph-name="seven" unicode="7" horiz-adv-x="471" 
d="M37 -11q-11 0 -19 8t-8 17q0 10 4 14l347 485h-220q-47 0 -87 -79q-1 0 -5 -0.5t-6 -0.5q-17 0 -23 7q7 20 21 53t29.5 66.5t19.5 43.5q4 12 20 12h301q14 0 38 1.5t25 1.5q5 0 5 -5q0 -13 -39 -71l-396 -552q-3 -1 -7 -1z" />
    <glyph glyph-name="eight" unicode="8" horiz-adv-x="458" 
d="M185 46q31 0 52 22.5t27.5 45t6.5 40.5q0 10 -2 19.5t-4.5 17t-8.5 16.5t-9 14.5t-11.5 14.5t-11 12t-12 12t-10.5 10q-8 8 -11 8q-2 0 -8 -4q-15 -11 -32.5 -60.5t-17.5 -91.5q0 -76 52 -76zM286 580q-28 0 -45.5 -24.5t-22 -47t-4.5 -38.5q0 -9 1 -16t4.5 -14.5
t5 -11.5t8.5 -11.5t8 -9.5t9.5 -10t9.5 -9q5 -5 10 -5q4 0 7 3q53 70 53 138q0 56 -44 56zM294 633q64 0 110 -31.5t46 -87.5q0 -96 -133 -173q-2 -1 -2 -3.5t1 -3.5l10 -9q10 -9 15.5 -14.5t16 -17t17 -22t14 -23.5t11 -27.5t3.5 -29.5q0 -72 -70.5 -134.5t-164.5 -62.5
q-69 0 -114.5 31t-45.5 96q0 121 143 194q6 3 1 8q0 1 -14.5 16t-18.5 21t-13.5 21.5t-13 31.5t-3.5 35q0 86 66 135.5t139 49.5z" />
    <glyph glyph-name="nine" unicode="9" horiz-adv-x="451" 
d="M233 294q0 -8 -17 -15t-39 -7q-50 0 -86 44t-36 105q0 86 72.5 155t155.5 69q72 0 117.5 -44.5t45.5 -122.5q0 -43 -15 -91t-49 -102.5t-83.5 -105t-124.5 -100t-165 -85.5q-5 2 -8 13.5t-2 20.5q197 84 279 277q42 99 42 214q0 74 -49 74q-38 0 -64 -56.5t-26 -121.5
q0 -58 18 -76q12 -12 33 -18q1 -5 1 -27z" />
    <glyph glyph-name="colon" unicode=":" horiz-adv-x="226" 
d="M70 361q0 35 27 61.5t59 26.5q24 0 39 -16t15 -41q0 -34 -26 -64t-57 -30q-25 0 -41 18.5t-16 44.5zM10 52q0 35 27 61.5t59 26.5q24 0 38.5 -16t14.5 -41q0 -34 -25.5 -64t-56.5 -30q-25 0 -41 18.5t-16 44.5z" />
    <glyph glyph-name="semicolon" unicode=";" horiz-adv-x="262" 
d="M105 361q0 35 27 61.5t59 26.5q24 0 39 -16t15 -41q0 -34 -26 -64t-57 -30q-25 0 -41 18.5t-16 44.5zM72 -18q3 15 -7.5 34.5t-5.5 45.5q4 20 27 46t61 26q27 0 36 -8q5 -43 -1 -74q-3 -16 -27 -72q-26 -47 -58 -79t-90 -69h-2q-5 0 -10.5 13.5t-3.5 20.5q0 1 17 14.5
t37 40.5t27 61z" />
    <glyph glyph-name="less" unicode="&#x3c;" horiz-adv-x="427" 
d="M93 209l266 -158l1 -6q-1 -7 -11.5 -33.5t-14.5 -26.5l-4 2l-312 190q-14 10 -9 40q3 15 21 24l384 187q4 2 5 2q4 0 4 -44l-4 -22z" />
    <glyph glyph-name="equal" unicode="=" horiz-adv-x="531" 
d="M27 109l-4 10q9 34 19 57q1 3 3 4t3 1h2h412q7 0 7 -3v-2q-6 -29 -21 -61q0 -1 -8 -6h-413zM55 251l-5 10q17 62 26 62h418q4 0 3 -5q-5 -25 -22 -61l-6 -6h-414z" />
    <glyph glyph-name="greater" unicode="&#x3e;" horiz-adv-x="441" 
d="M331 209l-266 155l-1 9q22 57 27 57l4 -2l311 -187q15 -9 12 -24q-5 -30 -25 -40l-385 -190q-4 -2 -5 -2q-4 0 -4.5 27.5t0.5 32.5l4 6z" />
    <glyph glyph-name="question" unicode="?" horiz-adv-x="346" 
d="M6 51q0 35 26 61.5t57 26.5q25 0 41 -16t16 -42q0 -35 -25.5 -63.5t-56.5 -28.5q-23 0 -40.5 17.5t-17.5 44.5zM179 215q0 -12 -13 -20q-24 0 -70 34t-46 71q0 41 21 66.5t47 37.5l101 45q52 23 52 66q0 52 -49 52q-15 0 -37.5 -22.5t-37.5 -22.5q-33 0 -44.5 29t1.5 58
q30 37 83 37q65 0 113 -41t48 -105q0 -41 -22 -80.5t-54 -56.5q-45 -25 -103 -51q-39 -16 -39 -41q0 -17 24.5 -35t24.5 -21z" />
    <glyph glyph-name="at" unicode="@" horiz-adv-x="749" 
d="M291 -171q-72 0 -130.5 33t-91 84.5t-45.5 114.5t-1 124q35 180 163.5 286t289.5 106q89 0 149 -53.5t80 -131.5t4 -159q-26 -131 -88 -188.5t-129 -57.5q-47 0 -74.5 25t-21.5 57q0 1 -2 0t-3 -2q-17 -26 -57.5 -50t-84.5 -24q-49 0 -70.5 46t-10.5 102
q21 106 109.5 187.5t207.5 81.5q16 0 39 -2t38 -4l15 -3q-11 -31 -17 -53l-59 -205q-31 -109 11 -109q33 0 58.5 19.5t40.5 51.5t23 57t13 52q25 130 -26 217.5t-166 87.5q-128 0 -228.5 -82.5t-125.5 -213.5q-31 -159 27 -254t223 -95q32 0 67 13v-9q-3 -19 -37 -34
t-90 -15zM412 182l42 140q6 12 3.5 24.5t-25.5 12.5q-40 0 -91 -59.5t-70 -156.5q-10 -53 -6 -71.5t22 -18.5q30 0 74 52.5t51 76.5z" />
    <glyph glyph-name="A" unicode="A" horiz-adv-x="634" 
d="M303 213q-52 0 -85 -1q-3 0 -9.5 -2t-7.5 -3l-45 -76q-33 -49 -33 -66t25.5 -26t39.5 -9q2 0 2 -4q0 -20 -5 -30q-12 1 -44 4t-56 3q-25 0 -64.5 -3t-53.5 -4q-1 2 -1 8q0 26 5 26q10 0 43 14.5t42 26.5q9 13 39 63l272 452q1 2 10 17t14 22.5t13.5 19t15.5 17t13 5.5
q9 0 12 -8l105 -518q4 -26 14 -75q3 -16 26 -26t34 -10q2 0 2 -5q0 -20 -7 -29q-3 0 -50.5 3.5t-71.5 3.5q-19 0 -138 -7q-1 1 -1 7q0 27 8 27t26 8.5t25 16.5q5 7 5 14q0 9 -22 138q0 4 -6 4q-36 2 -91 2zM315 273q38 0 67 2q4 0 4 5l-32 178l-108 -178q-1 -1 -0.5 -2.5
t1.5 -1.5q27 -3 68 -3z" />
    <glyph glyph-name="B" unicode="B" horiz-adv-x="561" 
d="M391 224q0 91 -92 91q-58 0 -60 -14l-44 -225v-4q0 -6 5 -9.5t20.5 -5.5t46.5 -2q25 0 46 9q29 12 53.5 52.5t24.5 107.5zM532 226q0 -100 -78 -163t-193 -63q-1 0 -76.5 1t-77.5 1q-34 0 -71 -3t-48 -3q-2 2 -2 9q0 6 1.5 12t3.5 9.5t3 3.5q10 0 32 8t27 17q12 21 25 88
l73 378q11 64 10 78q-1 8 -21.5 18.5t-29.5 10.5q-2 0 -2 7q0 20 7 27q69 -3 131 -3q59 0 98.5 1t45.5 1q31 0 61 -8t56.5 -24.5t43 -45t16.5 -65.5q0 -19 -4 -36.5t-10.5 -32t-14.5 -27.5t-17.5 -23t-18.5 -18.5t-17.5 -14.5t-15 -10t-10 -6l-3.5 -2q26 -5 51 -38t25 -84z
M427 529q0 42 -18 59.5t-55 17.5q-29 0 -42.5 -3t-16.5 -13l-40 -205q-3 -14 46 -14q58 0 92 39t34 119z" />
    <glyph glyph-name="C" unicode="C" horiz-adv-x="587" 
d="M391 667q102 0 207 -29q0 -12 -4.5 -76.5t-5.5 -71.5q-2 -7 -10.5 -11t-17.5 -4q-2 0 -14 3q-1 14 -5 29t-15 34.5t-28 34t-46.5 25t-66.5 10.5q-64 0 -117 -50t-82.5 -133.5t-29.5 -180.5q0 -90 37.5 -145t111.5 -55q42 0 83 10t64 26q17 12 32 33.5t22.5 36.5t8.5 15
q26 0 29 -13q-3 -14 -17.5 -59t-22.5 -52q-57 -51 -206 -51q-131 0 -209 75.5t-78 190.5q0 82 34.5 159t89 130.5t122.5 86t134 32.5z" />
    <glyph glyph-name="D" unicode="D" horiz-adv-x="678" 
d="M107 2q-34 0 -71 -3t-48 -3q-2 2 -2 9q0 6 1.5 12t3.5 9.5t3 3.5q10 0 32 8t27 17q12 21 25 88l73 378q11 64 10 78q-1 8 -21.5 18.5t-29.5 10.5q-2 0 -2 7q0 20 7 27q69 -3 131 -3h162q67 0 119 -20.5t83.5 -56t47.5 -80.5t16 -98q0 -56 -17 -113.5t-51.5 -110
t-81 -93.5t-110.5 -65.5t-136 -24.5q-18 0 -77.5 2.5t-93.5 2.5zM402 603q-82 0 -96 -16q-17 -19 -24 -63l-75 -388q-13 -65 -6 -70q17 -13 103 -13q78 0 134.5 72t84.5 215q11 52 8 99.5t-16 84t-42.5 58t-70.5 21.5z" />
    <glyph glyph-name="E" unicode="E" horiz-adv-x="542" 
d="M107 2q-34 0 -71 -3t-48 -3q-2 2 -2 9q0 6 1.5 12t3.5 9.5t3 3.5q10 0 32 8t27 17q12 21 25 88l73 378q11 64 10 78q-1 8 -21.5 18.5t-29.5 10.5q-2 0 -2 7q0 20 7 27q80 -3 131 -3q53 0 150 2.5t151 2.5q-2 -30 -2 -91v-57q-5 -5 -22 -5q-11 0 -12 7q-11 38 -43.5 65
t-68.5 27h-35q-32 0 -46 -2.5t-17 -10.5q-12 -33 -20 -78l-30 -154q-1 -3 10 -4.5t29 -1.5h79q22 0 30 8.5t28 53.5q3 7 16 7q16 0 19 -5l-36 -189q-4 -4 -21 -4q-11 0 -13 8q-2 45 -11 54q-12 12 -75 12q-67 0 -69 -9l-29 -154q-8 -40 -8 -59q0 -18 9.5 -23t51.5 -5h24
q58 0 110 26q17 9 42 34t42 56q3 6 14 6q23 0 27 -6q-4 -8 -22 -41.5t-26 -50t-19.5 -41t-16.5 -39.5q-53 0 -171 2t-158 2z" />
    <glyph glyph-name="F" unicode="F" horiz-adv-x="537" 
d="M118 3q-26 0 -45.5 -1t-43.5 -3t-41 -3q-2 2 -2 9q0 6 1.5 12t3.5 9.5t3 3.5q10 0 32 8t27 17q12 21 25 88l73 378q11 64 10 78q-1 8 -21.5 18.5t-29.5 10.5q-2 0 -2 7q0 20 7 27q80 -3 131 -3q53 0 149.5 2.5t150.5 2.5q-2 -30 -2 -91v-57q-5 -5 -22 -5q-11 0 -12 7
q-11 38 -43.5 65t-68.5 27h-35q-32 0 -46 -2.5t-17 -10.5q-12 -33 -20 -78l-30 -154q-1 -3 10 -4.5t29 -1.5h79q22 0 30 8.5t28 53.5q3 7 16 7q16 0 19 -5l-36 -189q-4 -4 -21 -4q-11 0 -13 8q-2 45 -11 54q-12 12 -75 12q-67 0 -69 -9l-29 -154q-9 -45 -9 -67q0 -15 11 -25
t28.5 -13.5t27 -4.5t16.5 -1q4 0 1 -16q-3 -15 -5 -18q-130 7 -159 7z" />
    <glyph glyph-name="G" unicode="G" horiz-adv-x="616" 
d="M490 34q-84 -42 -191 -42q-127 0 -207.5 75t-80.5 187q0 85 34.5 163t89 132t122.5 86t134 32q102 0 207 -29q0 -16 -4 -78t-6 -70q-3 -15 -29 -15q-4 0 -13 3q-1 14 -5 29t-15 34.5t-28 34t-46.5 25t-66.5 10.5q-56 0 -102 -36t-73 -92t-41 -117t-14 -119q0 -86 39 -143
t117 -57q43 0 86 12l27 129q6 29 6 51q0 14 -28.5 21t-42.5 7q-2 0 -2 7q0 22 7 27q141 -6 150 -6q17 0 131 6q0 -34 -6 -34t-27.5 -6t-30.5 -10q-17 -10 -21 -28l-24 -111q-6 -24 -6 -40q0 -7 -12.5 -18.5t-27.5 -19.5z" />
    <glyph glyph-name="H" unicode="H" horiz-adv-x="714" 
d="M365 369q111 0 112 6l28 148q9 54 9 77q0 28 -48 28q-2 0 -2 6q0 20 8 28q126 -6 132 -6q7 0 121 6v-6q0 -10 -2 -17t-4 -9t-3 -2q-7 0 -30 -8.5t-27 -15.5q-12 -22 -24 -85l-74 -380q-11 -57 -11 -80q0 -10 20 -19.5t29 -9.5q2 0 2 -5q0 -17 -8 -29q-2 0 -50.5 3.5
t-72.5 3.5q-25 0 -71.5 -3t-57.5 -4q-1 1 -1 6q0 8 1.5 18t3.5 10q11 0 33 7t27 16q9 16 24 82l34 169v1q0 6 -110 6q-112 0 -114 -8l-32 -164q-10 -52 -10 -80q0 -10 19.5 -19.5t28.5 -9.5q2 0 2 -5q0 -19 -7 -29q-12 1 -38 3t-48.5 3t-40.5 1q-25 0 -69.5 -3t-56.5 -4
q-1 1 -1 6q0 7 2 17.5t4 10.5q11 0 32.5 6.5t26.5 15.5q16 26 25 83l75 388q9 48 9 73q0 15 -18.5 23.5t-29.5 8.5q-1 0 -1 4q0 24 6 30q14 -1 38.5 -2.5t44.5 -2.5t39 -1q18 0 132 6v-5q0 -8 -2.5 -18.5t-5.5 -10.5q-8 0 -31.5 -8.5t-27.5 -15.5q-6 -10 -14 -42t-10 -43
l-27 -141v-2q0 -1 1 -2t5 -2t11.5 -1.5t20 -1t30.5 -0.5h44z" />
    <glyph glyph-name="I" unicode="I" horiz-adv-x="360" 
d="M280 519l-73 -380q-10 -52 -10 -80q0 -10 19.5 -19.5t28.5 -9.5q2 0 2 -5q0 -19 -7 -29q-4 0 -50 3.5t-70 3.5q-25 0 -74.5 -3.5t-58.5 -3.5q-1 1 -1 6q0 7 2 17.5t4 10.5q11 0 32.5 6.5t26.5 15.5q16 26 25 83l75 388q9 48 9 73q0 15 -18.5 23.5t-29.5 8.5q-1 0 -1 4
q0 24 6 30q14 -1 38.5 -2.5t44.5 -2.5t39 -1q18 0 132 6v-5q0 -8 -2.5 -18.5t-5.5 -10.5q-8 0 -31.5 -8.5t-27.5 -15.5q-6 -10 -14 -42t-10 -43z" />
    <glyph glyph-name="J" unicode="J" horiz-adv-x="421" 
d="M137 135l75 388q9 48 9 73q0 15 -18.5 23.5t-29.5 8.5q-1 0 -1 4q0 24 6 30q14 -1 38 -2.5t44.5 -2.5t39.5 -1q18 0 132 6v-5q0 -8 -2.5 -18.5t-5.5 -10.5q-8 0 -31.5 -8.5t-27.5 -15.5q-6 -10 -14 -42t-10 -43l-73 -376q-16 -82 -44.5 -145.5t-66.5 -104.5t-75.5 -66.5
t-83.5 -44.5q-14 6 -14 24q0 14 2 18q58 48 92.5 118.5t58.5 192.5z" />
    <glyph glyph-name="K" unicode="K" horiz-adv-x="711" 
d="M280 519l-73 -380q-10 -52 -10 -80q0 -10 19.5 -19.5t28.5 -9.5q2 0 2 -5q0 -19 -7 -29q-12 1 -38 3t-48.5 3t-40.5 1q-25 0 -69.5 -3t-56.5 -4q-1 1 -1 6q0 7 2 17.5t4 10.5q11 0 32.5 6.5t26.5 15.5q16 26 25 83l75 388q9 48 9 73q0 15 -18.5 23.5t-29.5 8.5q-1 0 -1 4
q0 24 6 30q14 -1 38.5 -2.5t44.5 -2.5t39 -1q18 0 132 6v-5q0 -8 -2.5 -18.5t-5.5 -10.5q-8 0 -31.5 -8.5t-27.5 -15.5q-6 -10 -14 -42t-10 -43zM244 333q42 27 94 75.5t181 177.5q12 12 12 24q0 9 -20.5 14.5t-31.5 5.5q-3 0 -3 11q0 14 4 21q102 -6 124 -6q4 0 118 6
q0 -9 -2.5 -20.5t-5.5 -11.5q-75 -8 -111 -45l-213 -222q-10 -10 -10 -20q0 -5 3 -9l155 -222q33 -47 59.5 -64.5t57.5 -17.5q3 0 3 -8q0 -12 -7 -22q-16 -4 -60 -4q-29 0 -45 1t-38 5t-37 12t-31.5 23.5t-31.5 38.5z" />
    <glyph glyph-name="L" unicode="L" horiz-adv-x="522" 
d="M207 139q-7 -42 -7 -57q0 -17 9.5 -22.5t51.5 -5.5h24q58 0 110 26q17 9 42 34t42 56q3 6 14 6q23 0 27 -6q-4 -8 -22 -41.5t-26 -50t-19.5 -41t-16.5 -39.5q-53 0 -165 2t-152 2q-24 0 -56.5 -1.5t-53.5 -2.5l-21 -2q-2 4 -2 9q0 6 1.5 12t3 9.5t2.5 3.5q10 0 34 9
t28 17q11 23 21 79l75 388q9 48 9 73q0 15 -18.5 23.5t-29.5 8.5q-1 0 -1 4q0 24 6 30q14 -1 38.5 -2.5t44.5 -2.5t39 -1q18 0 132 6v-5q0 -8 -2.5 -18.5t-5.5 -10.5q-8 0 -31.5 -8.5t-27.5 -15.5q-6 -10 -14 -42t-10 -43z" />
    <glyph glyph-name="M" unicode="M" horiz-adv-x="861" 
d="M626 546l54 116q32 -4 95 -4q21 0 97 4q0 -34 -7 -34q-33 0 -48 -17q-17 -20 -24 -87q-34 -309 -41 -408l-2 -18.5t-2 -29.5q0 -14 12.5 -23.5t23 -12t17.5 -2.5q2 0 2 -5q0 -20 -7 -29q-5 0 -49.5 3.5t-68.5 3.5q-25 0 -76 -3.5t-59 -3.5q-2 4 -2 11q0 5 1.5 11t3 9
t2.5 3q10 0 33 9t30 19q5 9 7.5 14t5.5 22t6 51l27 257q2 18 2 48q0 11 -4 11q-2 0 -6 -7l-230 -423q-5 -9 -18.5 -21t-24.5 -12q-2 0 -8 2l-93 480q-1 4 -3 4t-4 -5q-90 -323 -103 -386q-3 -15 -3 -23q0 -13 36 -26.5t47 -13.5q2 0 2 -6q0 -19 -6 -28q-12 1 -38.5 3t-49 3
t-40.5 1q-25 0 -69 -3t-56 -4q-2 4 -2 9t1.5 11t3 10t2.5 4q17 0 57.5 14.5t46.5 35.5q2 8 6 21l121 465q7 32 7 36q0 13 -25 19.5t-41 6.5q-1 0 -1 7q0 19 8 27q84 -4 106 -4q23 0 99 4q3 -29 14.5 -92.5t32 -173t31.5 -166.5q0 -1 2 -1t2 2z" />
    <glyph glyph-name="N" unicode="N" horiz-adv-x="675" 
d="M251 657q54 0 93 5q9 -34 42.5 -98t87 -158t84.5 -155q2 6 10 41l44 232q6 33 6 54t-31.5 35.5t-48.5 14.5q-2 0 -2 7q0 21 6 27q105 -5 130 -5q31 0 124 5q0 -34 -8 -34q-7 0 -20 -2t-35.5 -11t-35.5 -23q-16 -16 -27 -73l-74 -380q-8 -41 -23 -140q-4 -4 -24 -4
q-11 0 -25 23l-277 506l-74 -383q-8 -40 -8 -55q0 -16 11 -28t26.5 -17.5t26.5 -8t16 -2.5q2 0 2 -5q0 -17 -6 -29q-12 1 -38 3t-48.5 3t-40.5 1q-25 0 -69.5 -3t-56.5 -4q-2 4 -2 9t1.5 11l2.5 10t2 4q18 0 50 9.5t49 31.5q13 17 23 73l76 393q6 32 6 59q0 15 -28 23.5
t-45 8.5q-3 0 -3 8q0 21 7 26q105 -5 124 -5z" />
    <glyph glyph-name="O" unicode="O" horiz-adv-x="626" 
d="M359 611q-81 0 -141.5 -107t-60.5 -266q0 -39 6 -72t19.5 -61t38 -43.5t57.5 -15.5q42 0 77.5 28.5t58 72t38 97.5t22.5 102.5t7 88.5q0 176 -122 176zM383 667q106 0 173.5 -75.5t67.5 -191.5q0 -78 -32 -153.5t-83.5 -131.5t-119.5 -90.5t-137 -34.5q-106 0 -173 75.5
t-67 190.5q0 78 32 154t83 132t119 90.5t137 34.5z" />
    <glyph glyph-name="P" unicode="P" horiz-adv-x="546" 
d="M376 662q24 0 46 -3t47.5 -13t44 -26t31 -44.5t12.5 -65.5q0 -40 -15.5 -80.5t-44 -73.5t-73 -54t-97.5 -21q-21 0 -38.5 6.5t-25.5 14.5q-1 1 -1 7q0 7 3 14.5t6 7.5q4 0 15 -1.5t17 -1.5q57 0 85 54t28 138q0 34 -16.5 60.5t-48.5 26.5q-54 0 -58 -19l-86 -447
q-9 -53 -9 -67q0 -15 11.5 -25t28.5 -13.5t26.5 -4.5t16.5 -1q4 0 1 -16q-3 -15 -5 -18q-129 7 -149 7q-25 0 -80.5 -3.5t-60.5 -3.5q-2 6 -1 16q3 18 6 18q49 0 61 25q10 19 22 80l76 388q8 38 8 72q0 14 -19.5 23.5t-28.5 9.5q-2 0 -2 5q0 7 3 17t5 12q105 -5 127 -5
q28 0 66.5 2.5t65.5 2.5z" />
    <glyph glyph-name="Q" unicode="Q" horiz-adv-x="624" 
d="M359 611q-81 0 -141.5 -107t-60.5 -266q0 -39 6 -72t19.5 -61t38 -43.5t57.5 -15.5q42 0 77.5 28.5t58 72t38 97.5t22.5 102.5t7 88.5q0 176 -122 176zM383 667q106 0 173.5 -75.5t67.5 -191.5q0 -107 -57 -204.5t-145 -152.5q-30 -19 -81 -41.5t-79 -28.5
q26 -4 151 -45.5t193 -41.5q37 0 74 16t57 33q6 -1 15.5 -7t9.5 -13q-21 -28 -87.5 -71.5t-130.5 -43.5q-66 0 -141.5 23t-180 61.5t-190.5 59.5q0 4 8.5 15.5t13.5 13.5q66 14 161 20q-91 13 -147 86t-56 177q0 78 32 154t83 132t119 90.5t137 34.5z" />
    <glyph glyph-name="R" unicode="R" horiz-adv-x="632" 
d="M376 662q29 0 59 -7.5t59.5 -22.5t48.5 -43.5t19 -65.5q0 -62 -44 -123.5t-106 -82.5q-5 -2 -2 -10q47 -139 109 -217q48 -61 94 -61q0 -18 -10 -33q-14 -2 -36 -2q-23 0 -44 3t-36.5 6.5t-31 12t-25 14t-20.5 19t-16.5 19.5t-14.5 22.5t-12 22.5t-11.5 24t-10.5 23
q-48 103 -63 119q-13 14 -32 14q-5 0 -6.5 -0.5t-5 -4t-4.5 -11.5l-27 -138q-10 -52 -10 -80q0 -10 19.5 -19.5t28.5 -9.5q2 0 2 -5q0 -19 -7 -29q-12 1 -38 3t-48.5 3t-40.5 1q-25 0 -69.5 -3t-56.5 -4q-1 1 -1 6q0 7 2 17.5t4 10.5q11 0 32.5 6.5t26.5 15.5q16 26 25 83
l76 388q9 51 9 71q0 15 -18.5 24.5t-30.5 9.5q-2 0 -2 5q0 7 3 17t5 12q105 -5 127 -5q27 0 65 2.5t66 2.5zM355 607q-37 0 -48 -4.5t-14 -20.5l-40 -207q-1 -3 -1 -7q0 -13 14 -16.5t49 -3.5q33 0 57.5 29t35 68t10.5 80t-17 61.5t-46 20.5z" />
    <glyph glyph-name="S" unicode="S" horiz-adv-x="449" 
d="M305 670q25 0 48 -4.5t52.5 -12t50.5 -11.5q-25 -177 -29 -177h-14q-7 0 -11 1t-7.5 4.5t-3.5 11.5q0 16 -5 37t-15.5 43t-30.5 37t-45 15q-26 0 -45.5 -12t-29.5 -30t-14.5 -33.5t-4.5 -27.5q0 -9 2 -17.5t6.5 -17t8.5 -15.5t12.5 -15.5t13.5 -14t16 -14.5t15.5 -13
t17 -14t16.5 -13q7 -5 27.5 -20.5t29 -23.5t22 -24t18.5 -36t5 -45q0 -57 -23.5 -104.5t-60.5 -75.5t-78.5 -43t-81.5 -15q-66 0 -165 26q5 43 5 88q0 16 -0.5 47l-0.5 31q0 8 24 8q4 0 13 -2.5t11 -5.5q0 -46 30 -90.5t76 -44.5q28 0 50 11.5t33.5 27t19 34t9.5 30.5t2 19
q0 19 -12.5 39t-24 31t-37 31.5t-30.5 24.5q-3 2 -16.5 13.5t-17 14.5t-15 13.5t-15 15.5t-12 15t-11.5 18t-7.5 19t-6 22t-1.5 24q0 48 23 90.5t59 70t77 43.5t78 16z" />
    <glyph glyph-name="T" unicode="T" horiz-adv-x="573" 
d="M144 135l70 362q13 67 13 80q0 20 -13 25t-62 5q-38 0 -67 -22.5t-52 -75.5q-3 -5 -10 -5q-6 0 -15 2.5t-10 4.5l49 163q38 -11 62 -11q39 0 101 -3t101 -3t103 3t103 3q23 0 67 11l-15 -164q-2 -2 -12 -4.5t-16 -2.5q-8 0 -8 5q-2 53 -23 76t-58 23q-34 0 -53 -3
t-23 -6.5t-6 -8.5q-14 -31 -25 -89l-70 -361q-10 -52 -10 -80q0 -10 19.5 -19.5t28.5 -9.5q2 0 2 -5q0 -19 -7 -29q-12 1 -37.5 3t-47.5 3t-40 1q-25 0 -71 -3t-57 -4q-1 1 -1 6q0 7 2 17.5t4 10.5q11 0 32.5 6.5t26.5 15.5q15 26 25 83z" />
    <glyph glyph-name="U" unicode="U" horiz-adv-x="679" 
d="M85 522q11 68 8 78q-3 8 -23 16.5t-30 8.5q-3 0 0 17q3 18 5 20q126 -6 134 -6q17 0 131 6v-18q-3 -19 -8 -19q-8 0 -35 -8.5t-30 -15.5q-13 -29 -23 -85l-46 -237q-18 -92 10 -148t94 -56q32 0 60.5 10.5t56 33.5t48.5 65.5t33 101.5l46 238q0 1 2 11.5t3 16.5t1.5 15.5
t-0.5 16.5t-4 12q-7 11 -31.5 20t-35.5 9q-3 1 -2.5 8.5t2.5 17t5 11.5q84 -8 121 -8q23 0 64 3.5t53 4.5q2 -8 0 -18q-1 -5 -4 -12t-5 -7q-8 0 -18.5 -1.5t-31 -9.5t-33.5 -22q-16 -16 -27 -73l-45 -228q-28 -146 -109 -221t-187 -75q-55 0 -95.5 17t-69 54.5t-34.5 97.5
t9 147z" />
    <glyph glyph-name="V" unicode="V" horiz-adv-x="548" 
d="M150 656q40 0 142 6q1 -2 1 -6q0 -9 -2.5 -20t-5.5 -11q-16 0 -40.5 -9t-27.5 -27q-3 -10 8 -66l61 -330l195 329q27 46 32 68q3 15 -14 25t-45 10q-2 0 -2 7q0 18 6 30q92 -5 106 -5q2 0 110 5q2 -5 1 -15q-4 -21 -6 -21q-7 0 -16 -1.5t-24 -6.5t-30.5 -18t-26.5 -32
l-325 -541q-11 -17 -24.5 -27t-22.5 -10q-14 0 -19 13l-92 507q-2 12 -8 41t-7 41q-3 17 -25.5 25t-35.5 8q-3 0 -3 9q0 16 8 28q111 -6 132 -6z" />
    <glyph glyph-name="W" unicode="W" horiz-adv-x="1015" 
d="M149 656q14 0 128 6v-5q0 -9 -2 -20.5t-5 -11.5q-44 0 -50 -34q-1 -8 5 -31q103 -368 104 -368q1 -1 24 29t44 59l22 30l-60 217q-18 64 -25 73q-18 25 -49 25q-3 0 0 19q3 16 5 18q126 -6 128 -6q10 0 124 6v-6q0 -9 -2 -20t-5 -11q-15 0 -30.5 -7.5t-18.5 -24.5
q-1 -8 5 -31l32 -115l62 95q27 42 29 52t-6 17t-20 10t-21 4t-15 1q-2 0 -2 11q0 19 8 25q87 -6 109 -6q4 0 118 6q1 -6 -1.5 -21t-5.5 -15q-14 0 -38.5 -10t-35.5 -20q-32 -31 -69 -86l-92 -138l52 -175q2 1 97.5 143t136.5 204q23 35 26 50q2 12 -12 20t-27 10t-21 2
q-2 0 -2 13q0 17 8 23q87 -6 110 -6q21 0 40.5 1t42 2.5t34.5 2.5q0 -36 -7 -36q-14 0 -37 -9t-34 -19q-31 -29 -71 -88l-325 -491q-10 -15 -21 -23.5t-17 -8.5q-7 0 -9 5l-68 241l-153 -214q-10 -14 -21 -23t-17 -9q-5 0 -7 5l-148 535q-15 53 -28 77q-5 10 -22.5 15.5
t-29.5 5.5q-3 0 0 19q3 16 5 18q126 -6 131 -6z" />
    <glyph glyph-name="X" unicode="X" horiz-adv-x="761" 
d="M283 656q21 0 135 6v-3.5v-4.5q0 -9 -3 -19t-6 -10q-14 0 -32 -5.5t-21 -15.5q-2 -12 3 -22l71 -168q14 15 38.5 40.5t42.5 44.5t36.5 39.5t29 34.5t11.5 21q2 12 -18 21.5t-45 9.5q-1 0 -1 11q0 19 8 26q102 -6 114 -6q11 0 125 6q1 -1 1 -7q0 -9 -3 -19.5t-6 -10.5
q-13 0 -42 -9.5t-49 -29.5l-218 -230q112 -262 122 -280q13 -22 36 -32.5t35 -10.5q1 -2 1 -4t-1.5 -9.5t-1.5 -8.5q-1 -5 -6 -15q-111 6 -134 6t-47 -1t-53 -2.5t-48 -2.5q-1 1 -1 9t3.5 18t6.5 10q12 0 33.5 8t23.5 20q2 5 0 11l-83 197q-2 -2 -24.5 -28t-44 -50
t-45.5 -52.5t-39.5 -48t-16.5 -24.5q-3 -15 18 -24t45 -9q3 0 0 -21q-1 -8 -5 -16q-90 6 -121 6q-6 0 -120 -6l-0.5 5.5t-0.5 8.5q4 23 8 23q12 0 43.5 9.5t44.5 24.5l231 265l-85 205q-27 65 -36 73q-16 15 -46 15q-1 0 -1 12q0 18 8 25q5 0 54 -3t76 -3z" />
    <glyph glyph-name="Y" unicode="Y" horiz-adv-x="590" 
d="M151 656q19 0 133 6q1 -2 1 -9q0 -9 -3 -18.5t-5 -9.5q-14 0 -33 -5.5t-21 -15.5t3 -22l63 -179q140 178 145 200q2 10 -12.5 16t-42.5 6q-2 0 -2 9q0 21 8 28q84 -6 112 -6q25 0 106 6q0 -13 -1 -18q-3 -18 -7 -18q-17 0 -40.5 -9t-39.5 -27q-30 -34 -123 -153.5
t-95 -132.5l-31 -159q-11 -52 -9 -87q0 -7 22 -16t30 -9q3 0 0 -19q-3 -15 -5 -18q-7 0 -55.5 4t-72.5 4q-25 0 -74.5 -3.5t-61.5 -4.5q-3 6 -1 16q3 21 7 21q10 0 35.5 8.5t30.5 16.5q11 27 23 81l33 170q1 7 -17 64t-37 110l-18 54q-19 60 -36 73q-9 6 -23.5 10.5
t-23.5 4.5q-2 0 -2 9q0 7 3 16t7 12q5 0 53.5 -3t76.5 -3z" />
    <glyph glyph-name="Z" unicode="Z" horiz-adv-x="615" 
d="M303 656h102q85 0 217 10q3 -1 4 -13.5t-1 -19.5q-1 -4 -112.5 -141.5t-222.5 -273.5l-111 -136q-9 -11 -10 -15q-1 -5 2 -7.5t9 -2.5h148q65 0 113.5 34t73.5 83q3 6 13 6q23 0 28 -6q-8 -17 -30.5 -59.5t-34.5 -68t-19 -46.5h-481q-7 12 -3 26q2 12 7 17l451 556h-159
q-33 0 -57 -7.5t-41 -24.5t-25.5 -30.5t-23.5 -41.5q-4 -7 -6 -11q-4 -6 -13 -6q-27 0 -30 4q43 112 63 180q21 -6 149 -6z" />
    <glyph glyph-name="bracketleft" unicode="[" horiz-adv-x="391" 
d="M222 -92q7 -4 5.5 -21t-9.5 -20q-122 23 -208 23q-14 0 -14 23l163 834q0 2 1.5 6.5t7 10.5t13.5 6q102 0 217 23q4 0 4 -9q0 -24 -16 -32q-24 -12 -58.5 -22t-51.5 -10q-8 0 -10 -9l-148 -763q-2 -8 6 -8q16 0 46 -9.5t52 -22.5z" />
    <glyph glyph-name="backslash" unicode="\" horiz-adv-x="250" 
d="M38 761q45 0 51 -22l126 -726l1 -2v-4q0 -24 -13 -35t-26 -11l-22 2l-137 792q7 6 20 6z" />
    <glyph glyph-name="bracketright" unicode="]" horiz-adv-x="385" 
d="M0 -92q26 13 60.5 22.5t50.5 9.5q7 0 9 8l149 763q2 9 -7 9q-18 0 -48.5 10t-49.5 22q-6 7 -5.5 16.5t4 17t5.5 7.5q105 -23 209 -23q13 0 13 -17v-6l-162 -834q0 -2 -1.5 -6.5t-7 -10.5t-13.5 -6q-87 0 -218 -23q-3 1 -3 7q0 26 15 34z" />
    <glyph glyph-name="asciicircum" unicode="^" horiz-adv-x="352" 
d="M44 499q2 4 19 18.5t38.5 34t51 53.5t53.5 72q1 2 2.5 4.5t2 4t1.5 2.5t2.5 1.5t3.5 0.5q10 0 13.5 -7t12 -35t24.5 -60q7 -13 21.5 -34t26 -36.5t11.5 -17.5q-2 -6 -8 -18.5t-10 -12.5q-12 0 -48 36.5t-60 76.5q-36 -40 -87 -76.5t-64 -36.5q-6 0 -6 30z" />
    <glyph glyph-name="underscore" unicode="_" horiz-adv-x="519" 
d="M22 -35q9 52 23 52h418q2 0 2 -8q0 -15 -15 -48q-1 -3 -3.5 -4.5t-4.5 -1.5h-1h-414z" />
    <glyph glyph-name="grave" unicode="`" horiz-adv-x="210" 
d="M48 654q0 11 14 22t35 11q22 0 29 -9q17 -28 38.5 -79.5t21.5 -58.5q0 -3 -7 -10.5t-12 -7.5q-11 0 -65 52.5t-54 79.5z" />
    <glyph glyph-name="a" unicode="a" horiz-adv-x="462" 
d="M323 449q32 0 57.5 -7t36.5 -15l-58 -299q-2 -6 -2 -23q0 -24 10 -24q14 0 39 21t34 32q2 0 10.5 -10t8.5 -14q-11 -27 -71.5 -72.5t-102.5 -45.5q-23 0 -38 14.5t-15 39.5v13q1 12 2 17q-47 -84 -109 -84q-55 0 -86 41t-31 107q0 51 24.5 105.5t65 100t100.5 74.5
t125 29zM265 385q-30 0 -56.5 -30.5t-43 -73.5t-25.5 -85.5t-9 -71.5q0 -56 31 -56q32 0 64 69.5t48 150.5l18 90q-7 7 -27 7z" />
    <glyph glyph-name="b" unicode="b" horiz-adv-x="410" 
d="M299 449q102 0 102 -146q0 -66 -27.5 -126.5t-69 -100t-89.5 -63t-91 -23.5q-48 0 -80.5 33t-32.5 84q0 23 6 55l74 382q9 46 9 59q0 22 -49 22q-3 0 -3 8q0 14 9 23q24 0 81.5 14t83.5 25q10 -5 10 -22q0 -13 -17 -89l-46 -238q1 2 4 6q11 17 20 29t26.5 30t37.5 28
t42 10zM249 363q-32 0 -67 -62.5t-48 -133.5q-11 -42 -5.5 -81t30.5 -39q30 0 58.5 42.5t45 100t16.5 106.5q0 67 -30 67z" />
    <glyph glyph-name="c" unicode="c" horiz-adv-x="371" 
d="M252 449q72 0 112 -45q7 -21 7 -33q0 -25 -13 -43t-34 -18q-17 0 -28 13t-15.5 29t-14.5 29t-25 13q-27 0 -52 -36t-39.5 -88t-14.5 -101q0 -101 64 -101q30 0 60 21.5t41 36.5q2 0 10.5 -10t8.5 -14q-12 -28 -65 -68t-100 -40q-74 0 -109.5 43.5t-35.5 118.5
q0 74 34 142.5t90.5 109.5t118.5 41z" />
    <glyph glyph-name="d" unicode="d" horiz-adv-x="465" 
d="M297 448h5l19 93q9 54 9 62q0 22 -49 22q-3 0 -3 8q0 14 9 23q25 0 82.5 14t82.5 25q10 -5 10 -22q0 -6 -3.5 -23.5t-8 -37.5t-5.5 -26l-89 -458q-2 -6 -2 -23q0 -24 10 -24q15 0 40 21t33 32q3 0 11 -10t8 -14q-10 -27 -70.5 -72.5t-103.5 -45.5q-22 0 -37.5 14.5
t-15.5 39.5q0 8 1 15q1 10 2 15q-48 -84 -110 -84q-54 0 -85.5 41t-31.5 107q0 50 22 102.5t60 96.5t93.5 74.5t116.5 34.5zM286 360q2 13 -6 19t-18 6q-29 0 -56 -30.5t-43 -73.5t-25.5 -85.5t-9.5 -71.5q0 -56 31 -56q33 0 64 67.5t49 152.5z" />
    <glyph glyph-name="e" unicode="e" horiz-adv-x="393" 
d="M251 449q52 0 90 -25t38 -68q0 -37 -30 -72t-71 -57t-79.5 -35t-59.5 -13q-4 0 -4 -10q0 -59 17.5 -80t46.5 -21q30 0 60 21.5t41 36.5q2 0 10.5 -10t8.5 -14q-12 -28 -65 -68t-100 -40q-72 0 -108.5 42.5t-36.5 120.5q0 72 33.5 140t90 110t118.5 42zM241 395
q-26 0 -60.5 -54.5t-34.5 -107.5q0 -4 4 -4q47 0 81 43t34 84q0 39 -24 39z" />
    <glyph glyph-name="f" unicode="f" horiz-adv-x="417" 
d="M406 695q64 0 93 -33q0 -100 -59 -100q-14 0 -24 12t-15 27t-14 27t-22 12q-32 0 -61.5 -57t-47.5 -149v-1q0 -4 3 -4h115q10 0 10 -15q0 -20 -14 -44h-120q-5 0 -7 -6l-59 -304q-15 -78 -46.5 -135.5t-69.5 -87t-74.5 -42.5t-71.5 -13q-36 0 -61 12.5t-29 26.5
q0 87 56 87q14 0 23.5 -11t14.5 -24.5t14.5 -24.5t22.5 -11q36 0 57 45.5t35 119.5l72 361v2q0 5 -4 5h-59q-5 0 -5 10q0 11 18.5 30.5t38.5 19.5h17q6 0 9 16q22 114 94 181.5t170 67.5z" />
    <glyph glyph-name="g" unicode="g" horiz-adv-x="465" 
d="M285 -97q0 17 -51 32.5t-92 19.5q-58 -17 -58 -54q0 -31 22.5 -50.5t75.5 -19.5q56 0 79.5 21t23.5 51zM260 388q-24 0 -41 -29t-24.5 -67t-7.5 -75q0 -51 38 -51q20 0 35.5 17.5t23 45t11 53.5t3.5 49q0 26 -10 41.5t-28 15.5zM282 449q25 0 61.5 -13.5t71.5 -13.5h53
q9 0 9 -13q0 -20 -10 -38h-51q-6 0 -6 -6q0 -1 2 -19t2 -34q0 -107 -94 -168q-20 -13 -58.5 -27.5t-62.5 -26.5t-24 -24q0 -6 34 -13t75.5 -15t75.5 -30.5t34 -55.5q0 -26 -12.5 -53.5t-39 -54.5t-76.5 -44.5t-116 -17.5q-70 0 -118 30t-48 73q0 19 11.5 35t31 26.5t37 16.5
t35.5 10q-17 5 -32 16q-25 18 -25 43q0 18 35.5 41t81.5 43q-86 23 -86 131q0 80 62.5 141t146.5 61z" />
    <glyph glyph-name="h" unicode="h" horiz-adv-x="469" 
d="M317 449q44 0 65 -31t21 -78q0 -24 -16 -107l-20 -105q-2 -6 -2 -23q0 -24 10 -24q14 0 39 21t34 32q2 0 10.5 -10t8.5 -14q-11 -27 -71.5 -72.5t-102.5 -45.5q-23 0 -38 14.5t-15 42.5q0 29 10 74l23 119q0 4 3 17t5 24.5t2 16.5q0 21 -6.5 31t-22.5 10q-25 0 -65.5 -85
t-53.5 -151l-21 -105q-20 -6 -56 -6q-35 0 -61 6q115 594 115 603q0 22 -49 22q-3 0 -3 8q0 14 9 23q24 0 81.5 14t83.5 25q10 -5 10 -22q0 -6 -3.5 -24t-8 -38.5t-5.5 -26.5q-54 -277 -54 -280q25 52 67.5 98.5t76.5 46.5z" />
    <glyph glyph-name="i" unicode="i" horiz-adv-x="286" 
d="M175 449q23 0 38 -14.5t15 -42.5q0 -11 -4 -38.5t-6 -35.5l-37 -190q-2 -6 -2 -23q0 -24 10 -24q14 0 39.5 21t33.5 32q3 0 11 -10t8 -14q-11 -27 -71.5 -72.5t-102.5 -45.5q-22 0 -37.5 14.5t-15.5 42.5q0 11 4 38.5t6 35.5l37 190q2 10 2 23q0 24 -10 24
q-14 0 -39.5 -21t-33.5 -32q-2 0 -10.5 10t-8.5 14q11 27 71.5 72.5t102.5 45.5zM207 687q25 0 41.5 -18t16.5 -44q0 -33 -23.5 -59t-54.5 -26q-25 0 -41.5 18t-16.5 45q0 33 23.5 58.5t54.5 25.5z" />
    <glyph glyph-name="j" unicode="j" horiz-adv-x="341" 
d="M249 449q23 0 38 -14.5t15 -42.5q0 -11 -4 -38.5t-6 -35.5l-38 -198q-27 -143 -86 -222q-28 -38 -82 -73t-82 -43q-3 0 -8 14.5t-5 22.5q67 59 94 113t49 168l41 213q2 10 2 23q0 24 -10 24q-14 0 -39 -21t-34 -32q-2 0 -10.5 10t-8.5 14q11 27 71.5 72.5t102.5 45.5z
M294 689q26 0 42 -18t16 -45q0 -33 -23 -59t-55 -26q-25 0 -41.5 18t-16.5 45q0 33 23.5 59t54.5 26z" />
    <glyph glyph-name="k" unicode="k" horiz-adv-x="462" 
d="M319 449q47 0 83.5 -25t36.5 -67q0 -41 -29 -77.5t-66 -56t-69 -23.5q17 -44 46 -88.5t50 -44.5q17 0 41.5 19.5t34.5 32.5q2 0 13.5 -10t11.5 -13q-11 -28 -55 -64t-94 -36q-21 0 -42.5 14.5t-37.5 32.5t-35 48t-28 47t-23 45q-4 9 -6 13l-38 -196q-18 -8 -55 -8
q-29 0 -61 8l105 544q9 46 9 59q0 22 -49 22q-3 0 -3 8q0 14 9 23q24 0 81.5 14t83.5 25q10 -5 10 -22q0 -6 -3.5 -24t-8 -38.5t-5.5 -26.5l-45 -238q6 14 15 28t26 33t42 30.5t55 11.5zM277 376q-39 0 -76 -49t-37 -74q0 -12 33 -12q48 0 80 21q17 12 27 31.5t10 39.5
q0 15 -10.5 29t-26.5 14z" />
    <glyph glyph-name="l" unicode="l" horiz-adv-x="241" 
d="M15 123l82 421q9 47 9 59q0 22 -49 22q-3 0 -3 8q0 14 9 23q25 0 82.5 14t82.5 25q10 -5 10 -22q0 -6 -3 -23.5t-8 -39.5t-6 -26l-89 -456q-2 -10 -2 -23q0 -24 10 -24q15 0 40 21t33 32q3 0 11 -10t8 -14q-10 -27 -70.5 -72.5t-103.5 -45.5q-22 0 -37.5 14.5t-15.5 42.5
q0 11 4 38.5t6 35.5z" />
    <glyph glyph-name="m" unicode="m" horiz-adv-x="748" 
d="M360 449q44 0 65 -31t21 -78q0 -13 -2 -32q27 51 70.5 96t75.5 45q44 0 65 -31t21 -78q0 -24 -16 -107l-20 -105q-2 -6 -2 -23q0 -24 10 -24q14 0 39.5 21t33.5 32q3 0 11 -10t8 -14q-11 -27 -71.5 -72.5t-102.5 -45.5q-22 0 -37.5 14.5t-15.5 42.5q0 29 10 74l23 119
q10 50 10 58q2 41 -29 41q-25 0 -65 -85t-54 -151l-21 -105q-20 -6 -59 -6q-38 0 -59 6l48 242q10 43 10 58q0 41 -30 41q-25 0 -65 -85t-54 -151l-21 -105q-20 -6 -56 -6q-35 0 -59 6l60 313q2 10 2 23q0 24 -10 24q-14 0 -39.5 -21t-33.5 -32q-2 0 -10.5 10t-8.5 14
q11 27 71.5 72.5t102.5 45.5q23 0 38 -14.5t15 -42.5q0 -12 -8 -64l-4 -26q26 53 68 100t75 47z" />
    <glyph glyph-name="n" unicode="n" horiz-adv-x="513" 
d="M176 449q23 0 38 -14.5t15 -42.5q0 -12 -8 -64q0 -2 -0.5 -4.5t-1.5 -8.5t-1.5 -9.5l-0.5 -3.5q26 53 68 100t75 47q44 0 65 -31t21 -78q0 -24 -16 -107l-20 -105q-2 -6 -2 -23q0 -24 10 -24q14 0 39.5 21t33.5 32q3 0 11 -10t8 -14q-11 -27 -71.5 -72.5t-102.5 -45.5
q-22 0 -37.5 14.5t-15.5 42.5q0 29 10 74l23 119q10 50 10 58q0 21 -6.5 31t-22.5 10q-25 0 -65 -85t-54 -151l-21 -105q-20 -6 -56 -6q-35 0 -59 6l60 313q2 10 2 23q0 24 -10 24q-14 0 -39.5 -21t-33.5 -32q-2 0 -10.5 10t-8.5 14q11 27 71.5 72.5t102.5 45.5z" />
    <glyph glyph-name="o" unicode="o" horiz-adv-x="407" 
d="M240 396q-29 0 -54.5 -46.5t-39.5 -112.5t-13 -127q2 -63 33 -63t57 50.5t38.5 115t11.5 119.5q-2 64 -33 64zM250 449q77 0 112 -44.5t35 -117.5q0 -74 -32 -141.5t-88 -109.5t-121 -42q-78 0 -112.5 44.5t-34.5 117.5q0 68 31.5 135.5t88 112.5t121.5 45z" />
    <glyph glyph-name="p" unicode="p" horiz-adv-x="473" 
d="M301 372q-23 0 -44 -23t-36 -50l-38 -197q-5 -26 1 -37t26 -11q27 0 56.5 39t49.5 101t20 122q0 21 -10 38.5t-25 17.5zM348 449q53 0 82 -46t29 -104q0 -59 -25 -116.5t-62.5 -98t-83.5 -65.5t-87 -25q-24 0 -37 12l-24 -122q-2 -14 -2 -21q0 -31 22 -36q16 -4 35 -4
q7 0 7 -12q0 -16 -4 -22q-84 0 -113 -1q-60 -2 -125 -9q-3 1 -3 9q0 21 5 25q36 2 49 18q3 5 12 47l64 326l-38 -31q-11 14 -11 29q0 9 7 16q34 33 54 51l34 174q30 6 58 6q29 0 58 -6l-14 -64q2 2 10 13t16.5 18.5t21 17.5t29.5 15.5t36 5.5z" />
    <glyph glyph-name="q" unicode="q" horiz-adv-x="416" 
d="M262 385q-33 0 -64.5 -45t-49 -104.5t-17.5 -107.5q0 -59 28 -59q21 0 44.5 33t39 72t22.5 72l27 131q-5 8 -30 8zM320 449q55 0 95 -22l-103 -538q-3 -13 -3 -23q0 -24 10 -33t42 -9q6 0 6 -18q0 -11 -4 -17q-8 0 -25.5 0.5t-23.5 0.5q-94 0 -195 -11q-4 6 -4 14
q0 20 5 20q8 0 16.5 2t20.5 8.5t22 22t15 38.5l36 182q-13 -26 -43.5 -50t-59.5 -24q-56 0 -87.5 39.5t-31.5 102.5q0 75 41.5 147.5t115 120t155.5 47.5z" />
    <glyph glyph-name="r" unicode="r" horiz-adv-x="437" 
d="M176 449q23 0 38 -14.5t15 -42.5q0 -30 -5 -54q-7 -40 -8 -44q29 68 69.5 111.5t90.5 43.5q36 0 66 -39q0 -39 -14.5 -69.5t-46.5 -30.5q-16 0 -35 22t-35 22q-25 0 -72 -90.5t-64 -174.5l-18 -89q-28 -6 -57 -6t-58 6l60 313q2 10 2 23q0 24 -10 24q-14 0 -39.5 -21
t-33.5 -32q-2 0 -10.5 10t-8.5 14q11 27 71.5 72.5t102.5 45.5z" />
    <glyph glyph-name="s" unicode="s" horiz-adv-x="325" 
d="M214 449q64 0 98 -29q11 -14 11 -37q0 -28 -11 -44t-29 -16q-17 0 -29.5 12t-19 26.5t-18 26.5t-27.5 12q-19 0 -27 -10t-8 -33q0 -19 19.5 -50.5t42.5 -61t42.5 -65.5t19.5 -62q0 -54 -49.5 -90t-118.5 -36q-62 0 -100 32q-9 11 -9 34q0 28 11 44t29 16q17 0 30.5 -12
t20.5 -26.5t18.5 -26.5t24.5 -12q19 0 27 10t8 33q0 19 -19.5 50.5t-42.5 61t-42.5 65.5t-19.5 62q0 55 49.5 90.5t118.5 35.5z" />
    <glyph glyph-name="t" unicode="t" horiz-adv-x="289" 
d="M112 527q1 6 31 9.5t57 3.5q19 0 31 -4l-23 -107h87q10 0 10 -17q0 -24 -12 -42h-96l-47 -242q-2 -6 -2 -23q0 -24 10 -24q14 0 39 21t34 32q2 0 10.5 -10t8.5 -14q-11 -27 -71.5 -72.5t-102.5 -45.5q-23 0 -38 14.5t-15 42.5q0 11 4 38.5t6 35.5l48 247h-56q-4 0 -4 12
q0 11 4.5 26.5t9.5 20.5h58z" />
    <glyph glyph-name="u" unicode="u" horiz-adv-x="513" 
d="M175 449q23 0 38 -14.5t15 -42.5q0 -29 -10 -74l-23 -119q-1 -4 -3.5 -17t-4.5 -24.5t-2 -16.5q0 -21 6.5 -31t22.5 -10q25 0 65.5 85t53.5 151l21 105q20 6 56 6q35 0 59 -6l-60 -313q-2 -10 -2 -23q0 -24 10 -24q14 0 39.5 21t33.5 32q3 0 11 -10t8 -14
q-11 -27 -71.5 -72.5t-102.5 -45.5q-22 0 -37.5 14.5t-15.5 42.5q0 16 8 64q0 2 0.5 4.5t1.5 8.5t1.5 9.5l0.5 3.5q-26 -53 -68 -100t-75 -47q-44 0 -65 31t-21 78q0 24 16 107l20 105q2 6 2 23q0 24 -10 24q-14 0 -39.5 -21t-33.5 -32q-2 0 -10.5 10t-8.5 14
q11 27 71.5 72.5t102.5 45.5z" />
    <glyph glyph-name="v" unicode="v" horiz-adv-x="443" 
d="M175 449q23 0 38 -14.5t15 -42.5t-8 -64l-32 -163q-3 -15 -3 -37q0 -40 26 -40q27 0 61 31.5t58.5 79.5t24.5 89q0 26 -18 51.5t-18 50.5q0 27 20.5 43t50.5 16q24 0 38 -11q10 -17 10 -58q0 -66 -29.5 -137t-72 -124.5t-90.5 -88t-85 -34.5q-42 0 -70.5 24.5t-28.5 68.5
q0 26 5 52l34 172q2 10 2 23q0 24 -10 24q-14 0 -39.5 -21t-33.5 -32q-2 0 -10.5 10t-8.5 14q11 27 71.5 72.5t102.5 45.5z" />
    <glyph glyph-name="w" unicode="w" horiz-adv-x="686" 
d="M175 449q23 0 38 -14.5t15 -42.5t-8 -64l-32 -163q-3 -15 -3 -37q0 -40 26 -40q57 0 101 77q7 69 14.5 114.5t18.5 87.5t27.5 62t38.5 20q31 0 43 -18.5t12 -51.5q0 -53 -38 -197q-2 -14 -2 -34q0 -36 5.5 -48t22.5 -12q27 0 61 31.5t58.5 79.5t24.5 89q0 23 -18.5 52.5
t-18.5 54.5q0 26 21.5 40t47.5 14q29 0 41 -11q10 -17 10 -58q0 -66 -29.5 -137t-72 -124.5t-90.5 -88t-85 -34.5q-42 0 -70.5 22t-29.5 65q-80 -87 -143 -87q-42 0 -70.5 24.5t-28.5 68.5q0 26 5 52l34 172q2 10 2 23q0 24 -10 24q-14 0 -39.5 -21t-33.5 -32q-2 0 -10.5 10
t-8.5 14q11 27 71.5 72.5t102.5 45.5z" />
    <glyph glyph-name="x" unicode="x" horiz-adv-x="483" 
d="M205 449q35 0 56 -78l15 -53l38 67q41 64 95 64q41 0 71 -18q7 -12 7 -29q0 -23 -13.5 -40t-39.5 -17q-18 0 -33.5 9t-25.5 9q-21 0 -31 -17l-49 -95l39 -139q9 -28 24 -28q14 0 39.5 21t33.5 32q3 0 11 -10t8 -14q-11 -27 -71.5 -72.5t-102.5 -45.5q-34 0 -56 79l-19 68
l-50 -84q-42 -64 -95 -64q-41 0 -71 18q-7 12 -7 29q0 23 13.5 40t39.5 17q18 0 33.5 -9t25.5 -9q21 0 31 17l62 110l-36 125q-9 28 -24 28q-14 0 -39.5 -21t-33.5 -32q-2 0 -10.5 10t-8.5 14q11 27 71.5 72.5t102.5 45.5z" />
    <glyph glyph-name="y" unicode="y" horiz-adv-x="509" 
d="M219 449q12 0 23 -10.5t20 -27.5t17 -41.5t14.5 -50t12 -55t9 -55.5t7 -52.5t5 -43.5t3 -32l1.5 -15q16 20 50.5 90.5t34.5 116.5q0 27 -12 61.5t-24 54.5q0 23 20 41.5t45 18.5q23 0 39.5 -16t16.5 -39q0 -86 -32 -177.5t-83 -167t-111 -137t-121.5 -96t-109.5 -34.5
q-26 0 -43 12.5t-17 40.5q0 25 18 45q44 -12 76 -12t56.5 8.5t35.5 18t23 24.5q21 27 21 89q0 57 -14 146t-39 178q-8 28 -24 28q-14 0 -39.5 -21t-33.5 -32q-3 0 -11 10t-8 14q11 27 71.5 72.5t102.5 45.5z" />
    <glyph glyph-name="z" unicode="z" horiz-adv-x="431" 
d="M170 449q35 0 89 -11t89 -11q15 0 37.5 11t37.5 11q19 0 19 -34l-304 -307q6 1 15 4t16.5 5t15.5 2q24 0 61 -11t62 -11q15 0 30 12.5t26 25t15 12.5q12 0 21 -28l-13 -26t-18.5 -30.5t-26.5 -33t-31.5 -23t-38.5 -10.5q-35 0 -88.5 12t-87.5 12q-20 0 -49 -12t-39 -12
q-9 0 -15 9.5t-7 17.5l305 314q-20 -9 -37 -9q-21 0 -51.5 11t-55.5 11q-15 0 -30 -13t-26.5 -25.5t-16.5 -12.5q-6 0 -13.5 8t-11.5 17q17 41 52.5 83t68.5 42z" />
    <glyph glyph-name="braceleft" unicode="{" horiz-adv-x="354" 
d="M32 31q0 32 25 107.5t25 96.5q0 9 -3 17t-6.5 12.5t-12 9t-13 6.5t-16.5 5.5t-16 5.5q-1 4 1 17t7 20q39 10 60 23.5t28.5 36.5t8.5 45t3 62.5t9 76.5q10 54 51.5 96t89 62t89.5 20q2 0 2 -4q0 -7 -3.5 -17.5t-7.5 -11.5q-26 -2 -57.5 -31t-40.5 -73q-7 -35 -9 -85.5
t-10 -93.5q-9 -47 -41 -86.5t-58 -39.5q21 0 37.5 -26.5t16.5 -64.5t-27 -115t-27 -108q0 -35 19.5 -59.5t39.5 -26.5q6 -2 3.5 -17.5t-7.5 -15.5q-58 0 -109 46t-51 110z" />
    <glyph glyph-name="bar" unicode="|" horiz-adv-x="242" 
d="M165 757q21 19 59 19q25 0 24 -10l-170 -872q-8 -7 -31.5 -13.5t-40.5 -6.5q-5 0 -8.5 4t-2.5 7q100 534 170 872z" />
    <glyph glyph-name="braceright" unicode="}" horiz-adv-x="346" 
d="M214 637q0 34 -19 56t-40 24q-6 1 -3.5 17t7.5 16q60 0 112 -41t52 -107q0 -34 -27.5 -112.5t-27.5 -100.5q0 -26 17 -39t49 -22q1 -2 1 -7q0 -20 -8 -30q-3 -1 -17.5 -5t-18 -5.5t-15 -6t-15.5 -9t-11 -11t-10.5 -15.5t-5.5 -20q-5 -25 -7.5 -78t-8.5 -83
q-14 -73 -89 -128t-140 -55q-3 0 -3 6t3.5 16t7.5 11q25 2 58 33.5t42 76.5q7 35 8 80.5t9 88.5q9 47 40.5 84t57.5 37q-21 0 -37.5 28t-16.5 67q0 38 28 121.5t28 112.5z" />
    <glyph glyph-name="asciitilde" unicode="~" horiz-adv-x="500" 
d="M166 359q44 0 105 -26.5t104 -26.5q17 0 35 7.5t26.5 13.5t31.5 23q4 -2 4 -15q0 -33 -45 -61.5t-90 -28.5q-44 0 -105.5 26.5t-105.5 26.5q-17 0 -35 -7.5t-26.5 -13.5t-31.5 -23q-4 2 -4 15q0 34 50 62t87 28z" />
    <glyph glyph-name="uni00A0" unicode="&#xa0;" horiz-adv-x="190" 
 />
    <glyph glyph-name="exclamdown" unicode="&#xa1;" horiz-adv-x="241" 
d="M-4 -187q0 24 47.5 184.5t68.5 222.5q7 22 16 22q10 0 17 -8t7 -21q0 -23 -15.5 -191.5t-19.5 -191.5q-6 -31 -27 -49.5t-44 -18.5q-22 0 -36 13.5t-14 37.5zM91 351q0 36 28 64t59 28q24 0 38.5 -17t14.5 -43q0 -36 -26.5 -63t-59.5 -27q-23 0 -38.5 16.5t-15.5 41.5z
" />
    <glyph glyph-name="cent" unicode="&#xa2;" horiz-adv-x="371" 
d="M292 449q72 0 112 -45q7 -21 7 -33q0 -25 -13 -43t-34 -18q-17 0 -28 13t-15.5 29t-14.5 29t-25 13q-40 0 -73 -74t-33 -151q0 -101 64 -101q31 0 60.5 21.5t40.5 36.5q2 0 10.5 -10t8.5 -14q-11 -28 -64.5 -68t-100.5 -40q-74 0 -109.5 43.5t-35.5 118.5q0 114 74 203.5
t169 89.5z" />
    <glyph glyph-name="sterling" unicode="&#xa3;" horiz-adv-x="489" 
d="M381 642q39 0 72.5 -9t40.5 -26q-8 -38 -25.5 -60.5t-41.5 -22.5q-19 0 -30 15t-21 30.5t-26 15.5q-87 0 -113 -136q-5 -30 -3 -88q0 -3 3 -3h151q8 0 8 -15q0 -27 -15 -42h-143q-4 0 -4 -3q0 -17 -7 -50q-15 -71 -83 -152q25 15 81 15q28 0 64.5 -14.5t48.5 -14.5
q6 0 12 1t11 1.5t10.5 3.5t8.5 4t9 6t8 6.5t8.5 8t8 7.5t9 9.5t8.5 9.5q5 0 10 -4t5 -11q0 -5 -1 -6q-22 -43 -60 -83t-81 -40q-32 0 -90.5 14.5t-79.5 14.5q-20 0 -38 -3.5t-26.5 -7.5t-22.5 -11l-18 -9q-14 3 -21.5 11.5t-7.5 15.5q0 3 5 6q53 42 79.5 86.5t34.5 117.5
q1 7 3.5 32l3.5 35q0 4 -4 4h-72q-3 7 -3 18t5.5 25t12.5 14h59q3 0 3 4q-1 36 9 85q18 90 85 142.5t160 52.5z" />
    <glyph glyph-name="currency" unicode="&#xa4;" horiz-adv-x="475" 
d="M259 452q-33 0 -56 -40t-30.5 -83.5t-7.5 -80.5q0 -84 56 -84q33 0 56 39t31 82.5t8 81.5q0 85 -57 85zM278 497q59 0 99 -35l57 48q2 2 4 2q8 0 17 -17t10 -33l-54 -46q15 -35 15 -70q0 -86 -65 -156l33 -48q1 -1 1 -3q0 -8 -19 -22.5t-35 -18.5l-33 50
q-50 -29 -104 -29q-61 0 -102 38l-58 -49q-2 -2 -4 -2q-8 0 -17.5 17t-10.5 33l57 48q-13 32 -13 65q0 84 64 155l-35 52q-1 1 -1 3q0 8 19 22.5t35 18.5l35 -53q51 30 105 30z" />
    <glyph glyph-name="yen" unicode="&#xa5;" horiz-adv-x="627" 
d="M50 167h96l10 50h-91q-9 0 -9 15q0 18 12 38h98q6 18 6 30q0 2 -2 14l-68 232q-15 51 -41 70q-17 12 -45 12q-3 0 -3 10q0 18 8 24q15 -1 41.5 -2.5t48.5 -2.5t42 -1q40 0 154 6v-5q0 -7 -3 -18t-6 -11q-13 0 -31 -7.5t-18 -22.5q0 -4 6 -22l52 -154q1 -3 3 -3q4 0 7 5
q138 155 138 180q0 12 -21.5 18t-45.5 6q-2 0 -2 6q0 22 8 28q102 -6 127 -6q21 0 39.5 1t39 2.5t33.5 2.5q0 -33 -7 -33q-9 0 -41.5 -11.5t-44.5 -23.5q-31 -31 -133 -152.5t-107 -149.5l-4 -22h98q8 0 8 -14q0 -25 -16 -39h-100l-9 -50h97q8 0 8 -14q0 -25 -16 -39h-99
q-5 -30 -5 -55q0 -10 19 -19.5t28 -9.5q2 0 2 -5q0 -19 -6 -29q-111 6 -112 6q-12 0 -141 -6q-1 1 -1 6q0 7 2 17.5t4 10.5q10 0 32.5 8t27.5 17q8 14 19 59h-89q-9 0 -9 15q0 23 12 38z" />
    <glyph glyph-name="brokenbar" unicode="&#xa6;" horiz-adv-x="240" 
d="M163 752q21 19 59 19q4 0 10 -1t10 -4t4 -6l-71 -362q-9 -7 -32 -14t-40 -7q-5 0 -8.5 4t-2.5 7q1 26 71 364zM65 248q23 20 60 20q7 0 15.5 -3t7.5 -8l-71 -363q-8 -7 -31.5 -13.5t-40.5 -6.5q-5 0 -8.5 4t-2.5 7q1 25 71 363z" />
    <glyph glyph-name="section" unicode="&#xa7;" horiz-adv-x="396" 
d="M292 651q31 0 53.5 -12.5t27.5 -25.5l-1 -9q0 -8 -1.5 -17.5t-5.5 -19.5t-13.5 -17t-22.5 -7q-11 0 -21 12.5t-23 25t-31 12.5q-70 0 -70 -56q0 -24 19 -44t46 -35.5t53.5 -33t45.5 -45t19 -61.5q0 -47 -30 -98t-62 -72q2 -10 2 -23q0 -82 -51.5 -124t-118.5 -42
q-32 0 -55 12t-28 25q0 16 11.5 42.5t32.5 26.5q17 0 37.5 -24t42.5 -24q25 0 46 13t21 43q0 25 -18.5 45.5t-45 37.5t-53 35.5t-45 46.5t-18.5 63q0 17 4 39t26 60t59 63q-2 5 -2 19q0 79 51 124t119 45zM111 359q0 -29 19.5 -51t44.5 -34.5t51.5 -35.5t37.5 -53
q26 24 26 59q0 28 -20 52t-45.5 38.5t-52.5 38.5t-37 51q-24 -18 -24 -65z" />
    <glyph glyph-name="dieresis" unicode="&#xa8;" horiz-adv-x="386" 
d="M418 590q25 0 41.5 -18t16.5 -44q0 -33 -23.5 -59t-54.5 -26q-25 0 -41.5 18t-16.5 45q0 33 23.5 58.5t54.5 25.5zM198 592q25 0 41.5 -18t16.5 -45q0 -33 -23.5 -58.5t-54.5 -25.5q-25 0 -41.5 18t-16.5 44q0 33 23.5 59t54.5 26z" />
    <glyph glyph-name="copyright" unicode="&#xa9;" horiz-adv-x="574" 
d="M321 481q44 0 87 -12q1 0 1 -7q0 -46 -5 -61q-1 -4 -8 -4q-6 0 -12 2q-1 18 -16 35t-51 17q-39 0 -64 -46.5t-25 -99.5q0 -76 58 -76q35 0 53 15q4 3 8 7t7 7.5t5.5 6.5t4.5 5l1 2q1 0 2 0.5t2 0.5q9 0 12 -5q-1 -7 -10.5 -26t-16.5 -23q-37 -20 -92 -20q-44 0 -72 31.5
t-28 78.5q0 63 47 117.5t112 54.5zM337 569q-100 0 -180.5 -83.5t-80.5 -190.5q0 -79 48 -130.5t124 -51.5q100 0 180.5 84t80.5 191q0 79 -48 130t-124 51zM346 615q91 0 148.5 -61.5t57.5 -155.5q0 -129 -96.5 -229t-216.5 -100q-91 0 -148 61.5t-57 155.5q0 129 96 229
t216 100z" />
    <glyph glyph-name="ordfeminine" unicode="&#xaa;" horiz-adv-x="369" 
d="M239 554q22 0 48.5 -5.5t32.5 -9.5l-38 -200q-2 -8 -2 -14q0 -18 14 -18q5 0 13 9.5t14 19.5t7 10q4 0 11.5 -6.5t9.5 -13.5q-10 -25 -36 -52t-62 -27q-34 0 -47 38q-3 15 -3 16t-1 1l-1 -1q-49 -54 -93 -54q-70 0 -70 71q0 67 69 151.5t134 84.5zM213 512
q-23 0 -56.5 -64.5t-33.5 -109.5q0 -40 16 -40q22 0 47 40.5t33 89.5l10 57q2 14 2 16q0 11 -18 11z" />
    <glyph glyph-name="guillemotleft" unicode="&#xab;" horiz-adv-x="475" 
d="M443 423q6 -1 17 -8.5t11 -15.5q0 -7 -84 -80l-82 -71l53 -71q54 -70 54 -78q0 -9 -14.5 -16.5t-23.5 -9.5q-1 2 -17.5 18.5t-59 54.5t-95.5 81q-4 1 -4 11q0 17 13 30q137 79 232 155zM258 423q6 -1 17 -8.5t11 -15.5q0 -7 -84 -80l-82 -71l53 -71q54 -70 54 -78
q0 -9 -14.5 -16.5t-23.5 -9.5q-1 2 -17.5 18.5t-59 54.5t-95.5 81q-4 4 -4 11q0 17 13 30q137 79 232 155z" />
    <glyph glyph-name="logicalnot" unicode="&#xac;" horiz-adv-x="510" 
d="M53 427h418q11 0 9 -11l-47 -253q-19 -10 -52 -10q-6 0 -11.5 2.5t-4.5 7.5l36 183v2q0 8 -8 8h-362l-3 10q16 61 25 61z" />
    <glyph glyph-name="registered" unicode="&#xae;" horiz-adv-x="568" 
d="M308 532q-8 0 -12 -3t-6 -11l-15 -79q-1 -2 -1 -6q0 -8 16 -8q22 0 33 22t11 48q0 37 -26 37zM321 554q29 0 53.5 -13.5t24.5 -43.5q0 -28 -19 -55t-42 -37l-2 -2q0 -1 0.5 -1t0.5 -1q11 -28 26 -59q29 -54 54 -54q0 -8 -3 -14q-3 -2 -12 -2q-32 0 -53 12t-28.5 23
t-18.5 34q-6 13 -11 25t-7.5 18.5t-4.5 9.5q-3 5 -8 5q-4 0 -5 -6l-15 -75q-1 -4 -1 -13q0 -6 2 -8q3 -4 7.5 -6t7.5 -3h3q1 0 1 -2q0 -7 -4 -13l-23 2q-22 2 -33 2t-32.5 -2t-27.5 -2v7q0 8 2 8q4 0 14 4t12 7q8 18 10 33l31 164q4 28 4 33q0 3 -8.5 7t-12.5 4q-1 0 -1 4
q0 8 3 11q36 -2 61 -2q12 0 28 0.5t27 0.5zM342 636q-100 0 -180.5 -83.5t-80.5 -190.5q0 -79 48 -130.5t124 -51.5q100 0 180.5 84t80.5 191q0 79 -48 130t-124 51zM351 682q91 0 148.5 -61.5t57.5 -155.5q0 -129 -96.5 -229t-216.5 -100q-91 0 -148 61.5t-57 155.5
q0 129 96 229t216 100z" />
    <glyph glyph-name="macron" unicode="&#xaf;" horiz-adv-x="354" 
d="M175 599h233q5 0 5 -14q0 -2 -2.5 -12t-9 -24t-14.5 -19h-227q-7 0 -7 19q0 10 6.5 26.5t15.5 23.5z" />
    <glyph glyph-name="degree" unicode="&#xb0;" horiz-adv-x="215" 
d="M223 590q-26 0 -43.5 -21t-17.5 -46q0 -18 10 -29.5t30 -11.5q26 0 43.5 21t17.5 46q0 18 -10 29.5t-30 11.5zM232 634q33 0 53.5 -22.5t20.5 -56.5q0 -46 -35.5 -82t-77.5 -36q-33 0 -53.5 22.5t-20.5 56.5q0 47 35.5 82.5t77.5 35.5z" />
    <glyph glyph-name="plusminus" unicode="&#xb1;" horiz-adv-x="488" 
d="M61 111h425q4 0 4 -18q0 -28 -26 -54h-425q-4 0 -4 18q0 28 26 54zM120 420h165q4 0 4 4q6 29 16 86.5t17 93.5q2 9 30.5 13.5t41.5 4.5q6 0 8.5 -2.5t1.5 -6.5l-35 -188q-2 -5 3 -5h173q4 0 4 -18q0 -28 -26 -54h-166q-4 0 -4 -4l-35 -180q-1 -7 -25 -12.5t-41 -5.5
q-8 0 -12 3t-3 6l36 188q0 5 -4 5h-171q-4 0 -4 18q0 28 26 54z" />
    <glyph glyph-name="uni00B2" unicode="&#xb2;" horiz-adv-x="312" 
d="M208 644q38 0 60.5 -22.5t22.5 -60.5q0 -39 -23.5 -80.5t-61 -75t-61.5 -51.5t-46 -32q-2 -2 -2 -4t2 -2h106q22 0 35 13t19.5 26t12.5 13q15 0 18 -5l-48 -110l-95 1q-114 -1 -119 -1q-8 11 -8 22q0 5 3 13q90 80 137 146t47 105q0 19 -9.5 33t-28.5 14t-38 -11.5
t-31 -23t-13 -11.5q-3 0 -7 8.5t-4 13.5q0 8 3 12q12 20 50 45t79 25z" />
    <glyph glyph-name="uni00B3" unicode="&#xb3;" horiz-adv-x="290" 
d="M109 282q41 0 60 37t19 71q0 50 -61 50h-21q-3 10 -2 16q0 8 4 14q37 8 58.5 29.5t25.5 36.5t4 28q0 15 -7.5 23.5t-18.5 8.5q-18 0 -42 -18.5t-26 -18.5q-6 0 -12 8.5t-2 12.5q20 25 56.5 45t68.5 20q22 0 42.5 -14.5t20.5 -42.5q0 -32 -27.5 -65.5t-60.5 -50.5
q24 0 53 -18t29 -55q0 -58 -54.5 -105.5t-133.5 -47.5q-19 0 -42 6.5t-23 20.5t11.5 28t28.5 14q11 0 24 -16.5t28 -16.5z" />
    <glyph glyph-name="acute" unicode="&#xb4;" horiz-adv-x="216" 
d="M260 687q19 0 32 -13t13 -22q0 -24 -67 -77t-80 -53q-3 0 -7.5 6.5t-4.5 10.5q0 7 31.5 63t50.5 79q5 6 32 6z" />
    <glyph glyph-name="uni00B5" unicode="&#xb5;" horiz-adv-x="467" 
d="M184 446q9 0 30.5 -14t19.5 -23q-13 -64 -43 -143l-14 -43q-11 -59 -3 -96t31 -37q62 0 96 114l48 229q22 15 46 13q29 -2 46 -14t14 -23q-8 -48 -52 -163l-9 -23q-15 -61 -13.5 -103t28.5 -42q15 0 33.5 11t26.5 20q3 0 8 -13q2 -10 -1 -20q-15 -33 -43 -56.5t-54 -23.5
q-30 1 -44.5 40.5t-10.5 91.5q-25 -43 -42 -68t-44.5 -47t-56.5 -22q-6 0 -11 1.5t-8.5 5.5t-6.5 7.5t-5 10t-3.5 11t-3 13t-2 12t-1.5 13t-1 11.5q0 -4 -9.5 -42t-17 -75.5t-7 -82t15.5 -67.5q-6 -8 -24.5 -22t-29.5 -14q-54 0 -54 100q0 56 82 331q3 14 8.5 50.5t6.5 43.5
q1 3 25 128q4 6 22 13t27 7z" />
    <glyph glyph-name="paragraph" unicode="&#xb6;" horiz-adv-x="434" 
d="M310 261l-38 -204q-1 -6 3 -9.5t11 -3.5q14 0 16 14q12 45 45 212q1 4 -3 4q-9 0 -25 -4q-7 -1 -9 -9zM318 652q28 0 51 -2t51 -2l114 6q3 -4 -1 -18t-8 -14q-12 0 -31 -5t-24 -13q-5 -11 -23 -104q-6 -32 -16.5 -87.5t-12.5 -64.5q-1 -5 4 -5l41 9q2 -8 -1 -19
q-4 -18 -23 -29q-11 -6 -26 -10q-6 -3 -6 -4q-8 -39 -24 -130t-15 -108q1 -8 18.5 -15t27.5 -7q3 0 1 -12q-3 -17 -8 -22q-17 1 -65.5 3.5t-82.5 2.5q-19 0 -37.5 -1t-40 -2.5t-34.5 -2.5q-1 5 2 18.5t6 13.5q8 0 28.5 7.5t23.5 14.5q7 18 30 133l14 73q1 5 -3.5 6t-13.5 1
q-78 0 -112 56t-18 141q19 98 82.5 145t131.5 47zM377 594l-53 -262q-1 -2 0.5 -3.5t5.5 -1.5q13 0 23 5q6 3 7 8q45 235 48 256q1 3 -3 6.5t-10 3.5q-16 0 -18 -12z" />
    <glyph glyph-name="periodcentered" unicode="&#xb7;" horiz-adv-x="189" 
d="M78 250q0 35 26.5 61.5t58.5 26.5q24 0 39.5 -16.5t15.5 -41.5q0 -33 -26 -62.5t-57 -29.5q-25 0 -41 18t-16 44z" />
    <glyph glyph-name="cedilla" unicode="&#xb8;" horiz-adv-x="30821" 
d="M201 -1h36l-22 -31q13 1 22 1q21 0 34.5 -14.5t13.5 -35.5q0 -12 -6 -27.5t-19 -33t-39.5 -29.5t-61.5 -12q-41 0 -54 8q-5 11 -5 25q0 10 7.5 18t14.5 8q9 0 24 -10.5t28 -10.5q24 0 37.5 13t13.5 29q0 25 -21 25q-17 0 -34 -7q-2 0 -8.5 7.5t-3.5 10.5q6 9 21.5 33.5
t21.5 32.5z" />
    <glyph glyph-name="uni00B9" unicode="&#xb9;" horiz-adv-x="267" 
d="M60 567q171 81 177 81q4 0 8.5 -8.5t4.5 -11.5q-21 -46 -29 -85l-41 -212q-2 -8 -2 -20q0 -9 4 -16q4 -6 20 -10t24 -4q2 0 2 -4q0 -18 -7 -25q-6 0 -43 2.5t-51 2.5t-58.5 -2.5t-47.5 -2.5l-1 2v2q0 6 2.5 15.5t3.5 9.5q8 0 27 5t24 11q13 15 16 33l39 199q2 16 2 18
q0 13 -8 13q-9 0 -57 -22q-3 1 -6.5 7t-3.5 12q0 9 1 10z" />
    <glyph glyph-name="ordmasculine" unicode="&#xba;" horiz-adv-x="342" 
d="M166 284q74 0 74 166q0 67 -42 67q-73 0 -73 -169q0 -64 41 -64zM39 367q0 73 54 130t120 57q50 0 82 -34.5t32 -86.5q0 -69 -52.5 -127.5t-121.5 -58.5q-50 0 -82 34t-32 86z" />
    <glyph glyph-name="guillemotright" unicode="&#xbb;" horiz-adv-x="489" 
d="M99 423q86 -86 173 -154q3 -6 3 -13q0 -22 -13 -28q-70 -43 -126.5 -81t-79.5 -55t-24 -19q-6 1 -17 8.5t-11 15.5q0 5 11.5 16t72.5 64l81 71l-54 71q-53 68 -53 77t14.5 17t22.5 10zM284 423q86 -86 173 -154q4 -8 4 -13q0 -22 -14 -28q-70 -43 -126.5 -81t-79.5 -55
t-24 -19q-6 1 -17 8.5t-11 15.5q0 5 11.5 16t72.5 64l81 71l-54 71q-53 68 -53 77t14.5 17t22.5 10z" />
    <glyph glyph-name="onequarter" unicode="&#xbc;" horiz-adv-x="632" 
d="M49 567q171 81 177 81q4 0 8.5 -8.5t4.5 -11.5q-21 -46 -29 -85l-41 -212q-2 -8 -2 -20q0 -9 4 -16q4 -6 20 -10t24 -4q2 0 2 -4q0 -18 -7 -25q-6 0 -43 2.5t-51 2.5t-58.5 -2.5t-47.5 -2.5v2q-1 1 -1 2q0 6 2.5 15.5t3.5 9.5q8 0 27 5t24 11q13 15 16 33l39 199
q2 16 2 18q0 13 -8 13q-9 0 -57 -22q-3 1 -6.5 7t-3.5 12q0 9 1 10zM587 616l-445 -629q-8 -1 -22 5t-14 14q0 4 2 6l443 632q7 2 22 -6t15 -16q0 -5 -1 -6zM569 388q9 9 19 9q5 0 8 -0.5t5.5 -2t2.5 -3.5l-45 -231v-1q0 -3 4 -3h19q6 0 6 -16q0 -24 -13 -40h-24q-2 0 -4 -5
l-19 -93q-22 -5 -44 -5q-6 0 -12 0.5t-11 1t-8.5 1t-5.5 1.5t-2 2l19 93v1q0 3 -5 3h-145q-7 4 -3 23zM396 156h74q5 0 6 4l20 101q0 6 -1 6l-2 -1l-99 -102q-1 -1 -1 -2q0 -6 3 -6z" />
    <glyph glyph-name="onehalf" unicode="&#xbd;" horiz-adv-x="667" 
d="M569 616l-445 -629q-8 -1 -22 5t-14 14q0 4 2 6l443 632q7 2 22 -6t15 -16q0 -5 -1 -6zM506 332q-19 0 -38 -11.5t-31 -23t-13 -11.5q-5 0 -8.5 9.5t-2.5 14.5q1 3 2 7l1 3q15 21 51.5 45.5t77.5 24.5q45 0 67.5 -30.5t12.5 -79.5q-11 -57 -68 -114.5t-121 -97.5
q-6 -6 0 -6h106q10 0 18 2t14.5 8.5t9.5 10t9.5 14t8.5 13.5q3 4 7 4q15 0 18 -5l-48 -110l-95 1q-114 -1 -119 -1q-13 16 -5 35q165 147 183 240q4 21 -5 39.5t-32 18.5zM70 543q-3 1 -7 7.5t-3 12.5q0 7 2 9q160 76 163 76h1q3 0 7.5 -8.5t4.5 -11.5q-21 -46 -29 -85
l-41 -212q-5 -25 2 -36q4 -6 20 -10t24 -4q1 0 1.5 -6t-0.5 -9q-4 -12 -6 -14q-6 0 -43.5 2.5t-51.5 2.5t-58.5 -2.5t-47.5 -2.5q-2 2 1 15.5t5 13.5q8 0 26.5 5t23.5 11q14 17 17 33l39 199q6 31 -6 31q-7 0 -44 -17z" />
    <glyph glyph-name="threequarters" unicode="&#xbe;" horiz-adv-x="628" 
d="M584 616l-445 -629q-8 -1 -22 5t-14 14q0 4 2 6l443 632q7 2 22 -6t15 -16q0 -5 -1 -6zM204 645q26 0 48 -18t15 -53q-7 -33 -34.5 -61t-52.5 -41q28 0 58 -22t21 -68q-13 -65 -68 -100.5t-117 -35.5q-46 0 -64 20q-2 6 0 18q2 13 14.5 22t23.5 9t24 -16.5t28 -16.5
q28 0 48.5 21t28.5 62t-7.5 58t-51.5 17h-21q-3 10 -2 16q0 6 5 14q74 17 87 84q3 20 -5 31t-21 11q-18 0 -41 -18.5t-25 -18.5q-6 0 -12.5 8.5t-2.5 12.5q20 25 56 45t68 20zM481 -3q-6 0 -12 0.5t-11 1t-8.5 1t-5.5 1.5t-2 2l18 94q0 3 -5 3h-145q-7 4 -3 23l258 265
q10 10 21 10q7 0 11 -1.5t3 -5.5l-45 -233q-1 -2 0 -2.5t5 -1.5h18q5 -3 4 -14.5t-5 -35.5l-7 -6h-23q-3 0 -5 -5l-17 -91q-22 -5 -44 -5zM493 267l-3 -1l-99 -102q-1 -1 -1 -2q0 -6 3 -6h73q7 3 7 4l19 101q0 6 1 6z" />
    <glyph glyph-name="questiondown" unicode="&#xbf;" horiz-adv-x="346" 
d="M332 388q0 -35 -26 -61.5t-57 -26.5q-25 0 -41 16t-16 42q0 35 25.5 63.5t56.5 28.5q23 0 40.5 -17.5t17.5 -44.5zM159 224q0 12 13 20q24 0 70 -34t46 -71q0 -41 -21 -66.5t-47 -37.5l-101 -45q-52 -23 -52 -66q0 -52 49 -52q15 0 37.5 22.5t37.5 22.5q33 0 44.5 -29.5
t-1.5 -57.5q-30 -37 -83 -37q-65 0 -113 41t-48 105q0 41 22 80.5t54 56.5q45 25 103 51q39 16 39 41q0 17 -24.5 35t-24.5 21z" />
    <glyph glyph-name="Agrave" unicode="&#xc0;" horiz-adv-x="634" 
d="M466 715q-20 0 -109.5 31t-89.5 49q0 20 23 29t47 9q18 0 32 -8q21 -12 48 -33t45 -38t18 -20q0 -5 -4.5 -12t-9.5 -7zM303 213q-52 0 -85 -1q-3 0 -9.5 -2t-7.5 -3l-45 -76q-33 -49 -33 -66t25.5 -26t39.5 -9q2 0 2 -4q0 -20 -5 -30q-12 1 -44 4t-56 3q-25 0 -64.5 -3
t-53.5 -4q-1 2 -1 8q0 26 5 26q10 0 43 14.5t42 26.5q9 13 39 63l272 452q1 2 10 17t14 22.5t13.5 19t15.5 17t13 5.5q9 0 12 -8l105 -518q4 -26 14 -75q3 -16 26 -26t34 -10q2 0 2 -5q0 -20 -7 -29q-3 0 -50.5 3.5t-71.5 3.5q-19 0 -138 -7q-1 1 -1 7q0 27 8 27t26 8.5
t25 16.5q5 7 5 14q0 9 -22 138q0 4 -6 4q-36 2 -91 2zM315 273q38 0 67 2q4 0 4 5l-32 178l-108 -178q-1 -1 -0.5 -2.5t1.5 -1.5q27 -3 68 -3z" />
    <glyph glyph-name="Aacute" unicode="&#xc1;" horiz-adv-x="634" 
d="M427 715q-5 0 -9.5 7t-4.5 12q0 3 18 20t45 38t48 33q14 8 32 8q24 0 47 -9t23 -29q0 -18 -89.5 -49t-109.5 -31zM303 213q-52 0 -85 -1q-3 0 -9.5 -2t-7.5 -3l-45 -76q-33 -49 -33 -66t25.5 -26t39.5 -9q2 0 2 -4q0 -20 -5 -30q-12 1 -44 4t-56 3q-25 0 -64.5 -3
t-53.5 -4q-1 2 -1 8q0 26 5 26q10 0 43 14.5t42 26.5q9 13 39 63l272 452q1 2 10 17t14 22.5t13.5 19t15.5 17t13 5.5q9 0 12 -8l105 -518q4 -26 14 -75q3 -16 26 -26t34 -10q2 0 2 -5q0 -20 -7 -29q-3 0 -50.5 3.5t-71.5 3.5q-19 0 -138 -7q-1 1 -1 7q0 27 8 27t26 8.5
t25 16.5q5 7 5 14q0 9 -22 138q0 4 -6 4q-36 2 -91 2zM315 273q38 0 67 2q4 0 4 5l-32 178l-108 -178q-1 -1 -0.5 -2.5t1.5 -1.5q27 -3 68 -3z" />
    <glyph glyph-name="Acircumflex" unicode="&#xc2;" horiz-adv-x="634" 
d="M585 728q-8 0 -48.5 22.5t-63.5 39.5q-31 -17 -81 -39.5t-58 -22.5q-12 0 -7 19q32 19 92 65q35 28 55 48q10 9 16 9q4 0 13 -9l13.5 -18l19.5 -26q40 -48 64 -69q-5 -19 -15 -19zM303 213q-52 0 -85 -1q-3 0 -9.5 -2t-7.5 -3l-45 -76q-33 -49 -33 -66t25.5 -26t39.5 -9
q2 0 2 -4q0 -20 -5 -30q-12 1 -44 4t-56 3q-25 0 -64.5 -3t-53.5 -4q-1 2 -1 8q0 26 5 26q10 0 43 14.5t42 26.5q9 13 39 63l272 452q1 2 10 17t14 22.5t13.5 19t15.5 17t13 5.5q9 0 12 -8l105 -518q4 -26 14 -75q3 -16 26 -26t34 -10q2 0 2 -5q0 -20 -7 -29q-3 0 -50.5 3.5
t-71.5 3.5q-19 0 -138 -7q-1 1 -1 7q0 27 8 27t26 8.5t25 16.5q5 7 5 14q0 9 -22 138q0 4 -6 4q-36 2 -91 2zM315 273q38 0 67 2q4 0 4 5l-32 178l-108 -178q-1 -1 -0.5 -2.5t1.5 -1.5q27 -3 68 -3z" />
    <glyph glyph-name="Atilde" unicode="&#xc3;" horiz-adv-x="634" 
d="M279 739q-7 0 -3 22q5 26 26 50q45 51 92 51q36 0 83 -34t82 -34q18 0 45.5 28.5t32.5 28.5q8 0 4 -22q-5 -25 -27 -51q-42 -50 -90 -50q-36 0 -82.5 34t-82.5 34q-17 0 -46.5 -28.5t-33.5 -28.5zM303 213q-52 0 -85 -1q-3 0 -9.5 -2t-7.5 -3l-45 -76q-33 -49 -33 -66
t25.5 -26t39.5 -9q2 0 2 -4q0 -20 -5 -30q-12 1 -44 4t-56 3q-25 0 -64.5 -3t-53.5 -4q-1 2 -1 8q0 26 5 26q10 0 43 14.5t42 26.5q9 13 39 63l272 452q1 2 10 17t14 22.5t13.5 19t15.5 17t13 5.5q9 0 12 -8l105 -518q4 -26 14 -75q3 -16 26 -26t34 -10q2 0 2 -5
q0 -20 -7 -29q-3 0 -50.5 3.5t-71.5 3.5q-19 0 -138 -7q-1 1 -1 7q0 27 8 27t26 8.5t25 16.5q5 7 5 14q0 9 -22 138q0 4 -6 4q-36 2 -91 2zM315 273q38 0 67 2q4 0 4 5l-32 178l-108 -178q-1 -1 -0.5 -2.5t1.5 -1.5q27 -3 68 -3z" />
    <glyph glyph-name="Adieresis" unicode="&#xc4;" horiz-adv-x="634" 
d="M497 802q6 31 30.5 52.5t52.5 21.5q29 0 45 -21.5t10 -52.5t-30.5 -52.5t-52.5 -21.5q-29 0 -45 21.5t-10 52.5zM283 802q6 31 30.5 52.5t52.5 21.5q29 0 45 -21.5t10 -52.5t-30.5 -52.5t-52.5 -21.5q-29 0 -45 21.5t-10 52.5zM303 213q-52 0 -85 -1q-3 0 -9.5 -2
t-7.5 -3l-45 -76q-33 -49 -33 -66t25.5 -26t39.5 -9q2 0 2 -4q0 -20 -5 -30q-12 1 -44 4t-56 3q-25 0 -64.5 -3t-53.5 -4q-1 2 -1 8q0 26 5 26q10 0 43 14.5t42 26.5q9 13 39 63l272 452q1 2 10 17t14 22.5t13.5 19t15.5 17t13 5.5q9 0 12 -8l105 -518q4 -26 14 -75
q3 -16 26 -26t34 -10q2 0 2 -5q0 -20 -7 -29q-3 0 -50.5 3.5t-71.5 3.5q-19 0 -138 -7q-1 1 -1 7q0 27 8 27t26 8.5t25 16.5q5 7 5 14q0 9 -22 138q0 4 -6 4q-36 2 -91 2zM315 273q38 0 67 2q4 0 4 5l-32 178l-108 -178q-1 -1 -0.5 -2.5t1.5 -1.5q27 -3 68 -3z" />
    <glyph glyph-name="Aring" unicode="&#xc5;" horiz-adv-x="634" 
d="M403 759q-5 -23 6.5 -38.5t32.5 -15.5t38 15.5t22 38.5t-6.5 38.5t-32.5 15.5t-38 -15.5t-22 -38.5zM360 759q7 40 40 69t71 29t59 -29t14 -69t-40 -69.5t-71 -29.5q-37 0 -59 29t-14 70zM303 213q-52 0 -85 -1q-3 0 -9.5 -2t-7.5 -3l-45 -76q-33 -49 -33 -66t25.5 -26
t39.5 -9q2 0 2 -4q0 -20 -5 -30q-12 1 -44 4t-56 3q-25 0 -64.5 -3t-53.5 -4q-1 2 -1 8q0 26 5 26q10 0 43 14.5t42 26.5q9 13 39 63l272 452q1 2 10 17t14 22.5t13.5 19t15.5 17t13 5.5q9 0 12 -8l105 -518q4 -26 14 -75q3 -16 26 -26t34 -10q2 0 2 -5q0 -20 -7 -29
q-3 0 -50.5 3.5t-71.5 3.5q-19 0 -138 -7q-1 1 -1 7q0 27 8 27t26 8.5t25 16.5q5 7 5 14q0 9 -22 138q0 4 -6 4q-36 2 -91 2zM315 273q38 0 67 2q4 0 4 5l-32 178l-108 -178q-1 -1 -0.5 -2.5t1.5 -1.5q27 -3 68 -3z" />
    <glyph glyph-name="AE" unicode="&#xc6;" horiz-adv-x="931" 
d="M591 657q41 0 156.5 3.5t167.5 3.5q-4 -88 -4 -148q-5 -5 -22 -5q-11 0 -12 7q-6 42 -39.5 67t-72.5 25h-51q-59 0 -62 -13q-9 -27 -13 -78l-16 -151v-1q0 -8 40 -8h49q44 0 53 6q13 9 29 56q3 7 16 7q16 0 19 -5l-19 -189q-4 -4 -20 -4q-12 0 -14 8q-2 14 -4 24l-3 15
t-3 9t-3 5t-3.5 3t-3.5 2q-11 8 -72 8q-67 0 -68 -9l-16 -154q-5 -47 0 -71q3 -16 62 -16h25q61 0 115 28q16 8 37 32.5t36 55.5q3 6 14 6q23 0 27 -6q-67 -150 -74 -172q-52 0 -164 2t-153 2l-131 -6q-3 7 -2 17q2 19 6 19q10 0 30 7.5t23 15.5q4 13 12 79q3 23 6 73
q1 4 -6 4q-34 2 -85 2q-61 0 -94 -1q-4 0 -9 -5l-68 -76q-4 -5 -13.5 -15.5t-14.5 -16.5t-11 -14t-9 -14t-3 -11q0 -13 13 -18q31 -12 52 -12q2 0 2 -4q0 -10 -8 -30q-8 0 -42 3t-58 3q-19 0 -39.5 -1t-45.5 -2.5t-40 -2.5q-1 2 -1 12q0 5 2.5 13t3.5 8q13 0 39.5 10
t43.5 28l59 67l314 360q71 80 76 104q2 12 -4 18.5t-10.5 7t-11.5 0.5t-7 10q0 6 2.5 16t3.5 10l10 -1q11 -1 32.5 -1.5t48.5 -0.5zM503 469l-165 -189q-1 -1 -1.5 -2t0.5 -2q25 -3 70 -3q39 0 69 2q3 0 5 5z" />
    <glyph glyph-name="Ccedilla" unicode="&#xc7;" horiz-adv-x="587" 
d="M215 -32q13 1 20 1q24 0 38.5 -18.5t9.5 -41.5q-8 -42 -41 -67t-83 -25q-35 0 -49 19q0 10 2 20q4 16 10 16q1 0 19.5 -8.5t32.5 -8.5q43 0 49 34q6 33 -20 33q-17 0 -34 -7q-2 0 -7.5 8t-3.5 11q8 10 23.5 34.5t19.5 30.5h34zM391 667q102 0 207 -29q0 -12 -4.5 -76.5
t-5.5 -71.5q-2 -7 -10.5 -11t-17.5 -4q-2 0 -14 3q-1 14 -5 29t-15 34.5t-28 34t-46.5 25t-66.5 10.5q-64 0 -117 -50t-82.5 -133.5t-29.5 -180.5q0 -90 37.5 -145t111.5 -55q42 0 83 10t64 26q17 12 32 33.5t22.5 36.5t8.5 15q26 0 29 -13q-3 -14 -17.5 -59t-22.5 -52
q-57 -51 -206 -51q-131 0 -209 75.5t-78 190.5q0 82 34.5 159t89 130.5t122.5 86t134 32.5z" />
    <glyph glyph-name="Egrave" unicode="&#xc8;" horiz-adv-x="542" 
d="M450 715q-20 0 -109.5 31t-89.5 49q0 20 23 29t47 9q18 0 32 -8q21 -12 48 -33t45 -38t18 -20q0 -5 -4.5 -12t-9.5 -7zM107 2q-34 0 -71 -3t-48 -3q-2 2 -2 9q0 6 1.5 12t3.5 9.5t3 3.5q10 0 32 8t27 17q12 21 25 88l73 378q11 64 10 78q-1 8 -21.5 18.5t-29.5 10.5
q-2 0 -2 7q0 20 7 27q80 -3 131 -3q53 0 150 2.5t151 2.5q-2 -30 -2 -91v-57q-5 -5 -22 -5q-11 0 -12 7q-11 38 -43.5 65t-68.5 27h-35q-32 0 -46 -2.5t-17 -10.5q-12 -33 -20 -78l-30 -154q-1 -3 10 -4.5t29 -1.5h79q22 0 30 8.5t28 53.5q3 7 16 7q16 0 19 -5l-36 -189
q-4 -4 -21 -4q-11 0 -13 8q-2 45 -11 54q-12 12 -75 12q-67 0 -69 -9l-29 -154q-8 -40 -8 -59q0 -18 9.5 -23t51.5 -5h24q58 0 110 26q17 9 42 34t42 56q3 6 14 6q23 0 27 -6q-4 -8 -22 -41.5t-26 -50t-19.5 -41t-16.5 -39.5q-53 0 -171 2t-158 2z" />
    <glyph glyph-name="Eacute" unicode="&#xc9;" horiz-adv-x="542" 
d="M314 715q-5 0 -9.5 7t-4.5 12q0 3 18 20t45 38t48 33q14 8 32 8q24 0 47 -9t23 -29q0 -18 -89.5 -49t-109.5 -31zM107 2q-34 0 -71 -3t-48 -3q-2 2 -2 9q0 6 1.5 12t3.5 9.5t3 3.5q10 0 32 8t27 17q12 21 25 88l73 378q11 64 10 78q-1 8 -21.5 18.5t-29.5 10.5q-2 0 -2 7
q0 20 7 27q80 -3 131 -3q53 0 150 2.5t151 2.5q-2 -30 -2 -91v-57q-5 -5 -22 -5q-11 0 -12 7q-11 38 -43.5 65t-68.5 27h-35q-32 0 -46 -2.5t-17 -10.5q-12 -33 -20 -78l-30 -154q-1 -3 10 -4.5t29 -1.5h79q22 0 30 8.5t28 53.5q3 7 16 7q16 0 19 -5l-36 -189q-4 -4 -21 -4
q-11 0 -13 8q-2 45 -11 54q-12 12 -75 12q-67 0 -69 -9l-29 -154q-8 -40 -8 -59q0 -18 9.5 -23t51.5 -5h24q58 0 110 26q17 9 42 34t42 56q3 6 14 6q23 0 27 -6q-4 -8 -22 -41.5t-26 -50t-19.5 -41t-16.5 -39.5q-53 0 -171 2t-158 2z" />
    <glyph glyph-name="Ecircumflex" unicode="&#xca;" horiz-adv-x="542" 
d="M483 728q-8 0 -48.5 22.5t-63.5 39.5q-31 -17 -81 -39.5t-58 -22.5q-12 0 -7 19q32 19 92 65q35 28 55 48q10 9 16 9q4 0 13 -9l13.5 -18l19.5 -26q40 -48 64 -69q-5 -19 -15 -19zM107 2q-34 0 -71 -3t-48 -3q-2 2 -2 9q0 6 1.5 12t3.5 9.5t3 3.5q10 0 32 8t27 17
q12 21 25 88l73 378q11 64 10 78q-1 8 -21.5 18.5t-29.5 10.5q-2 0 -2 7q0 20 7 27q80 -3 131 -3q53 0 150 2.5t151 2.5q-2 -30 -2 -91v-57q-5 -5 -22 -5q-11 0 -12 7q-11 38 -43.5 65t-68.5 27h-35q-32 0 -46 -2.5t-17 -10.5q-12 -33 -20 -78l-30 -154q-1 -3 10 -4.5
t29 -1.5h79q22 0 30 8.5t28 53.5q3 7 16 7q16 0 19 -5l-36 -189q-4 -4 -21 -4q-11 0 -13 8q-2 45 -11 54q-12 12 -75 12q-67 0 -69 -9l-29 -154q-8 -40 -8 -59q0 -18 9.5 -23t51.5 -5h24q58 0 110 26q17 9 42 34t42 56q3 6 14 6q23 0 27 -6q-4 -8 -22 -41.5t-26 -50
t-19.5 -41t-16.5 -39.5q-53 0 -171 2t-158 2z" />
    <glyph glyph-name="Edieresis" unicode="&#xcb;" horiz-adv-x="542" 
d="M410 802q6 31 30.5 52.5t52.5 21.5q29 0 45 -21.5t10 -52.5t-30.5 -52.5t-52.5 -21.5q-29 0 -45 21.5t-10 52.5zM196 802q6 31 30.5 52.5t52.5 21.5q29 0 45 -21.5t10 -52.5t-30.5 -52.5t-52.5 -21.5q-29 0 -45 21.5t-10 52.5zM107 2q-34 0 -71 -3t-48 -3q-2 2 -2 9
q0 6 1.5 12t3.5 9.5t3 3.5q10 0 32 8t27 17q12 21 25 88l73 378q11 64 10 78q-1 8 -21.5 18.5t-29.5 10.5q-2 0 -2 7q0 20 7 27q80 -3 131 -3q53 0 150 2.5t151 2.5q-2 -30 -2 -91v-57q-5 -5 -22 -5q-11 0 -12 7q-11 38 -43.5 65t-68.5 27h-35q-32 0 -46 -2.5t-17 -10.5
q-12 -33 -20 -78l-30 -154q-1 -3 10 -4.5t29 -1.5h79q22 0 30 8.5t28 53.5q3 7 16 7q16 0 19 -5l-36 -189q-4 -4 -21 -4q-11 0 -13 8q-2 45 -11 54q-12 12 -75 12q-67 0 -69 -9l-29 -154q-8 -40 -8 -59q0 -18 9.5 -23t51.5 -5h24q58 0 110 26q17 9 42 34t42 56q3 6 14 6
q23 0 27 -6q-4 -8 -22 -41.5t-26 -50t-19.5 -41t-16.5 -39.5q-53 0 -171 2t-158 2z" />
    <glyph glyph-name="Igrave" unicode="&#xcc;" horiz-adv-x="360" 
d="M318 715q-20 0 -109.5 31t-89.5 49q0 20 23 29t47 9q18 0 32 -8q21 -12 48 -33t45 -38t18 -20q0 -5 -4.5 -12t-9.5 -7zM280 519l-73 -380q-10 -52 -10 -80q0 -10 19.5 -19.5t28.5 -9.5q2 0 2 -5q0 -19 -7 -29q-4 0 -50 3.5t-70 3.5q-25 0 -74.5 -3.5t-58.5 -3.5
q-1 1 -1 6q0 7 2 17.5t4 10.5q11 0 32.5 6.5t26.5 15.5q16 26 25 83l75 388q9 48 9 73q0 15 -18.5 23.5t-29.5 8.5q-1 0 -1 4q0 24 6 30q14 -1 38.5 -2.5t44.5 -2.5t39 -1q18 0 132 6v-5q0 -8 -2.5 -18.5t-5.5 -10.5q-8 0 -31.5 -8.5t-27.5 -15.5q-6 -10 -14 -42t-10 -43z
" />
    <glyph glyph-name="Iacute" unicode="&#xcd;" horiz-adv-x="360" 
d="M191 715q-5 0 -9.5 7t-4.5 12q0 3 18 20t45 38t48 33q14 8 32 8q24 0 47 -9t23 -29q0 -18 -89.5 -49t-109.5 -31zM280 519l-73 -380q-10 -52 -10 -80q0 -10 19.5 -19.5t28.5 -9.5q2 0 2 -5q0 -19 -7 -29q-4 0 -50 3.5t-70 3.5q-25 0 -74.5 -3.5t-58.5 -3.5q-1 1 -1 6
q0 7 2 17.5t4 10.5q11 0 32.5 6.5t26.5 15.5q16 26 25 83l75 388q9 48 9 73q0 15 -18.5 23.5t-29.5 8.5q-1 0 -1 4q0 24 6 30q14 -1 38.5 -2.5t44.5 -2.5t39 -1q18 0 132 6v-5q0 -8 -2.5 -18.5t-5.5 -10.5q-8 0 -31.5 -8.5t-27.5 -15.5q-6 -10 -14 -42t-10 -43z" />
    <glyph glyph-name="Icircumflex" unicode="&#xce;" horiz-adv-x="360" 
d="M376 728q-8 0 -48.5 22.5t-63.5 39.5q-31 -17 -81 -39.5t-58 -22.5q-12 0 -7 19q32 19 92 65q35 28 55 48q10 9 16 9q4 0 13 -9l13.5 -18l19.5 -26q40 -48 64 -69q-5 -19 -15 -19zM280 519l-73 -380q-10 -52 -10 -80q0 -10 19.5 -19.5t28.5 -9.5q2 0 2 -5q0 -19 -7 -29
q-4 0 -50 3.5t-70 3.5q-25 0 -74.5 -3.5t-58.5 -3.5q-1 1 -1 6q0 7 2 17.5t4 10.5q11 0 32.5 6.5t26.5 15.5q16 26 25 83l75 388q9 48 9 73q0 15 -18.5 23.5t-29.5 8.5q-1 0 -1 4q0 24 6 30q14 -1 38.5 -2.5t44.5 -2.5t39 -1q18 0 132 6v-5q0 -8 -2.5 -18.5t-5.5 -10.5
q-8 0 -31.5 -8.5t-27.5 -15.5q-6 -10 -14 -42t-10 -43z" />
    <glyph glyph-name="Idieresis" unicode="&#xcf;" horiz-adv-x="360" 
d="M309 802q6 31 30.5 52.5t52.5 21.5q29 0 45 -21.5t10 -52.5t-30.5 -52.5t-52.5 -21.5q-29 0 -45 21.5t-10 52.5zM95 802q6 31 30.5 52.5t52.5 21.5q29 0 45 -21.5t10 -52.5t-30.5 -52.5t-52.5 -21.5q-29 0 -45 21.5t-10 52.5zM280 519l-73 -380q-10 -52 -10 -80
q0 -10 19.5 -19.5t28.5 -9.5q2 0 2 -5q0 -19 -7 -29q-4 0 -50 3.5t-70 3.5q-25 0 -74.5 -3.5t-58.5 -3.5q-1 1 -1 6q0 7 2 17.5t4 10.5q11 0 32.5 6.5t26.5 15.5q16 26 25 83l75 388q9 48 9 73q0 15 -18.5 23.5t-29.5 8.5q-1 0 -1 4q0 24 6 30q14 -1 38.5 -2.5t44.5 -2.5
t39 -1q18 0 132 6v-5q0 -8 -2.5 -18.5t-5.5 -10.5q-8 0 -31.5 -8.5t-27.5 -15.5q-6 -10 -14 -42t-10 -43z" />
    <glyph glyph-name="Eth" unicode="&#xd0;" horiz-adv-x="689" 
d="M384 351q7 0 6 -7q-6 -25 -21 -59q-1 -3 -3 -4.5t-4 -1.5h-1h-122l-27 -143q-13 -65 -6 -70q17 -13 103 -13q78 0 135.5 72t85.5 215q21 110 -10 186.5t-111 76.5h-4q-80 0 -94 -16q-17 -19 -24 -63l-34 -173h131zM123 351l33 170q11 61 10 78q-1 8 -20.5 18.5
t-28.5 10.5q-2 0 0 15q2 16 7 21q65 -5 127 -5h162q63 0 112.5 -18t80 -49.5t50 -73t21 -87.5t-5.5 -95q-28 -145 -133 -242t-255 -97q-18 0 -71 2.5t-87 2.5l-132 -6q-3 7 -1 17q5 19 8 19q11 0 33 7t27 15q11 26 21 81l28 144h-57l-3 10q10 39 18 57q1 3 3 4t4 1h1h48z
" />
    <glyph glyph-name="Ntilde" unicode="&#xd1;" horiz-adv-x="675" 
d="M318 739q-7 0 -3 22q5 26 26 50q45 51 92 51q36 0 83 -34t82 -34q18 0 45.5 28.5t32.5 28.5q8 0 4 -22q-5 -25 -27 -51q-42 -50 -90 -50q-36 0 -82.5 34t-82.5 34q-17 0 -46.5 -28.5t-33.5 -28.5zM251 657q54 0 93 5q9 -34 42.5 -98t87 -158t84.5 -155q2 6 10 41l44 232
q6 33 6 54t-31.5 35.5t-48.5 14.5q-2 0 -2 7q0 21 6 27q105 -5 130 -5q31 0 124 5q0 -34 -8 -34q-7 0 -20 -2t-35.5 -11t-35.5 -23q-16 -16 -27 -73l-74 -380q-8 -41 -23 -140q-4 -4 -24 -4q-11 0 -25 23l-277 506l-74 -383q-8 -40 -8 -55q0 -16 11 -28t26.5 -17.5t26.5 -8
t16 -2.5q2 0 2 -5q0 -17 -6 -29q-12 1 -38 3t-48.5 3t-40.5 1q-25 0 -69.5 -3t-56.5 -4q-2 4 -2 9t1.5 11l2.5 10t2 4q18 0 50 9.5t49 31.5q13 17 23 73l76 393q6 32 6 59q0 15 -28 23.5t-45 8.5q-3 0 -3 8q0 21 7 26q105 -5 124 -5z" />
    <glyph glyph-name="Ograve" unicode="&#xd2;" horiz-adv-x="626" 
d="M456 715q-20 0 -109.5 31t-89.5 49q0 20 23 29t47 9q18 0 32 -8q21 -12 48 -33t45 -38t18 -20q0 -5 -4.5 -12t-9.5 -7zM359 611q-81 0 -141.5 -107t-60.5 -266q0 -39 6 -72t19.5 -61t38 -43.5t57.5 -15.5q42 0 77.5 28.5t58 72t38 97.5t22.5 102.5t7 88.5q0 176 -122 176
zM383 667q106 0 173.5 -75.5t67.5 -191.5q0 -78 -32 -153.5t-83.5 -131.5t-119.5 -90.5t-137 -34.5q-106 0 -173 75.5t-67 190.5q0 78 32 154t83 132t119 90.5t137 34.5z" />
    <glyph glyph-name="Oacute" unicode="&#xd3;" horiz-adv-x="626" 
d="M377 715q-5 0 -9.5 7t-4.5 12q0 3 18 20t45 38t48 33q14 8 32 8q24 0 47 -9t23 -29q0 -18 -89.5 -49t-109.5 -31zM359 611q-81 0 -141.5 -107t-60.5 -266q0 -39 6 -72t19.5 -61t38 -43.5t57.5 -15.5q42 0 77.5 28.5t58 72t38 97.5t22.5 102.5t7 88.5q0 176 -122 176z
M383 667q106 0 173.5 -75.5t67.5 -191.5q0 -78 -32 -153.5t-83.5 -131.5t-119.5 -90.5t-137 -34.5q-106 0 -173 75.5t-67 190.5q0 78 32 154t83 132t119 90.5t137 34.5z" />
    <glyph glyph-name="Ocircumflex" unicode="&#xd4;" horiz-adv-x="626" 
d="M520 728q-8 0 -48.5 22.5t-63.5 39.5q-31 -17 -81 -39.5t-58 -22.5q-12 0 -7 19q32 19 92 65q35 28 55 48q10 9 16 9q4 0 13 -9l13.5 -18l19.5 -26q40 -48 64 -69q-5 -19 -15 -19zM359 611q-81 0 -141.5 -107t-60.5 -266q0 -39 6 -72t19.5 -61t38 -43.5t57.5 -15.5
q42 0 77.5 28.5t58 72t38 97.5t22.5 102.5t7 88.5q0 176 -122 176zM383 667q106 0 173.5 -75.5t67.5 -191.5q0 -78 -32 -153.5t-83.5 -131.5t-119.5 -90.5t-137 -34.5q-106 0 -173 75.5t-67 190.5q0 78 32 154t83 132t119 90.5t137 34.5z" />
    <glyph glyph-name="Otilde" unicode="&#xd5;" horiz-adv-x="626" 
d="M229 739q-7 0 -3 22q5 26 26 50q45 51 92 51q36 0 83 -34t82 -34q18 0 45.5 28.5t32.5 28.5q8 0 4 -22q-5 -25 -27 -51q-42 -50 -90 -50q-36 0 -82.5 34t-82.5 34q-17 0 -46.5 -28.5t-33.5 -28.5zM359 611q-81 0 -141.5 -107t-60.5 -266q0 -39 6 -72t19.5 -61t38 -43.5
t57.5 -15.5q42 0 77.5 28.5t58 72t38 97.5t22.5 102.5t7 88.5q0 176 -122 176zM383 667q106 0 173.5 -75.5t67.5 -191.5q0 -78 -32 -153.5t-83.5 -131.5t-119.5 -90.5t-137 -34.5q-106 0 -173 75.5t-67 190.5q0 78 32 154t83 132t119 90.5t137 34.5z" />
    <glyph glyph-name="Odieresis" unicode="&#xd6;" horiz-adv-x="626" 
d="M517 875q25 0 41.5 -18t16.5 -44q0 -33 -23.5 -59t-54.5 -26q-25 0 -41.5 18t-16.5 45q0 33 23.5 58.5t54.5 25.5zM297 877q25 0 41.5 -18t16.5 -45q0 -33 -23.5 -58.5t-54.5 -25.5q-25 0 -41.5 18t-16.5 44q0 33 23.5 59t54.5 26zM359 611q-81 0 -141.5 -107t-60.5 -266
q0 -39 6 -72t19.5 -61t38 -43.5t57.5 -15.5q42 0 77.5 28.5t58 72t38 97.5t22.5 102.5t7 88.5q0 176 -122 176zM383 667q106 0 173.5 -75.5t67.5 -191.5q0 -78 -32 -153.5t-83.5 -131.5t-119.5 -90.5t-137 -34.5q-106 0 -173 75.5t-67 190.5q0 78 32 154t83 132t119 90.5
t137 34.5z" />
    <glyph glyph-name="multiply" unicode="&#xd7;" horiz-adv-x="421" 
d="M44 54q-7 0 -17 21.5t-10 33.5l151 134q2 2 2 3q0 4 -1 5l-96 129q0 10 20.5 34t26.5 24q5 0 9 -4l97 -132q2 -2 4 -2q1 0 2 1l151 134q3 3 6 3q6 0 17 -21.5t11 -34.5l-147 -132q-2 -2 -2 -3t1 -2l95 -133q0 -10 -21 -32.5t-27 -22.5t-7 3l-97 132q-2 2 -3 2q-2 0 -4 -2
l-153 -135q-3 -3 -8 -3z" />
    <glyph glyph-name="Oslash" unicode="&#xd8;" horiz-adv-x="650" 
d="M374 611q-80 0 -141 -107t-61 -266q0 -50 10 -89l287 411q-31 51 -95 51zM398 667q68 0 123 -33l24 35q7 2 22 -6.5t15 -16.5q0 -4 -1 -6l-24 -34q82 -76 82 -206q0 -104 -53.5 -199.5t-140 -153t-178.5 -57.5q-67 0 -122 33l-16 -23q-8 -1 -22 5.5t-14 13.5q0 5 2 7
l16 23q-84 76 -84 207q0 104 53.5 200t139.5 153.5t178 57.5zM293 46q52 0 93.5 42.5t64 106t34 126t11.5 114.5q0 43 -7 75l-289 -409q32 -55 93 -55z" />
    <glyph glyph-name="Ugrave" unicode="&#xd9;" horiz-adv-x="679" 
d="M347 715q-20 0 -109.5 31t-89.5 49q0 20 23 29t47 9q18 0 32 -8q21 -12 48 -33t45 -38t18 -20q0 -5 -4.5 -12t-9.5 -7zM85 522q11 68 8 78q-3 8 -23 16.5t-30 8.5q-3 0 0 17q3 18 5 20q126 -6 134 -6q17 0 131 6v-18q-3 -19 -8 -19q-8 0 -35 -8.5t-30 -15.5
q-13 -29 -23 -85l-46 -237q-18 -92 10 -148t94 -56q32 0 60.5 10.5t56 33.5t48.5 65.5t33 101.5l46 238q0 1 2 11.5t3 16.5t1.5 15.5t-0.5 16.5t-4 12q-7 11 -31.5 20t-35.5 9q-3 1 -2.5 8.5t2.5 17t5 11.5q84 -8 121 -8q23 0 64 3.5t53 4.5q2 -8 0 -18q-1 -5 -4 -12t-5 -7
q-8 0 -18.5 -1.5t-31 -9.5t-33.5 -22q-16 -16 -27 -73l-45 -228q-28 -146 -109 -221t-187 -75q-55 0 -95.5 17t-69 54.5t-34.5 97.5t9 147z" />
    <glyph glyph-name="Uacute" unicode="&#xda;" horiz-adv-x="679" 
d="M268 715q-5 0 -9.5 7t-4.5 12q0 3 18 20t45 38t48 33q14 8 32 8q24 0 47 -9t23 -29q0 -18 -89.5 -49t-109.5 -31zM85 522q11 68 8 78q-3 8 -23 16.5t-30 8.5q-3 0 0 17q3 18 5 20q126 -6 134 -6q17 0 131 6v-18q-3 -19 -8 -19q-8 0 -35 -8.5t-30 -15.5q-13 -29 -23 -85
l-46 -237q-18 -92 10 -148t94 -56q32 0 60.5 10.5t56 33.5t48.5 65.5t33 101.5l46 238q0 1 2 11.5t3 16.5t1.5 15.5t-0.5 16.5t-4 12q-7 11 -31.5 20t-35.5 9q-3 1 -2.5 8.5t2.5 17t5 11.5q84 -8 121 -8q23 0 64 3.5t53 4.5q2 -8 0 -18q-1 -5 -4 -12t-5 -7q-8 0 -18.5 -1.5
t-31 -9.5t-33.5 -22q-16 -16 -27 -73l-45 -228q-28 -146 -109 -221t-187 -75q-55 0 -95.5 17t-69 54.5t-34.5 97.5t9 147z" />
    <glyph glyph-name="Ucircumflex" unicode="&#xdb;" horiz-adv-x="679" 
d="M426 728q-8 0 -48.5 22.5t-63.5 39.5q-31 -17 -81 -39.5t-58 -22.5q-12 0 -7 19q32 19 92 65q35 28 55 48q10 9 16 9q4 0 13 -9l13.5 -18l19.5 -26q40 -48 64 -69q-5 -19 -15 -19zM85 522q11 68 8 78q-3 8 -23 16.5t-30 8.5q-3 0 0 17q3 18 5 20q126 -6 134 -6
q17 0 131 6v-18q-3 -19 -8 -19q-8 0 -35 -8.5t-30 -15.5q-13 -29 -23 -85l-46 -237q-18 -92 10 -148t94 -56q32 0 60.5 10.5t56 33.5t48.5 65.5t33 101.5l46 238q0 1 2 11.5t3 16.5t1.5 15.5t-0.5 16.5t-4 12q-7 11 -31.5 20t-35.5 9q-3 1 -2.5 8.5t2.5 17t5 11.5
q84 -8 121 -8q23 0 64 3.5t53 4.5q2 -8 0 -18q-1 -5 -4 -12t-5 -7q-8 0 -18.5 -1.5t-31 -9.5t-33.5 -22q-16 -16 -27 -73l-45 -228q-28 -146 -109 -221t-187 -75q-55 0 -95.5 17t-69 54.5t-34.5 97.5t9 147z" />
    <glyph glyph-name="Udieresis" unicode="&#xdc;" horiz-adv-x="679" 
d="M338 802q6 31 30.5 52.5t52.5 21.5q29 0 45 -21.5t10 -52.5t-30.5 -52.5t-52.5 -21.5q-29 0 -45 21.5t-10 52.5zM124 802q6 31 30.5 52.5t52.5 21.5q29 0 45 -21.5t10 -52.5t-30.5 -52.5t-52.5 -21.5q-29 0 -45 21.5t-10 52.5zM85 522q11 68 8 78q-3 8 -23 16.5t-30 8.5
q-3 0 0 17q3 18 5 20q126 -6 134 -6q17 0 131 6v-18q-3 -19 -8 -19q-8 0 -35 -8.5t-30 -15.5q-13 -29 -23 -85l-46 -237q-18 -92 10 -148t94 -56q32 0 60.5 10.5t56 33.5t48.5 65.5t33 101.5l46 238q0 1 2 11.5t3 16.5t1.5 15.5t-0.5 16.5t-4 12q-7 11 -31.5 20t-35.5 9
q-3 1 -2.5 8.5t2.5 17t5 11.5q84 -8 121 -8q23 0 64 3.5t53 4.5q2 -8 0 -18q-1 -5 -4 -12t-5 -7q-8 0 -18.5 -1.5t-31 -9.5t-33.5 -22q-16 -16 -27 -73l-45 -228q-28 -146 -109 -221t-187 -75q-55 0 -95.5 17t-69 54.5t-34.5 97.5t9 147z" />
    <glyph glyph-name="Yacute" unicode="&#xdd;" horiz-adv-x="590" 
d="M183 715q-5 0 -9.5 7t-4.5 12q0 3 18 20t45 38t48 33q14 8 32 8q24 0 47 -9t23 -29q0 -18 -89.5 -49t-109.5 -31zM151 656q19 0 133 6q1 -2 1 -9q0 -9 -3 -18.5t-5 -9.5q-14 0 -33 -5.5t-21 -15.5t3 -22l63 -179q140 178 145 200q2 10 -12.5 16t-42.5 6q-2 0 -2 9
q0 21 8 28q84 -6 112 -6q25 0 106 6q0 -13 -1 -18q-3 -18 -7 -18q-17 0 -40.5 -9t-39.5 -27q-30 -34 -123 -153.5t-95 -132.5l-31 -159q-11 -52 -9 -87q0 -7 22 -16t30 -9q3 0 0 -19q-3 -15 -5 -18q-7 0 -55.5 4t-72.5 4q-25 0 -74.5 -3.5t-61.5 -4.5q-3 6 -1 16q3 21 7 21
q10 0 35.5 8.5t30.5 16.5q11 27 23 81l33 170q1 7 -17 64t-37 110l-18 54q-19 60 -36 73q-9 6 -23.5 10.5t-23.5 4.5q-2 0 -2 9q0 7 3 16t7 12q5 0 53.5 -3t76.5 -3z" />
    <glyph glyph-name="Thorn" unicode="&#xde;" horiz-adv-x="537" 
d="M280 141q-18 0 -39.5 2t-26.5 2q-3 0 -3 -2q-2 -4 -2 -5q-9 -45 -9 -76v-7q1 -7 20.5 -16t26.5 -9q3 -2 0.5 -16t-4.5 -18q-9 0 -53.5 4t-68.5 4q-25 0 -71 -3.5t-60 -4.5q-1 1 -1 10q0 24 6 24q49 0 61 25q13 28 22 80l76 390q9 67 9 69q0 7 -1 9q-3 8 -20.5 16.5
t-27.5 8.5q-3 1 -2 8.5t4 16.5l3 9q126 -6 128 -6q12 0 126 6q0 -34 -7 -34q-8 0 -32.5 -8.5t-27.5 -15.5q-8 -18 -15.5 -48.5t-7.5 -36.5q0 -5 2 -5q1 0 10 1.5t25 3t34 1.5q75 0 123 -45t48 -112q0 -55 -22 -99t-58 -70t-78.5 -39.5t-86.5 -13.5zM283 192q41 0 70.5 57
t29.5 122q0 98 -51 98q-59 0 -67 -39l-39 -202q0 -1 -0.5 -4.5t-0.5 -6.5q0 -25 58 -25z" />
    <glyph glyph-name="germandbls" unicode="&#xdf;" horiz-adv-x="537" 
d="M428 696q63 0 105 -36t31 -95q-5 -28 -15 -48t-27.5 -35.5t-25.5 -21t-31 -18.5q-19 -11 -29.5 -19t-19 -24t-8.5 -38q0 -48 59 -90q28 -18 51 -52t23 -70q0 -54 -45.5 -105t-107.5 -51q-53 0 -94 14.5t-46 28.5q0 10 1 21t5 30t15.5 31t28.5 12q20 0 32.5 -12
t17.5 -26.5t15.5 -26.5t27.5 -12q12 0 21 8t12.5 20.5t4.5 21t1 15.5q0 15 -7 28.5t-15 21.5t-24 21.5t-23 20.5q-16 16 -25 26t-17.5 29t-8.5 40q0 22 4.5 39.5t15 32.5t18 23.5t24 23.5t23.5 21q46 44 58 104q17 93 -66 93q-17 0 -31.5 -10t-23.5 -24.5t-17 -39t-12.5 -44
t-10.5 -49.5l-88 -454q-22 -113 -82 -176t-155 -63q-36 0 -61 12.5t-29 26.5q-1 35 12.5 66t46.5 31q14 0 23.5 -12.5t14 -28t13 -28t21.5 -12.5q15 0 27.5 13.5t21.5 41.5t14.5 49.5t12.5 59.5l70 361v3q1 3 1 4q0 3 -4 3h-59q-6 0 -6 10q0 11 19 29.5t39 18.5h17q6 0 9 16
q20 101 99 175.5t159 74.5z" />
    <glyph glyph-name="agrave" unicode="&#xe0;" horiz-adv-x="462" 
d="M346 482q-17 0 -88 40.5t-71 65.5q0 14 16.5 29t39.5 15q8 0 13 -3q21 -20 62.5 -69t41.5 -56q0 -5 -5 -13.5t-9 -8.5zM323 449q32 0 57.5 -7t36.5 -15l-58 -299q-2 -6 -2 -23q0 -24 10 -24q14 0 39 21t34 32q2 0 10.5 -10t8.5 -14q-11 -27 -71.5 -72.5t-102.5 -45.5
q-23 0 -38 14.5t-15 39.5v13q1 12 2 17q-47 -84 -109 -84q-55 0 -86 41t-31 107q0 51 24.5 105.5t65 100t100.5 74.5t125 29zM265 385q-30 0 -56.5 -30.5t-43 -73.5t-25.5 -85.5t-9 -71.5q0 -56 31 -56q32 0 64 69.5t48 150.5l18 90q-7 7 -27 7z" />
    <glyph glyph-name="aacute" unicode="&#xe1;" horiz-adv-x="462" 
d="M265 482q-4 0 -9 8.5t-5 13.5q0 7 41.5 56t62.5 69q4 3 13 3q23 0 39.5 -15t16.5 -29q0 -25 -71 -65.5t-88 -40.5zM323 449q32 0 57.5 -7t36.5 -15l-58 -299q-2 -6 -2 -23q0 -24 10 -24q14 0 39 21t34 32q2 0 10.5 -10t8.5 -14q-11 -27 -71.5 -72.5t-102.5 -45.5
q-23 0 -38 14.5t-15 39.5v13q1 12 2 17q-47 -84 -109 -84q-55 0 -86 41t-31 107q0 51 24.5 105.5t65 100t100.5 74.5t125 29zM265 385q-30 0 -56.5 -30.5t-43 -73.5t-25.5 -85.5t-9 -71.5q0 -56 31 -56q32 0 64 69.5t48 150.5l18 90q-7 7 -27 7z" />
    <glyph glyph-name="acircumflex" unicode="&#xe2;" horiz-adv-x="462" 
d="M394 510q-7 0 -38.5 27.5t-48.5 46.5q-26 -20 -67.5 -47t-48.5 -27q-8 0 -3 23q20 17 76 78q22 25 47 57q7 10 15 10q4 0 9 -10q0 -1 8.5 -19.5t15.5 -32.5q30 -58 48 -83q-5 -23 -13 -23zM323 449q32 0 57.5 -7t36.5 -15l-58 -299q-2 -6 -2 -23q0 -24 10 -24q14 0 39 21
t34 32q2 0 10.5 -10t8.5 -14q-11 -27 -71.5 -72.5t-102.5 -45.5q-23 0 -38 14.5t-15 39.5v13q1 12 2 17q-47 -84 -109 -84q-55 0 -86 41t-31 107q0 51 24.5 105.5t65 100t100.5 74.5t125 29zM265 385q-30 0 -56.5 -30.5t-43 -73.5t-25.5 -85.5t-9 -71.5q0 -56 31 -56
q32 0 64 69.5t48 150.5l18 90q-7 7 -27 7z" />
    <glyph glyph-name="atilde" unicode="&#xe3;" horiz-adv-x="462" 
d="M246 629q29 0 67.5 -30.5t67.5 -30.5q15 0 39 24.5t25 24.5q6 -3 6 -16q0 -17 -34.5 -54t-64.5 -37t-68 30t-68 30q-13 0 -38 -25.5t-28 -25.5q-5 0 -5 19q0 25 36 58t65 33zM323 449q32 0 57.5 -7t36.5 -15l-58 -299q-2 -6 -2 -23q0 -24 10 -24q14 0 39 21t34 32
q2 0 10.5 -10t8.5 -14q-11 -27 -71.5 -72.5t-102.5 -45.5q-23 0 -38 14.5t-15 39.5v13q1 12 2 17q-47 -84 -109 -84q-55 0 -86 41t-31 107q0 51 24.5 105.5t65 100t100.5 74.5t125 29zM265 385q-30 0 -56.5 -30.5t-43 -73.5t-25.5 -85.5t-9 -71.5q0 -56 31 -56q32 0 64 69.5
t48 150.5l18 90q-7 7 -27 7z" />
    <glyph glyph-name="adieresis" unicode="&#xe4;" horiz-adv-x="462" 
d="M416 657q25 0 41.5 -18t16.5 -44q0 -33 -23.5 -59t-54.5 -26q-25 0 -41.5 18t-16.5 45q0 33 23.5 58.5t54.5 25.5zM196 659q25 0 41.5 -18t16.5 -45q0 -33 -23.5 -58.5t-54.5 -25.5q-25 0 -41.5 18t-16.5 44q0 33 23.5 59t54.5 26zM323 449q32 0 57.5 -7t36.5 -15
l-58 -299q-2 -6 -2 -23q0 -24 10 -24q14 0 39 21t34 32q2 0 10.5 -10t8.5 -14q-11 -27 -71.5 -72.5t-102.5 -45.5q-23 0 -38 14.5t-15 39.5v13q1 12 2 17q-47 -84 -109 -84q-55 0 -86 41t-31 107q0 51 24.5 105.5t65 100t100.5 74.5t125 29zM265 385q-30 0 -56.5 -30.5
t-43 -73.5t-25.5 -85.5t-9 -71.5q0 -56 31 -56q32 0 64 69.5t48 150.5l18 90q-7 7 -27 7z" />
    <glyph glyph-name="aring" unicode="&#xe5;" horiz-adv-x="462" 
d="M331 663q-26 0 -43.5 -21t-17.5 -46q0 -18 10 -29.5t30 -11.5q26 0 43.5 21t17.5 46q0 18 -10 29.5t-30 11.5zM340 707q33 0 53.5 -22.5t20.5 -56.5q0 -46 -35.5 -82t-77.5 -36q-33 0 -53.5 22.5t-20.5 56.5q0 47 35.5 82.5t77.5 35.5zM323 449q32 0 57.5 -7t36.5 -15
l-58 -299q-2 -6 -2 -23q0 -24 10 -24q14 0 39 21t34 32q2 0 10.5 -10t8.5 -14q-11 -27 -71.5 -72.5t-102.5 -45.5q-23 0 -38 14.5t-15 39.5v13q1 12 2 17q-47 -84 -109 -84q-55 0 -86 41t-31 107q0 51 24.5 105.5t65 100t100.5 74.5t125 29zM265 385q-30 0 -56.5 -30.5
t-43 -73.5t-25.5 -85.5t-9 -71.5q0 -56 31 -56q32 0 64 69.5t48 150.5l18 90q-7 7 -27 7z" />
    <glyph glyph-name="ae" unicode="&#xe6;" horiz-adv-x="621" 
d="M495 449q48 0 81.5 -26t33.5 -69q0 -49 -48.5 -86.5t-99.5 -52.5t-84 -15q-4 0 -4 -10q0 -70 24.5 -101t54.5 -31q18 0 39 17t36 34.5t17 17.5q3 -1 9.5 -13.5t6.5 -15.5q-9 -24 -55 -64.5t-101 -40.5q-85 0 -127 68q-43 -69 -132 -69q-58 0 -92 31t-34 78q0 33 16 57
t44.5 37.5t55.5 21.5t62 15.5t51 12.5q8 3 10 14l9 48q3 18 3 35q0 47 -26 47q-22 0 -44.5 -23.5t-28.5 -59.5q-2 -10 -19.5 -19t-36.5 -9q-43 0 -43 39q0 45 66.5 88.5t134.5 43.5q64 0 92 -43q61 43 129 43zM232 110l14 77q-4 -1 -20 -4.5t-22 -5t-19.5 -6t-19 -9.5
t-13 -12.5t-10.5 -18t-3 -23.5q0 -20 11 -30.5t27 -10.5q19 0 35 12t20 31zM472 394q-18 0 -40 -16.5t-35 -43.5q-18 -38 -18 -77q0 -4 4 -4q49 0 81 32.5t32 70.5t-24 38z" />
    <glyph glyph-name="ccedilla" unicode="&#xe7;" horiz-adv-x="371" 
d="M130 -1h36l-22 -31q13 1 22 1q21 0 34.5 -14.5t13.5 -35.5q0 -12 -6 -27.5t-19 -33t-39.5 -29.5t-61.5 -12q-41 0 -54 8q-5 11 -5 25q0 10 7.5 18t14.5 8q9 0 24 -10.5t28 -10.5q24 0 37.5 13t13.5 29q0 25 -21 25q-17 0 -34 -7q-2 0 -8.5 7.5t-3.5 10.5q6 9 21.5 33.5
t21.5 32.5zM252 449q72 0 112 -45q7 -21 7 -33q0 -25 -13 -43t-34 -18q-17 0 -28 13t-15.5 29t-14.5 29t-25 13q-27 0 -52 -36t-39.5 -88t-14.5 -101q0 -101 64 -101q30 0 60 21.5t41 36.5q2 0 10.5 -10t8.5 -14q-12 -28 -65 -68t-100 -40q-74 0 -109.5 43.5t-35.5 118.5
q0 74 34 142.5t90.5 109.5t118.5 41z" />
    <glyph glyph-name="egrave" unicode="&#xe8;" horiz-adv-x="393" 
d="M293 482q-17 0 -88 40.5t-71 65.5q0 14 16.5 29t39.5 15q8 0 13 -3q21 -20 62.5 -69t41.5 -56q0 -5 -5 -13.5t-9 -8.5zM251 449q52 0 90 -25t38 -68q0 -37 -30 -72t-71 -57t-79.5 -35t-59.5 -13q-4 0 -4 -10q0 -59 17.5 -80t46.5 -21q30 0 60 21.5t41 36.5q2 0 10.5 -10
t8.5 -14q-12 -28 -65 -68t-100 -40q-72 0 -108.5 42.5t-36.5 120.5q0 72 33.5 140t90 110t118.5 42zM241 395q-26 0 -60.5 -54.5t-34.5 -107.5q0 -4 4 -4q47 0 81 43t34 84q0 39 -24 39z" />
    <glyph glyph-name="eacute" unicode="&#xe9;" horiz-adv-x="393" 
d="M272 482q-4 0 -9 8.5t-5 13.5q0 7 41.5 56t62.5 69q4 3 13 3q23 0 39.5 -15t16.5 -29q0 -25 -71 -65.5t-88 -40.5zM251 449q52 0 90 -25t38 -68q0 -37 -30 -72t-71 -57t-79.5 -35t-59.5 -13q-4 0 -4 -10q0 -59 17.5 -80t46.5 -21q30 0 60 21.5t41 36.5q2 0 10.5 -10
t8.5 -14q-12 -28 -65 -68t-100 -40q-72 0 -108.5 42.5t-36.5 120.5q0 72 33.5 140t90 110t118.5 42zM241 395q-26 0 -60.5 -54.5t-34.5 -107.5q0 -4 4 -4q47 0 81 43t34 84q0 39 -24 39z" />
    <glyph glyph-name="ecircumflex" unicode="&#xea;" horiz-adv-x="393" 
d="M352 510q-7 0 -38.5 27.5t-48.5 46.5q-26 -20 -67.5 -47t-48.5 -27q-8 0 -3 23q20 17 76 78q22 25 47 57q7 10 15 10q4 0 9 -10q0 -1 8.5 -19.5t15.5 -32.5q30 -58 48 -83q-5 -23 -13 -23zM251 449q52 0 90 -25t38 -68q0 -37 -30 -72t-71 -57t-79.5 -35t-59.5 -13
q-4 0 -4 -10q0 -59 17.5 -80t46.5 -21q30 0 60 21.5t41 36.5q2 0 10.5 -10t8.5 -14q-12 -28 -65 -68t-100 -40q-72 0 -108.5 42.5t-36.5 120.5q0 72 33.5 140t90 110t118.5 42zM241 395q-26 0 -60.5 -54.5t-34.5 -107.5q0 -4 4 -4q47 0 81 43t34 84q0 39 -24 39z" />
    <glyph glyph-name="edieresis" unicode="&#xeb;" horiz-adv-x="393" 
d="M402 657q25 0 41.5 -18t16.5 -44q0 -33 -23.5 -59t-54.5 -26q-25 0 -41.5 18t-16.5 45q0 33 23.5 58.5t54.5 25.5zM182 659q25 0 41.5 -18t16.5 -45q0 -33 -23.5 -58.5t-54.5 -25.5q-25 0 -41.5 18t-16.5 44q0 33 23.5 59t54.5 26zM251 449q52 0 90 -25t38 -68
q0 -37 -30 -72t-71 -57t-79.5 -35t-59.5 -13q-4 0 -4 -10q0 -59 17.5 -80t46.5 -21q30 0 60 21.5t41 36.5q2 0 10.5 -10t8.5 -14q-12 -28 -65 -68t-100 -40q-72 0 -108.5 42.5t-36.5 120.5q0 72 33.5 140t90 110t118.5 42zM241 395q-26 0 -60.5 -54.5t-34.5 -107.5
q0 -4 4 -4q47 0 81 43t34 84q0 39 -24 39z" />
    <glyph glyph-name="igrave" unicode="&#xec;" horiz-adv-x="314" 
d="M219 482q-17 0 -88 40.5t-71 65.5q0 14 16.5 29t39.5 15q8 0 13 -3q21 -20 62.5 -69t41.5 -56q0 -5 -5 -13.5t-9 -8.5zM163 449q30 0 52.5 -22.5t22.5 -73.5q0 -25 -40 -225q-2 -6 -2 -16q0 -30 20 -30q7 0 19.5 14t21.5 28.5t10 14.5q6 0 17 -9.5t14 -19.5
q-15 -37 -54 -78t-92 -41q-33 0 -54 24.5t-21 71.5q0 7 5 37l35 188q2 6 2 16q0 30 -20 30q-7 0 -19.5 -14t-21.5 -28.5t-10 -14.5q-6 0 -17 9.5t-14 19.5q15 37 54 78t92 41z" />
    <glyph glyph-name="iacute" unicode="&#xed;" horiz-adv-x="314" 
d="M159 482q-4 0 -9 8.5t-5 13.5q0 7 41.5 56t62.5 69q4 3 13 3q23 0 39.5 -15t16.5 -29q0 -25 -71 -65.5t-88 -40.5zM163 449q30 0 52.5 -22.5t22.5 -73.5q0 -25 -40 -225q-2 -6 -2 -16q0 -30 20 -30q7 0 19.5 14t21.5 28.5t10 14.5q6 0 17 -9.5t14 -19.5q-15 -37 -54 -78
t-92 -41q-33 0 -54 24.5t-21 71.5q0 7 5 37l35 188q2 6 2 16q0 30 -20 30q-7 0 -19.5 -14t-21.5 -28.5t-10 -14.5q-6 0 -17 9.5t-14 19.5q15 37 54 78t92 41z" />
    <glyph glyph-name="icircumflex" unicode="&#xee;" horiz-adv-x="314" 
d="M279 510q-7 0 -38.5 27.5t-48.5 46.5q-26 -20 -67.5 -47t-48.5 -27q-8 0 -3 23q20 17 76 78q22 25 47 57q7 10 15 10q4 0 9 -10q0 -1 8.5 -19.5t15.5 -32.5q30 -58 48 -83q-5 -23 -13 -23zM163 449q30 0 52.5 -22.5t22.5 -73.5q0 -25 -40 -225q-2 -6 -2 -16q0 -30 20 -30
q7 0 19.5 14t21.5 28.5t10 14.5q6 0 17 -9.5t14 -19.5q-15 -37 -54 -78t-92 -41q-33 0 -54 24.5t-21 71.5q0 7 5 37l35 188q2 6 2 16q0 30 -20 30q-7 0 -19.5 -14t-21.5 -28.5t-10 -14.5q-6 0 -17 9.5t-14 19.5q15 37 54 78t92 41z" />
    <glyph glyph-name="idieresis" unicode="&#xef;" horiz-adv-x="314" 
d="M305 657q25 0 41.5 -18t16.5 -44q0 -33 -23.5 -59t-54.5 -26q-25 0 -41.5 18t-16.5 45q0 33 23.5 58.5t54.5 25.5zM113 659q25 0 41.5 -18t16.5 -45q0 -33 -23.5 -58.5t-54.5 -25.5q-25 0 -41.5 18t-16.5 44q0 33 23.5 59t54.5 26zM163 449q30 0 52.5 -22.5t22.5 -73.5
q0 -25 -40 -225q-2 -6 -2 -16q0 -30 20 -30q7 0 19.5 14t21.5 28.5t10 14.5q6 0 17 -9.5t14 -19.5q-15 -37 -54 -78t-92 -41q-33 0 -54 24.5t-21 71.5q0 7 5 37l35 188q2 6 2 16q0 30 -20 30q-7 0 -19.5 -14t-21.5 -28.5t-10 -14.5q-6 0 -17 9.5t-14 19.5q15 37 54 78t92 41
z" />
    <glyph glyph-name="eth" unicode="&#xf0;" horiz-adv-x="431" 
d="M257 342q-47 0 -83 -68t-36 -168q0 -56 39 -56q69 0 99 157q15 81 15 105q0 15 -10.5 22.5t-23.5 7.5zM235 399q31 0 54 -12l2 -1q5 0 5 23q0 81 -58 160l-92 -103q-9 0 -21.5 11.5t-12.5 17.5q0 4 2 6l93 104q-33 33 -70 53q0 11 7 23t17 14q46 -25 80 -51l93 106
q1 1 9 -4t16 -12t8 -12q0 -4 -3 -9l-87 -100q137 -128 137 -304q0 -76 -23.5 -138.5t-61 -99.5t-80 -57t-83.5 -20q-63 0 -104.5 48.5t-41.5 118.5q0 92 68.5 165t146.5 73z" />
    <glyph glyph-name="ntilde" unicode="&#xf1;" horiz-adv-x="513" 
d="M235 629q29 0 67.5 -30.5t67.5 -30.5q15 0 39 24.5t25 24.5q6 -3 6 -16q0 -17 -34.5 -54t-64.5 -37t-68 30t-68 30q-13 0 -38 -25.5t-28 -25.5q-5 0 -5 19q0 25 36 58t65 33zM176 449q23 0 38 -14.5t15 -42.5q0 -12 -8 -64q0 -2 -0.5 -4.5t-1.5 -8.5t-1.5 -9.5l-0.5 -3.5
q26 53 68 100t75 47q44 0 65 -31t21 -78q0 -24 -16 -107l-20 -105q-2 -6 -2 -23q0 -24 10 -24q14 0 39.5 21t33.5 32q3 0 11 -10t8 -14q-11 -27 -71.5 -72.5t-102.5 -45.5q-22 0 -37.5 14.5t-15.5 42.5q0 29 10 74l23 119q10 50 10 58q0 21 -6.5 31t-22.5 10q-25 0 -65 -85
t-54 -151l-21 -105q-20 -6 -56 -6q-35 0 -59 6l60 313q2 10 2 23q0 24 -10 24q-14 0 -39.5 -21t-33.5 -32q-2 0 -10.5 10t-8.5 14q11 27 71.5 72.5t102.5 45.5z" />
    <glyph glyph-name="ograve" unicode="&#xf2;" horiz-adv-x="407" 
d="M297 482q-17 0 -88 40.5t-71 65.5q0 14 16.5 29t39.5 15q8 0 13 -3q21 -20 62.5 -69t41.5 -56q0 -5 -5 -13.5t-9 -8.5zM240 396q-29 0 -54.5 -46.5t-39.5 -112.5t-13 -127q2 -63 33 -63t57 50.5t38.5 115t11.5 119.5q-2 64 -33 64zM250 449q77 0 112 -44.5t35 -117.5
q0 -74 -32 -141.5t-88 -109.5t-121 -42q-78 0 -112.5 44.5t-34.5 117.5q0 68 31.5 135.5t88 112.5t121.5 45z" />
    <glyph glyph-name="oacute" unicode="&#xf3;" horiz-adv-x="407" 
d="M231 482q-4 0 -9 8.5t-5 13.5q0 7 41.5 56t62.5 69q4 3 13 3q23 0 39.5 -15t16.5 -29q0 -25 -71 -65.5t-88 -40.5zM240 396q-29 0 -54.5 -46.5t-39.5 -112.5t-13 -127q2 -63 33 -63t57 50.5t38.5 115t11.5 119.5q-2 64 -33 64zM250 449q77 0 112 -44.5t35 -117.5
q0 -74 -32 -141.5t-88 -109.5t-121 -42q-78 0 -112.5 44.5t-34.5 117.5q0 68 31.5 135.5t88 112.5t121.5 45z" />
    <glyph glyph-name="ocircumflex" unicode="&#xf4;" horiz-adv-x="407" 
d="M372 510q-7 0 -38.5 27.5t-48.5 46.5q-26 -20 -67.5 -47t-48.5 -27q-8 0 -3 23q20 17 76 78q22 25 47 57q7 10 15 10q4 0 9 -10q0 -1 8.5 -19.5t15.5 -32.5q30 -58 48 -83q-5 -23 -13 -23zM240 396q-29 0 -54.5 -46.5t-39.5 -112.5t-13 -127q2 -63 33 -63t57 50.5
t38.5 115t11.5 119.5q-2 64 -33 64zM250 449q77 0 112 -44.5t35 -117.5q0 -74 -32 -141.5t-88 -109.5t-121 -42q-78 0 -112.5 44.5t-34.5 117.5q0 68 31.5 135.5t88 112.5t121.5 45z" />
    <glyph glyph-name="otilde" unicode="&#xf5;" horiz-adv-x="407" 
d="M230 629q29 0 67.5 -30.5t67.5 -30.5q15 0 39 24.5t25 24.5q6 -3 6 -16q0 -17 -34.5 -54t-64.5 -37t-68 30t-68 30q-13 0 -38 -25.5t-28 -25.5q-5 0 -5 19q0 25 36 58t65 33zM240 396q-29 0 -54.5 -46.5t-39.5 -112.5t-13 -127q2 -63 33 -63t57 50.5t38.5 115t11.5 119.5
q-2 64 -33 64zM250 449q77 0 112 -44.5t35 -117.5q0 -74 -32 -141.5t-88 -109.5t-121 -42q-78 0 -112.5 44.5t-34.5 117.5q0 68 31.5 135.5t88 112.5t121.5 45z" />
    <glyph glyph-name="odieresis" unicode="&#xf6;" horiz-adv-x="407" 
d="M398 657q25 0 41.5 -18t16.5 -44q0 -33 -23.5 -59t-54.5 -26q-25 0 -41.5 18t-16.5 45q0 33 23.5 58.5t54.5 25.5zM178 659q25 0 41.5 -18t16.5 -45q0 -33 -23.5 -58.5t-54.5 -25.5q-25 0 -41.5 18t-16.5 44q0 33 23.5 59t54.5 26zM240 396q-29 0 -54.5 -46.5
t-39.5 -112.5t-13 -127q2 -63 33 -63t57 50.5t38.5 115t11.5 119.5q-2 64 -33 64zM250 449q77 0 112 -44.5t35 -117.5q0 -74 -32 -141.5t-88 -109.5t-121 -42q-78 0 -112.5 44.5t-34.5 117.5q0 68 31.5 135.5t88 112.5t121.5 45z" />
    <glyph glyph-name="divide" unicode="&#xf7;" horiz-adv-x="464" 
d="M273 498q22 0 36 -15t14 -38q0 -28 -20 -50.5t-47 -22.5q-22 0 -36 15.5t-14 38.5q0 28 20 50t47 22zM201 126q22 0 36 -15t14 -38q0 -28 -20 -50.5t-47 -22.5q-22 0 -36 15.5t-14 38.5q0 28 20 50t47 22zM30 285h425q4 0 4 -18q0 -28 -26 -54h-425q-4 0 -4 18
q0 28 26 54z" />
    <glyph glyph-name="oslash" unicode="&#xf8;" horiz-adv-x="439" 
d="M194 53q42 0 75 73t33 161v10l-146 -207q14 -37 38 -37zM255 389q-39 0 -74 -74t-35 -160v-3l144 206q-12 31 -35 31zM276 449q35 0 66 -18l12 18q7 2 22 -6.5t15 -16.5q0 -4 -1 -5l-13 -19q45 -51 45 -122q0 -116 -71.5 -201.5t-177.5 -85.5q-41 0 -71 21l-16 -22
q-8 -1 -22 5.5t-14 13.5q0 5 2 7l18 25q-43 53 -43 124q0 114 71.5 198t177.5 84z" />
    <glyph glyph-name="ugrave" unicode="&#xf9;" horiz-adv-x="513" 
d="M284 482q-17 0 -88 40.5t-71 65.5q0 14 16.5 29t39.5 15q8 0 13 -3q21 -20 62.5 -69t41.5 -56q0 -5 -5 -13.5t-9 -8.5zM175 449q23 0 38 -14.5t15 -42.5q0 -29 -10 -74l-23 -119q-1 -4 -3.5 -17t-4.5 -24.5t-2 -16.5q0 -21 6.5 -31t22.5 -10q25 0 65.5 85t53.5 151
l21 105q20 6 56 6q35 0 59 -6l-60 -313q-2 -10 -2 -23q0 -24 10 -24q14 0 39.5 21t33.5 32q3 0 11 -10t8 -14q-11 -27 -71.5 -72.5t-102.5 -45.5q-22 0 -37.5 14.5t-15.5 42.5q0 16 8 64q0 2 0.5 4.5t1.5 8.5t1.5 9.5l0.5 3.5q-26 -53 -68 -100t-75 -47q-44 0 -65 31t-21 78
q0 24 16 107l20 105q2 6 2 23q0 24 -10 24q-14 0 -39.5 -21t-33.5 -32q-2 0 -10.5 10t-8.5 14q11 27 71.5 72.5t102.5 45.5z" />
    <glyph glyph-name="uacute" unicode="&#xfa;" horiz-adv-x="513" 
d="M257 482q-4 0 -9 8.5t-5 13.5q0 7 41.5 56t62.5 69q4 3 13 3q23 0 39.5 -15t16.5 -29q0 -25 -71 -65.5t-88 -40.5zM175 449q23 0 38 -14.5t15 -42.5q0 -29 -10 -74l-23 -119q-1 -4 -3.5 -17t-4.5 -24.5t-2 -16.5q0 -21 6.5 -31t22.5 -10q25 0 65.5 85t53.5 151l21 105
q20 6 56 6q35 0 59 -6l-60 -313q-2 -10 -2 -23q0 -24 10 -24q14 0 39.5 21t33.5 32q3 0 11 -10t8 -14q-11 -27 -71.5 -72.5t-102.5 -45.5q-22 0 -37.5 14.5t-15.5 42.5q0 16 8 64q0 2 0.5 4.5t1.5 8.5t1.5 9.5l0.5 3.5q-26 -53 -68 -100t-75 -47q-44 0 -65 31t-21 78
q0 24 16 107l20 105q2 6 2 23q0 24 -10 24q-14 0 -39.5 -21t-33.5 -32q-2 0 -10.5 10t-8.5 14q11 27 71.5 72.5t102.5 45.5z" />
    <glyph glyph-name="ucircumflex" unicode="&#xfb;" horiz-adv-x="513" 
d="M386 510q-7 0 -38.5 27.5t-48.5 46.5q-26 -20 -67.5 -47t-48.5 -27q-8 0 -3 23q20 17 76 78q22 25 47 57q7 10 15 10q4 0 9 -10q0 -1 8.5 -19.5t15.5 -32.5q30 -58 48 -83q-5 -23 -13 -23zM175 449q23 0 38 -14.5t15 -42.5q0 -29 -10 -74l-23 -119q-1 -4 -3.5 -17
t-4.5 -24.5t-2 -16.5q0 -21 6.5 -31t22.5 -10q25 0 65.5 85t53.5 151l21 105q20 6 56 6q35 0 59 -6l-60 -313q-2 -10 -2 -23q0 -24 10 -24q14 0 39.5 21t33.5 32q3 0 11 -10t8 -14q-11 -27 -71.5 -72.5t-102.5 -45.5q-22 0 -37.5 14.5t-15.5 42.5q0 16 8 64q0 2 0.5 4.5
t1.5 8.5t1.5 9.5l0.5 3.5q-26 -53 -68 -100t-75 -47q-44 0 -65 31t-21 78q0 24 16 107l20 105q2 6 2 23q0 24 -10 24q-14 0 -39.5 -21t-33.5 -32q-2 0 -10.5 10t-8.5 14q11 27 71.5 72.5t102.5 45.5z" />
    <glyph glyph-name="udieresis" unicode="&#xfc;" horiz-adv-x="513" 
d="M411 657q25 0 41.5 -18t16.5 -44q0 -33 -23.5 -59t-54.5 -26q-25 0 -41.5 18t-16.5 45q0 33 23.5 58.5t54.5 25.5zM191 659q25 0 41.5 -18t16.5 -45q0 -33 -23.5 -58.5t-54.5 -25.5q-25 0 -41.5 18t-16.5 44q0 33 23.5 59t54.5 26zM175 449q23 0 38 -14.5t15 -42.5
q0 -29 -10 -74l-23 -119q-1 -4 -3.5 -17t-4.5 -24.5t-2 -16.5q0 -21 6.5 -31t22.5 -10q25 0 65.5 85t53.5 151l21 105q20 6 56 6q35 0 59 -6l-60 -313q-2 -10 -2 -23q0 -24 10 -24q14 0 39.5 21t33.5 32q3 0 11 -10t8 -14q-11 -27 -71.5 -72.5t-102.5 -45.5
q-22 0 -37.5 14.5t-15.5 42.5q0 16 8 64q0 2 0.5 4.5t1.5 8.5t1.5 9.5l0.5 3.5q-26 -53 -68 -100t-75 -47q-44 0 -65 31t-21 78q0 24 16 107l20 105q2 6 2 23q0 24 -10 24q-14 0 -39.5 -21t-33.5 -32q-2 0 -10.5 10t-8.5 14q11 27 71.5 72.5t102.5 45.5z" />
    <glyph glyph-name="yacute" unicode="&#xfd;" horiz-adv-x="509" 
d="M299 482q-4 0 -9 8.5t-5 13.5q0 7 41.5 56t62.5 69q4 3 13 3q23 0 39.5 -15t16.5 -29q0 -25 -71 -65.5t-88 -40.5zM219 449q12 0 23 -10.5t20 -27.5t17 -41.5t14.5 -50t12 -55t9 -55.5t7 -52.5t5 -43.5t3 -32l1.5 -15q16 20 50.5 90.5t34.5 116.5q0 27 -12 61.5t-24 54.5
q0 23 20 41.5t45 18.5q23 0 39.5 -16t16.5 -39q0 -86 -32 -177.5t-83 -167t-111 -137t-121.5 -96t-109.5 -34.5q-26 0 -43 12.5t-17 40.5q0 25 18 45q44 -12 76 -12t56.5 8.5t35.5 18t23 24.5q21 27 21 89q0 57 -14 146t-39 178q-8 28 -24 28q-14 0 -39.5 -21t-33.5 -32
q-3 0 -11 10t-8 14q11 27 71.5 72.5t102.5 45.5z" />
    <glyph glyph-name="thorn" unicode="&#xfe;" horiz-adv-x="450" 
d="M31 -85l120 617q9 51 9 71q0 18 -41 18h-8q-4 0 -2 14q0 3 2.5 10t5.5 7q28 3 56.5 8.5t49 11.5t37 11t26.5 9l9 3h2q7 0 7 -19q-19 -48 -30 -108q-34 -173 -36 -182q-1 -3 1 -4.5t5 1.5q14 13 43.5 28.5t51.5 15.5q74 0 113 -59t23 -139q-20 -106 -93 -169t-165 -63
q-11 0 -22.5 2.5t-18.5 5t-8 2.5q-3 0 -6 -16l-12 -60q-12 -59 -11 -91q0 -7 18 -16t25 -9q3 -1 0.5 -15t-5.5 -19q-10 1 -51 4.5t-61 3.5q-21 0 -63 -3.5t-53 -4.5l6 34q9 0 31 9t25 16q15 38 20 75zM218 282l-33 -169q-5 -26 3 -41q9 -20 45 -20q11 0 24 6.5t30 21
t32.5 46t23.5 74.5q31 155 -51 155q-31 0 -48.5 -16t-25.5 -57z" />
    <glyph glyph-name="ydieresis" unicode="&#xff;" horiz-adv-x="509" 
d="M455 657q25 0 41.5 -18t16.5 -44q0 -33 -23.5 -59t-54.5 -26q-25 0 -41.5 18t-16.5 45q0 33 23.5 58.5t54.5 25.5zM235 659q25 0 41.5 -18t16.5 -45q0 -33 -23.5 -58.5t-54.5 -25.5q-25 0 -41.5 18t-16.5 44q0 33 23.5 59t54.5 26zM219 449q12 0 23 -10.5t20 -27.5
t17 -41.5t14.5 -50t12 -55t9 -55.5t7 -52.5t5 -43.5t3 -32l1.5 -15q16 20 50.5 90.5t34.5 116.5q0 27 -12 61.5t-24 54.5q0 23 20 41.5t45 18.5q23 0 39.5 -16t16.5 -39q0 -86 -32 -177.5t-83 -167t-111 -137t-121.5 -96t-109.5 -34.5q-26 0 -43 12.5t-17 40.5q0 25 18 45
q44 -12 76 -12t56.5 8.5t35.5 18t23 24.5q21 27 21 89q0 57 -14 146t-39 178q-8 28 -24 28q-14 0 -39.5 -21t-33.5 -32q-3 0 -11 10t-8 14q11 27 71.5 72.5t102.5 45.5z" />
    <glyph glyph-name="Amacron" unicode="&#x100;" horiz-adv-x="634" 
d="M304 739q13 58 25 58h267q7 0 4 -10q-5 -22 -11 -36.5t-10 -18.5l-4 -4h-268h-1.5t-2 2.5t0.5 8.5zM303 213q-52 0 -85 -1q-3 0 -9.5 -2t-7.5 -3l-45 -76q-33 -49 -33 -66t25.5 -26t39.5 -9q2 0 2 -4q0 -20 -5 -30q-12 1 -44 4t-56 3q-25 0 -64.5 -3t-53.5 -4q-1 2 -1 8
q0 26 5 26q10 0 43 14.5t42 26.5q9 13 39 63l272 452q1 2 10 17t14 22.5t13.5 19t15.5 17t13 5.5q9 0 12 -8l105 -518q4 -26 14 -75q3 -16 26 -26t34 -10q2 0 2 -5q0 -20 -7 -29q-3 0 -50.5 3.5t-71.5 3.5q-19 0 -138 -7q-1 1 -1 7q0 27 8 27t26 8.5t25 16.5q5 7 5 14
q0 9 -22 138q0 4 -6 4q-36 2 -91 2zM315 273q38 0 67 2q4 0 4 5l-32 178l-108 -178q-1 -1 -0.5 -2.5t1.5 -1.5q27 -3 68 -3z" />
    <glyph glyph-name="amacron" unicode="&#x101;" horiz-adv-x="462" 
d="M173 521q13 58 25 58h231q7 0 4 -10q-7 -31 -19 -51l-6 -8h-232h-1.5t-2 2.5t0.5 8.5zM323 449q32 0 57.5 -7t36.5 -15l-58 -299q-2 -6 -2 -23q0 -24 10 -24q14 0 39 21t34 32q2 0 10.5 -10t8.5 -14q-11 -27 -71.5 -72.5t-102.5 -45.5q-23 0 -38 14.5t-15 39.5v13
q1 12 2 17q-47 -84 -109 -84q-55 0 -86 41t-31 107q0 51 24.5 105.5t65 100t100.5 74.5t125 29zM265 385q-30 0 -56.5 -30.5t-43 -73.5t-25.5 -85.5t-9 -71.5q0 -56 31 -56q32 0 64 69.5t48 150.5l18 90q-7 7 -27 7z" />
    <glyph glyph-name="Abreve" unicode="&#x102;" horiz-adv-x="634" 
d="M457 788q20 0 45 14.5t40 31.5q2 4 5 2q4 -2 11 -13t5 -16q-1 -1 -2 -3.5t-2 -3.5q-54 -72 -114 -72t-86 72q-1 2 -1 7t11 16t16 13q2 1 4 -2q8 -17 28 -31.5t40 -14.5zM303 213q-52 0 -85 -1q-3 0 -9.5 -2t-7.5 -3l-45 -76q-33 -49 -33 -66t25.5 -26t39.5 -9q2 0 2 -4
q0 -20 -5 -30q-12 1 -44 4t-56 3q-25 0 -64.5 -3t-53.5 -4q-1 2 -1 8q0 26 5 26q10 0 43 14.5t42 26.5q9 13 39 63l272 452q1 2 10 17t14 22.5t13.5 19t15.5 17t13 5.5q9 0 12 -8l105 -518q4 -26 14 -75q3 -16 26 -26t34 -10q2 0 2 -5q0 -20 -7 -29q-3 0 -50.5 3.5
t-71.5 3.5q-19 0 -138 -7q-1 1 -1 7q0 27 8 27t26 8.5t25 16.5q5 7 5 14q0 9 -22 138q0 4 -6 4q-36 2 -91 2zM315 273q38 0 67 2q4 0 4 5l-32 178l-108 -178q-1 -1 -0.5 -2.5t1.5 -1.5q27 -3 68 -3z" />
    <glyph glyph-name="abreve" unicode="&#x103;" horiz-adv-x="462" 
d="M318 570q22 0 45 15.5t36 42.5q2 3 4 3q5 0 15 -8.5t9 -13.5q0 -1 -3 -7q-19 -41 -50.5 -66.5t-67.5 -25.5q-37 0 -62 26t-28 66v7q1 5 14.5 13.5t18.5 8.5q3 0 3 -3q2 -27 22.5 -42.5t43.5 -15.5zM323 449q32 0 57.5 -7t36.5 -15l-58 -299q-2 -6 -2 -23q0 -24 10 -24
q14 0 39 21t34 32q2 0 10.5 -10t8.5 -14q-11 -27 -71.5 -72.5t-102.5 -45.5q-23 0 -38 14.5t-15 39.5v13q1 12 2 17q-47 -84 -109 -84q-55 0 -86 41t-31 107q0 51 24.5 105.5t65 100t100.5 74.5t125 29zM265 385q-30 0 -56.5 -30.5t-43 -73.5t-25.5 -85.5t-9 -71.5
q0 -56 31 -56q32 0 64 69.5t48 150.5l18 90q-7 7 -27 7z" />
    <glyph glyph-name="Aogonek" unicode="&#x104;" horiz-adv-x="677" 
d="M351 273q38 0 67 2q4 0 4 5l-32 178l-108 -178q-1 -1 -0.5 -2.5t1.5 -1.5q27 -3 68 -3zM394 586q1 2 10 17t14.5 22.5t13.5 19t15 17t13 5.5q9 0 12 -8l105 -518q4 -26 14 -75q3 -16 26 -26t34 -10q2 0 2 -5q0 -20 -7 -29q-3 0 -50.5 3.5t-71.5 3.5q-53 0 -99.5 -41.5
t-46.5 -81.5q0 -9 7 -16.5t21 -7.5q21 0 38.5 7t27.5 13.5t11 6.5q5 -1 1.5 -16.5t-6.5 -18.5q-22 -25 -56 -44.5t-63 -19.5q-23 0 -40 17t-17 43q0 37 35 80.5t105 110.5q16 16 16 34q0 9 -22 138q0 4 -6 4q-36 2 -91 2q-61 0 -94 -1q-5 0 -8 -5l-45 -76q-33 -49 -33 -66
t25.5 -26t39.5 -9q2 0 2 -4q0 -20 -5 -30q-9 0 -47 3.5t-62 3.5q-25 0 -64.5 -3t-53.5 -4q-1 2 -1 8q0 26 5 26q10 0 43 14.5t42 26.5q9 13 39 63z" />
    <glyph glyph-name="aogonek" unicode="&#x105;" horiz-adv-x="490" 
d="M275 387q-22 0 -54.5 -46t-56.5 -108t-24 -105q0 -60 24 -60q31 0 67.5 64.5t46.5 128.5l14 85q3 12 3 24q0 17 -20 17zM314 449q33 0 66.5 -7.5t43.5 -14.5l-56 -298q-3 -15 -3 -21q0 -26 20 -26q7 0 19.5 14t21.5 28.5t10 14.5q6 0 17 -9.5t14 -19.5q-16 -40 -80 -100
q-7 -7 -27 -24.5t-28 -26t-20 -22.5t-17 -27.5t-5 -27.5q0 -26 28 -26q21 0 38.5 7t27.5 13.5t11 6.5q5 -1 1.5 -16.5t-6.5 -18.5q-22 -25 -56 -44.5t-63 -19.5q-23 0 -40 16.5t-17 42.5q0 62 82 152q-31 9 -46 53q-4 14 -4 24q0 2 -1 2l-2 -2q-21 -23 -34.5 -36.5
t-40.5 -28.5t-53 -15q-53 0 -75.5 27t-22.5 79q0 64 45.5 146.5t116.5 143.5t135 61z" />
    <glyph glyph-name="Cacute" unicode="&#x106;" horiz-adv-x="587" 
d="M385 715q-5 0 -9.5 7t-4.5 12q0 3 18 20t45 38t48 33q14 8 32 8q24 0 47 -9t23 -29q0 -18 -89.5 -49t-109.5 -31zM391 667q102 0 207 -29q0 -12 -4.5 -76.5t-5.5 -71.5q-2 -7 -10.5 -11t-17.5 -4q-2 0 -14 3q-1 14 -5 29t-15 34.5t-28 34t-46.5 25t-66.5 10.5
q-64 0 -117 -50t-82.5 -133.5t-29.5 -180.5q0 -90 37.5 -145t111.5 -55q42 0 83 10t64 26q17 12 32 33.5t22.5 36.5t8.5 15q26 0 29 -13q-3 -14 -17.5 -59t-22.5 -52q-57 -51 -206 -51q-131 0 -209 75.5t-78 190.5q0 82 34.5 159t89 130.5t122.5 86t134 32.5z" />
    <glyph glyph-name="cacute" unicode="&#x107;" horiz-adv-x="371" 
d="M229 482q-4 0 -9 8.5t-5 13.5q0 7 41.5 56t62.5 69q4 3 13 3q23 0 39.5 -15t16.5 -29q0 -25 -71 -65.5t-88 -40.5zM252 449q72 0 112 -45q7 -21 7 -33q0 -25 -13 -43t-34 -18q-17 0 -28 13t-15.5 29t-14.5 29t-25 13q-27 0 -52 -36t-39.5 -88t-14.5 -101q0 -101 64 -101
q30 0 60 21.5t41 36.5q2 0 10.5 -10t8.5 -14q-12 -28 -65 -68t-100 -40q-74 0 -109.5 43.5t-35.5 118.5q0 74 34 142.5t90.5 109.5t118.5 41z" />
    <glyph glyph-name="Ccircumflex" unicode="&#x108;" horiz-adv-x="587" 
d="M543 728q-8 0 -48.5 22.5t-63.5 39.5q-31 -17 -81 -39.5t-58 -22.5q-12 0 -7 19q32 19 92 65q35 28 55 48q10 9 16 9q4 0 13 -9l13.5 -18l19.5 -26q40 -48 64 -69q-5 -19 -15 -19zM391 667q102 0 207 -29q0 -12 -4.5 -76.5t-5.5 -71.5q-2 -7 -10.5 -11t-17.5 -4
q-2 0 -14 3q-1 14 -5 29t-15 34.5t-28 34t-46.5 25t-66.5 10.5q-64 0 -117 -50t-82.5 -133.5t-29.5 -180.5q0 -90 37.5 -145t111.5 -55q42 0 83 10t64 26q17 12 32 33.5t22.5 36.5t8.5 15q26 0 29 -13q-3 -14 -17.5 -59t-22.5 -52q-57 -51 -206 -51q-131 0 -209 75.5
t-78 190.5q0 82 34.5 159t89 130.5t122.5 86t134 32.5z" />
    <glyph glyph-name="ccircumflex" unicode="&#x109;" horiz-adv-x="371" 
d="M364 510q-7 0 -38.5 27.5t-48.5 46.5q-26 -20 -67.5 -47t-48.5 -27q-8 0 -3 23q20 17 76 78q22 25 47 57q7 10 15 10q4 0 9 -10q0 -1 8.5 -19.5t15.5 -32.5q30 -58 48 -83q-5 -23 -13 -23zM252 449q72 0 112 -45q7 -21 7 -33q0 -25 -13 -43t-34 -18q-17 0 -28 13
t-15.5 29t-14.5 29t-25 13q-27 0 -52 -36t-39.5 -88t-14.5 -101q0 -101 64 -101q30 0 60 21.5t41 36.5q2 0 10.5 -10t8.5 -14q-12 -28 -65 -68t-100 -40q-74 0 -109.5 43.5t-35.5 118.5q0 74 34 142.5t90.5 109.5t118.5 41z" />
    <glyph glyph-name="Cdotaccent" unicode="&#x10a;" horiz-adv-x="587" 
d="M349 802q6 31 30.5 52.5t52.5 21.5q29 0 45 -21.5t10 -52.5t-30.5 -52.5t-53.5 -21.5q-28 0 -44 21.5t-10 52.5zM391 667q102 0 207 -29q0 -12 -4.5 -76.5t-5.5 -71.5q-2 -7 -10.5 -11t-17.5 -4q-2 0 -14 3q-1 14 -5 29t-15 34.5t-28 34t-46.5 25t-66.5 10.5
q-64 0 -117 -50t-82.5 -133.5t-29.5 -180.5q0 -90 37.5 -145t111.5 -55q42 0 83 10t64 26q17 12 32 33.5t22.5 36.5t8.5 15q26 0 29 -13q-3 -14 -17.5 -59t-22.5 -52q-57 -51 -206 -51q-131 0 -209 75.5t-78 190.5q0 82 34.5 159t89 130.5t122.5 86t134 32.5z" />
    <glyph glyph-name="cdotaccent" unicode="&#x10b;" horiz-adv-x="371" 
d="M192 614q6 31 30 52t53 21t45 -21t10 -52t-30.5 -52.5t-52.5 -21.5q-29 0 -45 21.5t-10 52.5zM252 449q72 0 112 -45q7 -21 7 -33q0 -25 -13 -43t-34 -18q-17 0 -28 13t-15.5 29t-14.5 29t-25 13q-27 0 -52 -36t-39.5 -88t-14.5 -101q0 -101 64 -101q30 0 60 21.5
t41 36.5q2 0 10.5 -10t8.5 -14q-12 -28 -65 -68t-100 -40q-74 0 -109.5 43.5t-35.5 118.5q0 74 34 142.5t90.5 109.5t118.5 41z" />
    <glyph glyph-name="Ccaron" unicode="&#x10c;" horiz-adv-x="587" 
d="M419 807q28 17 71.5 39.5t51.5 22.5q11 0 6 -19q-24 -16 -84 -70l-46 -43q-11 -9 -16 -9q-6 0 -10 9q-11 21 -31 47q-34 45 -55 66q5 19 13 19t43.5 -22.5t56.5 -39.5zM391 667q102 0 207 -29q0 -12 -4.5 -76.5t-5.5 -71.5q-2 -7 -10.5 -11t-17.5 -4q-2 0 -14 3
q-1 14 -5 29t-15 34.5t-28 34t-46.5 25t-66.5 10.5q-64 0 -117 -50t-82.5 -133.5t-29.5 -180.5q0 -90 37.5 -145t111.5 -55q42 0 83 10t64 26q17 12 32 33.5t22.5 36.5t8.5 15q26 0 29 -13q-3 -14 -17.5 -59t-22.5 -52q-57 -51 -206 -51q-131 0 -209 75.5t-78 190.5
q0 82 34.5 159t89 130.5t122.5 86t134 32.5z" />
    <glyph glyph-name="ccaron" unicode="&#x10d;" horiz-adv-x="371" 
d="M281 604q26 20 67.5 47t48.5 27q9 0 4 -23q-28 -24 -81 -83q-12 -13 -26.5 -30.5t-17.5 -21.5q-10 -10 -13 -10q-7 0 -10 10q-13 34 -25 57q-26 49 -47 78q5 23 13 23q7 0 38.5 -27.5t48.5 -46.5zM252 449q72 0 112 -45q7 -21 7 -33q0 -25 -13 -43t-34 -18q-17 0 -28 13
t-15.5 29t-14.5 29t-25 13q-27 0 -52 -36t-39.5 -88t-14.5 -101q0 -101 64 -101q30 0 60 21.5t41 36.5q2 0 10.5 -10t8.5 -14q-12 -28 -65 -68t-100 -40q-74 0 -109.5 43.5t-35.5 118.5q0 74 34 142.5t90.5 109.5t118.5 41z" />
    <glyph glyph-name="Dcaron" unicode="&#x10e;" horiz-adv-x="678" 
d="M407 807q28 17 71.5 39.5t51.5 22.5q11 0 6 -19q-24 -16 -84 -70l-46 -43q-11 -9 -16 -9q-6 0 -10 9q-11 21 -31 47q-34 45 -55 66q5 19 13 19t43.5 -22.5t56.5 -39.5zM107 2q-34 0 -71 -3t-48 -3q-2 2 -2 9q0 6 1.5 12t3.5 9.5t3 3.5q10 0 32 8t27 17q12 21 25 88
l73 378q11 64 10 78q-1 8 -21.5 18.5t-29.5 10.5q-2 0 -2 7q0 20 7 27q69 -3 131 -3h162q67 0 119 -20.5t83.5 -56t47.5 -80.5t16 -98q0 -56 -17 -113.5t-51.5 -110t-81 -93.5t-110.5 -65.5t-136 -24.5q-18 0 -77.5 2.5t-93.5 2.5zM402 603q-82 0 -96 -16q-17 -19 -24 -63
l-75 -388q-13 -65 -6 -70q17 -13 103 -13q78 0 134.5 72t84.5 215q11 52 8 99.5t-16 84t-42.5 58t-70.5 21.5z" />
    <glyph glyph-name="dcaron" unicode="&#x10f;" horiz-adv-x="465" 
d="M521 490q0 2 15 14.5t30 31.5t15 37q0 9 -10.5 25t-10.5 32q0 65 94 65q3 -9 3 -27q0 -24 -4 -44q-8 -45 -43 -90.5t-69 -65.5h-2q-4 0 -11 8.5t-7 13.5zM297 448h5l19 93q9 54 9 62q0 22 -49 22q-3 0 -3 8q0 14 9 23q25 0 82.5 14t82.5 25q10 -5 10 -22q0 -6 -3.5 -23.5
t-8 -37.5t-5.5 -26l-89 -458q-2 -6 -2 -23q0 -24 10 -24q15 0 40 21t33 32q3 0 11 -10t8 -14q-10 -27 -70.5 -72.5t-103.5 -45.5q-22 0 -37.5 14.5t-15.5 39.5q0 8 1 15q1 10 2 15q-48 -84 -110 -84q-54 0 -85.5 41t-31.5 107q0 50 22 102.5t60 96.5t93.5 74.5t116.5 34.5z
M286 360q2 13 -6 19t-18 6q-29 0 -56 -30.5t-43 -73.5t-25.5 -85.5t-9.5 -71.5q0 -56 31 -56q33 0 64 67.5t49 152.5z" />
    <glyph glyph-name="Dcroat" unicode="&#x110;" horiz-adv-x="689" 
d="M384 351q7 0 6 -7q-6 -25 -21 -59q-1 -3 -3 -4.5t-4 -1.5h-1h-122l-27 -143q-13 -65 -6 -70q17 -13 103 -13q78 0 135.5 72t85.5 215q21 110 -10 186.5t-111 76.5h-4q-80 0 -94 -16q-17 -19 -24 -63l-34 -173h131zM123 351l33 170q11 61 10 78q-1 8 -20.5 18.5
t-28.5 10.5q-2 0 0 15q2 16 7 21q65 -5 127 -5h162q63 0 112.5 -18t80 -49.5t50 -73t21 -87.5t-5.5 -95q-28 -145 -133 -242t-255 -97q-18 0 -71 2.5t-87 2.5l-132 -6q-3 7 -1 17q5 19 8 19q11 0 33 7t27 15q11 26 21 81l28 144h-57l-3 10q10 39 18 57q1 3 3 4t4 1h1h48z
" />
    <glyph glyph-name="dcroat" unicode="&#x111;" horiz-adv-x="527" 
d="M284 391q-27 0 -58 -40t-51.5 -102.5t-20.5 -122.5q0 -57 24 -57q40 0 76.5 59t51.5 119l12 44q6 21 6 40q0 60 -40 60zM294 445q21 0 43 -11q2 -2 4 -2t2 4q11 51 11 53q0 5 -3 5h-100l-3 10q0 1 1 7t2 12.5t4 16t7 17.5q1 3 3 4t3 1h1h96q3 0 3 5q5 23 5 36
q0 22 -49 22q-3 0 -3 8q0 7 3.5 15t5.5 8q25 0 90.5 15.5t82.5 23.5h5q3 0 6 -6.5t3 -10.5q-19 -38 -29 -94q-3 -13 -3 -17q0 -5 3 -5h60q6 0 5 -7q0 -2 -1.5 -12.5t-4 -21.5t-6.5 -21q-1 -3 -3 -4.5t-3 -1.5h-1h-60q-3 0 -5 -5l-71 -360q-3 -15 -3 -21q0 -26 20 -26
q7 0 19.5 14t21.5 28.5t10 14.5q6 0 17 -9.5t14 -19.5q-15 -37 -54 -78t-92 -41q-47 0 -68 57q-4 14 -4 18t-2 4l-2 -4q-16 -20 -63 -47t-86 -27q-49 0 -79 32t-30 84q0 72 38.5 150t104 132t134.5 55z" />
    <glyph glyph-name="Emacron" unicode="&#x112;" horiz-adv-x="542" 
d="M203 739q13 58 25 58h267q7 0 4 -10q-5 -22 -11 -36.5t-10 -18.5l-4 -4h-268h-1.5t-2 2.5t0.5 8.5zM107 2q-34 0 -71 -3t-48 -3q-2 2 -2 9q0 6 1.5 12t3.5 9.5t3 3.5q10 0 32 8t27 17q12 21 25 88l73 378q11 64 10 78q-1 8 -21.5 18.5t-29.5 10.5q-2 0 -2 7q0 20 7 27
q80 -3 131 -3q53 0 150 2.5t151 2.5q-2 -30 -2 -91v-57q-5 -5 -22 -5q-11 0 -12 7q-11 38 -43.5 65t-68.5 27h-35q-32 0 -46 -2.5t-17 -10.5q-12 -33 -20 -78l-30 -154q-1 -3 10 -4.5t29 -1.5h79q22 0 30 8.5t28 53.5q3 7 16 7q16 0 19 -5l-36 -189q-4 -4 -21 -4
q-11 0 -13 8q-2 45 -11 54q-12 12 -75 12q-67 0 -69 -9l-29 -154q-8 -40 -8 -59q0 -18 9.5 -23t51.5 -5h24q58 0 110 26q17 9 42 34t42 56q3 6 14 6q23 0 27 -6q-4 -8 -22 -41.5t-26 -50t-19.5 -41t-16.5 -39.5q-53 0 -171 2t-158 2z" />
    <glyph glyph-name="emacron" unicode="&#x113;" horiz-adv-x="393" 
d="M120 521q13 58 25 58h231q7 0 4 -10q-7 -31 -19 -51l-6 -8h-232h-1.5t-2 2.5t0.5 8.5zM251 449q52 0 90 -25t38 -68q0 -37 -30 -72t-71 -57t-79.5 -35t-59.5 -13q-4 0 -4 -10q0 -59 17.5 -80t46.5 -21q30 0 60 21.5t41 36.5q2 0 10.5 -10t8.5 -14q-12 -28 -65 -68
t-100 -40q-72 0 -108.5 42.5t-36.5 120.5q0 72 33.5 140t90 110t118.5 42zM241 395q-26 0 -60.5 -54.5t-34.5 -107.5q0 -4 4 -4q47 0 81 43t34 84q0 39 -24 39z" />
    <glyph glyph-name="Ebreve" unicode="&#x114;" horiz-adv-x="542" 
d="M359 788q20 0 45 14.5t40 31.5q2 4 5 2q4 -2 11 -13t5 -16q-1 -1 -2 -3.5t-2 -3.5q-54 -72 -114 -72t-86 72q-1 2 -1 7t11 16t16 13q2 1 4 -2q8 -17 28 -31.5t40 -14.5zM107 2q-34 0 -71 -3t-48 -3q-2 2 -2 9q0 6 1.5 12t3.5 9.5t3 3.5q10 0 32 8t27 17q12 21 25 88
l73 378q11 64 10 78q-1 8 -21.5 18.5t-29.5 10.5q-2 0 -2 7q0 20 7 27q80 -3 131 -3q53 0 150 2.5t151 2.5q-2 -30 -2 -91v-57q-5 -5 -22 -5q-11 0 -12 7q-11 38 -43.5 65t-68.5 27h-35q-32 0 -46 -2.5t-17 -10.5q-12 -33 -20 -78l-30 -154q-1 -3 10 -4.5t29 -1.5h79
q22 0 30 8.5t28 53.5q3 7 16 7q16 0 19 -5l-36 -189q-4 -4 -21 -4q-11 0 -13 8q-2 45 -11 54q-12 12 -75 12q-67 0 -69 -9l-29 -154q-8 -40 -8 -59q0 -18 9.5 -23t51.5 -5h24q58 0 110 26q17 9 42 34t42 56q3 6 14 6q23 0 27 -6q-4 -8 -22 -41.5t-26 -50t-19.5 -41
t-16.5 -39.5q-53 0 -171 2t-158 2z" />
    <glyph glyph-name="ebreve" unicode="&#x115;" horiz-adv-x="393" 
d="M251 570q22 0 45 15.5t36 42.5q2 3 4 3q5 0 15 -8.5t9 -13.5q0 -1 -3 -7q-19 -41 -50.5 -66.5t-67.5 -25.5q-37 0 -62 26t-28 66v7q1 5 14.5 13.5t18.5 8.5q3 0 3 -3q2 -27 22.5 -42.5t43.5 -15.5zM251 449q52 0 90 -25t38 -68q0 -37 -30 -72t-71 -57t-79.5 -35
t-59.5 -13q-4 0 -4 -10q0 -59 17.5 -80t46.5 -21q30 0 60 21.5t41 36.5q2 0 10.5 -10t8.5 -14q-12 -28 -65 -68t-100 -40q-72 0 -108.5 42.5t-36.5 120.5q0 72 33.5 140t90 110t118.5 42zM241 395q-26 0 -60.5 -54.5t-34.5 -107.5q0 -4 4 -4q47 0 81 43t34 84q0 39 -24 39z
" />
    <glyph glyph-name="Edotaccent" unicode="&#x116;" horiz-adv-x="542" 
d="M309 802q6 31 30.5 52.5t52.5 21.5q29 0 45 -21.5t10 -52.5t-30.5 -52.5t-53.5 -21.5q-28 0 -44 21.5t-10 52.5zM107 2q-34 0 -71 -3t-48 -3q-2 2 -2 9q0 6 1.5 12t3.5 9.5t3 3.5q10 0 32 8t27 17q12 21 25 88l73 378q11 64 10 78q-1 8 -21.5 18.5t-29.5 10.5q-2 0 -2 7
q0 20 7 27q80 -3 131 -3q53 0 150 2.5t151 2.5q-2 -30 -2 -91v-57q-5 -5 -22 -5q-11 0 -12 7q-11 38 -43.5 65t-68.5 27h-35q-32 0 -46 -2.5t-17 -10.5q-12 -33 -20 -78l-30 -154q-1 -3 10 -4.5t29 -1.5h79q22 0 30 8.5t28 53.5q3 7 16 7q16 0 19 -5l-36 -189q-4 -4 -21 -4
q-11 0 -13 8q-2 45 -11 54q-12 12 -75 12q-67 0 -69 -9l-29 -154q-8 -40 -8 -59q0 -18 9.5 -23t51.5 -5h24q58 0 110 26q17 9 42 34t42 56q3 6 14 6q23 0 27 -6q-4 -8 -22 -41.5t-26 -50t-19.5 -41t-16.5 -39.5q-53 0 -171 2t-158 2z" />
    <glyph glyph-name="edotaccent" unicode="&#x117;" horiz-adv-x="393" 
d="M192 614q6 31 30 52t53 21t45 -21t10 -52t-30.5 -52.5t-52.5 -21.5q-29 0 -45 21.5t-10 52.5zM251 449q52 0 90 -25t38 -68q0 -37 -30 -72t-71 -57t-79.5 -35t-59.5 -13q-4 0 -4 -10q0 -59 17.5 -80t46.5 -21q30 0 60 21.5t41 36.5q2 0 10.5 -10t8.5 -14q-12 -28 -65 -68
t-100 -40q-72 0 -108.5 42.5t-36.5 120.5q0 72 33.5 140t90 110t118.5 42zM241 395q-26 0 -60.5 -54.5t-34.5 -107.5q0 -4 4 -4q47 0 81 43t34 84q0 39 -24 39z" />
    <glyph glyph-name="Eogonek" unicode="&#x118;" horiz-adv-x="578" 
d="M443 -2q-54 0 -99 -39t-45 -79q0 -9 7 -16.5t21 -7.5q21 0 38.5 7t27.5 13.5t11 6.5q5 -1 1.5 -16.5t-6.5 -18.5q-22 -25 -56 -44.5t-63 -19.5q-23 0 -40 17t-17 43q0 37 40 86.5t74 68.5q-18 0 -103.5 1.5t-119.5 1.5t-71 -3t-48 -3q-2 2 -2 9q0 6 1.5 12t3.5 9.5t3 3.5
q10 0 32 8t27 17q12 21 25 88l73 378q11 64 10 78q-1 8 -21 18.5t-30 10.5q-2 0 -2 7q0 20 7 27q80 -3 131 -3q53 0 150 2.5t151 2.5q-2 -30 -2 -91v-57q-5 -5 -22 -5q-11 0 -12 7q-11 38 -43.5 65t-68.5 27h-35q-59 0 -63 -13q-12 -33 -20 -78l-30 -154q0 -2 3 -3t9 -2
t12.5 -1h14.5h79q22 0 30 8.5t28 53.5q3 7 16 7q16 0 19 -5l-36 -189q-4 -4 -21 -4q-11 0 -13 8q-2 45 -11 54q-12 12 -75 12q-67 0 -69 -9l-29 -154q-8 -40 -8 -59q0 -18 9.5 -23t51.5 -5h24q58 0 110 26q17 9 42 34t42 56q3 6 14 6q23 0 27 -6q-74 -143 -84 -172z" />
    <glyph glyph-name="eogonek" unicode="&#x119;" horiz-adv-x="398" 
d="M243 394q-30 0 -68 -72q-8 -15 -16.5 -45t-8.5 -41q0 -4 4 -4q47 0 80 41.5t33 82.5q0 38 -24 38zM266 449q48 0 81.5 -26t33.5 -69q0 -49 -48 -91.5t-100.5 -63t-83.5 -20.5q-4 0 -4 -10q0 -58 24.5 -84.5t54.5 -26.5q18 0 38 16.5t34 33t16 16.5q5 0 12.5 -9t7.5 -17
t-24.5 -35t-51.5 -45q-39 -27 -71.5 -64.5t-32.5 -71.5q0 -26 28 -26q21 0 38.5 7t27.5 13.5t11 6.5q5 -1 1.5 -16.5t-6.5 -18.5q-22 -25 -56 -44.5t-63 -19.5q-23 0 -40 16.5t-17 42.5q0 32 27 75.5t63 74.5q-67 4 -105 55.5t-38 121.5q0 121 75.5 200t167.5 79z" />
    <glyph glyph-name="Ecaron" unicode="&#x11a;" horiz-adv-x="542" 
d="M375 807q28 17 71.5 39.5t51.5 22.5q11 0 6 -19q-24 -16 -84 -70l-46 -43q-11 -9 -16 -9q-6 0 -10 9q-11 21 -31 47q-34 45 -55 66q5 19 13 19t43.5 -22.5t56.5 -39.5zM107 2q-34 0 -71 -3t-48 -3q-2 2 -2 9q0 6 1.5 12t3.5 9.5t3 3.5q10 0 32 8t27 17q12 21 25 88
l73 378q11 64 10 78q-1 8 -21.5 18.5t-29.5 10.5q-2 0 -2 7q0 20 7 27q80 -3 131 -3q53 0 150 2.5t151 2.5q-2 -30 -2 -91v-57q-5 -5 -22 -5q-11 0 -12 7q-11 38 -43.5 65t-68.5 27h-35q-32 0 -46 -2.5t-17 -10.5q-12 -33 -20 -78l-30 -154q-1 -3 10 -4.5t29 -1.5h79
q22 0 30 8.5t28 53.5q3 7 16 7q16 0 19 -5l-36 -189q-4 -4 -21 -4q-11 0 -13 8q-2 45 -11 54q-12 12 -75 12q-67 0 -69 -9l-29 -154q-8 -40 -8 -59q0 -18 9.5 -23t51.5 -5h24q58 0 110 26q17 9 42 34t42 56q3 6 14 6q23 0 27 -6q-4 -8 -22 -41.5t-26 -50t-19.5 -41
t-16.5 -39.5q-53 0 -171 2t-158 2z" />
    <glyph glyph-name="ecaron" unicode="&#x11b;" horiz-adv-x="393" 
d="M260 604q26 20 67.5 47t48.5 27q9 0 4 -23q-28 -24 -81 -83q-12 -13 -26.5 -30.5t-17.5 -21.5q-10 -10 -13 -10q-7 0 -10 10q-13 34 -25 57q-26 49 -47 78q5 23 13 23q7 0 38.5 -27.5t48.5 -46.5zM251 449q52 0 90 -25t38 -68q0 -37 -30 -72t-71 -57t-79.5 -35t-59.5 -13
q-4 0 -4 -10q0 -59 17.5 -80t46.5 -21q30 0 60 21.5t41 36.5q2 0 10.5 -10t8.5 -14q-12 -28 -65 -68t-100 -40q-72 0 -108.5 42.5t-36.5 120.5q0 72 33.5 140t90 110t118.5 42zM241 395q-26 0 -60.5 -54.5t-34.5 -107.5q0 -4 4 -4q47 0 81 43t34 84q0 39 -24 39z" />
    <glyph glyph-name="Gcircumflex" unicode="&#x11c;" horiz-adv-x="616" 
d="M528 728q-8 0 -48.5 22.5t-63.5 39.5q-31 -17 -81 -39.5t-58 -22.5q-12 0 -7 19q32 19 92 65q35 28 55 48q10 9 16 9q4 0 13 -9l13.5 -18l19.5 -26q40 -48 64 -69q-5 -19 -15 -19zM490 34q-84 -42 -191 -42q-127 0 -207.5 75t-80.5 187q0 85 34.5 163t89 132t122.5 86
t134 32q102 0 207 -29q0 -16 -4 -78t-6 -70q-3 -15 -29 -15q-4 0 -13 3q-1 14 -5 29t-15 34.5t-28 34t-46.5 25t-66.5 10.5q-56 0 -102 -36t-73 -92t-41 -117t-14 -119q0 -86 39 -143t117 -57q43 0 86 12l27 129q6 29 6 51q0 14 -28.5 21t-42.5 7q-2 0 -2 7q0 22 7 27
q141 -6 150 -6q17 0 131 6q0 -34 -6 -34t-27.5 -6t-30.5 -10q-17 -10 -21 -28l-24 -111q-6 -24 -6 -40q0 -7 -12.5 -18.5t-27.5 -19.5z" />
    <glyph glyph-name="gcircumflex" unicode="&#x11d;" horiz-adv-x="465" 
d="M385 510q-7 0 -38.5 27.5t-48.5 46.5q-26 -20 -67.5 -47t-48.5 -27q-8 0 -3 23q20 17 76 78q22 25 47 57q7 10 15 10q4 0 9 -10q0 -1 8.5 -19.5t15.5 -32.5q30 -58 48 -83q-5 -23 -13 -23zM285 -97q0 17 -51 32.5t-92 19.5q-58 -17 -58 -54q0 -31 22.5 -50.5t75.5 -19.5
q56 0 79.5 21t23.5 51zM260 388q-24 0 -41 -29t-24.5 -67t-7.5 -75q0 -51 38 -51q20 0 35.5 17.5t23 45t11 53.5t3.5 49q0 26 -10 41.5t-28 15.5zM282 449q25 0 61.5 -13.5t71.5 -13.5h53q9 0 9 -13q0 -20 -10 -38h-51q-6 0 -6 -6q0 -1 2 -19t2 -34q0 -107 -94 -168
q-20 -13 -58.5 -27.5t-62.5 -26.5t-24 -24q0 -6 34 -13t75.5 -15t75.5 -30.5t34 -55.5q0 -26 -12.5 -53.5t-39 -54.5t-76.5 -44.5t-116 -17.5q-70 0 -118 30t-48 73q0 19 11.5 35t31 26.5t37 16.5t35.5 10q-17 5 -32 16q-25 18 -25 43q0 18 35.5 41t81.5 43q-86 23 -86 131
q0 80 62.5 141t146.5 61z" />
    <glyph glyph-name="Gbreve" unicode="&#x11e;" horiz-adv-x="616" 
d="M405 788q20 0 45 14.5t40 31.5q2 4 5 2q4 -2 11 -13t5 -16q-1 -1 -2 -3.5t-2 -3.5q-54 -72 -114 -72t-86 72q-1 2 -1 7t11 16t16 13q2 1 4 -2q8 -17 28 -31.5t40 -14.5zM490 34q-84 -42 -191 -42q-127 0 -207.5 75t-80.5 187q0 85 34.5 163t89 132t122.5 86t134 32
q102 0 207 -29q0 -16 -4 -78t-6 -70q-3 -15 -29 -15q-4 0 -13 3q-1 14 -5 29t-15 34.5t-28 34t-46.5 25t-66.5 10.5q-56 0 -102 -36t-73 -92t-41 -117t-14 -119q0 -86 39 -143t117 -57q43 0 86 12l27 129q6 29 6 51q0 14 -28.5 21t-42.5 7q-2 0 -2 7q0 22 7 27
q141 -6 150 -6q17 0 131 6q0 -34 -6 -34t-27.5 -6t-30.5 -10q-17 -10 -21 -28l-24 -111q-6 -24 -6 -40q0 -7 -12.5 -18.5t-27.5 -19.5z" />
    <glyph glyph-name="gbreve" unicode="&#x11f;" horiz-adv-x="465" 
d="M300 570q22 0 45 15.5t36 42.5q2 3 4 3q5 0 15 -8.5t9 -13.5q0 -1 -3 -7q-19 -41 -50.5 -66.5t-67.5 -25.5q-37 0 -62 26t-28 66v7q1 5 14.5 13.5t18.5 8.5q3 0 3 -3q2 -27 22.5 -42.5t43.5 -15.5zM285 -97q0 17 -51 32.5t-92 19.5q-58 -17 -58 -54q0 -31 22.5 -50.5
t75.5 -19.5q56 0 79.5 21t23.5 51zM260 388q-24 0 -41 -29t-24.5 -67t-7.5 -75q0 -51 38 -51q20 0 35.5 17.5t23 45t11 53.5t3.5 49q0 26 -10 41.5t-28 15.5zM282 449q25 0 61.5 -13.5t71.5 -13.5h53q9 0 9 -13q0 -20 -10 -38h-51q-6 0 -6 -6q0 -1 2 -19t2 -34
q0 -107 -94 -168q-20 -13 -58.5 -27.5t-62.5 -26.5t-24 -24q0 -6 34 -13t75.5 -15t75.5 -30.5t34 -55.5q0 -26 -12.5 -53.5t-39 -54.5t-76.5 -44.5t-116 -17.5q-70 0 -118 30t-48 73q0 19 11.5 35t31 26.5t37 16.5t35.5 10q-17 5 -32 16q-25 18 -25 43q0 18 35.5 41t81.5 43
q-86 23 -86 131q0 80 62.5 141t146.5 61z" />
    <glyph glyph-name="Gdotaccent" unicode="&#x120;" horiz-adv-x="616" 
d="M348 802q6 31 30.5 52.5t52.5 21.5q29 0 45 -21.5t10 -52.5t-30.5 -52.5t-53.5 -21.5q-28 0 -44 21.5t-10 52.5zM490 34q-84 -42 -191 -42q-127 0 -207.5 75t-80.5 187q0 85 34.5 163t89 132t122.5 86t134 32q102 0 207 -29q0 -16 -4 -78t-6 -70q-3 -15 -29 -15
q-4 0 -13 3q-1 14 -5 29t-15 34.5t-28 34t-46.5 25t-66.5 10.5q-56 0 -102 -36t-73 -92t-41 -117t-14 -119q0 -86 39 -143t117 -57q43 0 86 12l27 129q6 29 6 51q0 14 -28.5 21t-42.5 7q-2 0 -2 7q0 22 7 27q141 -6 150 -6q17 0 131 6q0 -34 -6 -34t-27.5 -6t-30.5 -10
q-17 -10 -21 -28l-24 -111q-6 -24 -6 -40q0 -7 -12.5 -18.5t-27.5 -19.5z" />
    <glyph glyph-name="gdotaccent" unicode="&#x121;" horiz-adv-x="465" 
d="M239 614q6 31 30 52t53 21t45 -21t10 -52t-30.5 -52.5t-52.5 -21.5q-29 0 -45 21.5t-10 52.5zM285 -97q0 17 -51 32.5t-92 19.5q-58 -17 -58 -54q0 -31 22.5 -50.5t75.5 -19.5q56 0 79.5 21t23.5 51zM260 388q-24 0 -41 -29t-24.5 -67t-7.5 -75q0 -51 38 -51
q20 0 35.5 17.5t23 45t11 53.5t3.5 49q0 26 -10 41.5t-28 15.5zM282 449q25 0 61.5 -13.5t71.5 -13.5h53q9 0 9 -13q0 -20 -10 -38h-51q-6 0 -6 -6q0 -1 2 -19t2 -34q0 -107 -94 -168q-20 -13 -58.5 -27.5t-62.5 -26.5t-24 -24q0 -6 34 -13t75.5 -15t75.5 -30.5t34 -55.5
q0 -26 -12.5 -53.5t-39 -54.5t-76.5 -44.5t-116 -17.5q-70 0 -118 30t-48 73q0 19 11.5 35t31 26.5t37 16.5t35.5 10q-17 5 -32 16q-25 18 -25 43q0 18 35.5 41t81.5 43q-86 23 -86 131q0 80 62.5 141t146.5 61z" />
    <glyph glyph-name="Gcommaaccent" unicode="&#x122;" horiz-adv-x="616" 
d="M194 -101q0 24 35.5 34.5t78.5 10.5q12 -13 12 -47q0 -33 -46 -70t-84 -45h-3q-6 0 -13.5 4.5t-7.5 9.5q0 1 14.5 9t28.5 20.5t14 23.5q0 10 -14.5 23t-14.5 27zM490 34q-84 -42 -191 -42q-127 0 -207.5 75t-80.5 187q0 85 34.5 163t89 132t122.5 86t134 32
q102 0 207 -29q0 -16 -4 -78t-6 -70q-3 -15 -29 -15q-4 0 -13 3q-1 14 -5 29t-15 34.5t-28 34t-46.5 25t-66.5 10.5q-56 0 -102 -36t-73 -92t-41 -117t-14 -119q0 -86 39 -143t117 -57q43 0 86 12l27 129q6 29 6 51q0 14 -28.5 21t-42.5 7q-2 0 -2 7q0 22 7 27
q141 -6 150 -6q17 0 131 6q0 -34 -6 -34t-27.5 -6t-30.5 -10q-17 -10 -21 -28l-24 -111q-6 -24 -6 -40q0 -7 -12.5 -18.5t-27.5 -19.5z" />
    <glyph glyph-name="gcommaaccent" unicode="&#x123;" horiz-adv-x="465" 
d="M372 558q0 -24 -35.5 -34.5t-78.5 -10.5q-12 13 -12 47q0 33 46 70t84 45h3q6 0 13.5 -4.5t7.5 -9.5q0 -1 -14.5 -9t-28.5 -20.5t-14 -23.5q0 -10 14.5 -23t14.5 -27zM285 -97q0 17 -51 32.5t-92 19.5q-58 -17 -58 -54q0 -31 22.5 -50.5t75.5 -19.5q56 0 79.5 21t23.5 51
zM260 388q-24 0 -41 -29t-24.5 -67t-7.5 -75q0 -51 38 -51q20 0 35.5 17.5t23 45t11 53.5t3.5 49q0 26 -10 41.5t-28 15.5zM282 449q25 0 61.5 -13.5t71.5 -13.5h53q9 0 9 -13q0 -20 -10 -38h-51q-6 0 -6 -6q0 -1 2 -19t2 -34q0 -107 -94 -168q-20 -13 -58.5 -27.5
t-62.5 -26.5t-24 -24q0 -6 34 -13t75.5 -15t75.5 -30.5t34 -55.5q0 -26 -12.5 -53.5t-39 -54.5t-76.5 -44.5t-116 -17.5q-70 0 -118 30t-48 73q0 19 11.5 35t31 26.5t37 16.5t35.5 10q-17 5 -32 16q-25 18 -25 43q0 18 35.5 41t81.5 43q-86 23 -86 131q0 80 62.5 141
t146.5 61z" />
    <glyph glyph-name="Hcircumflex" unicode="&#x124;" horiz-adv-x="714" 
d="M544 728q-8 0 -48.5 22.5t-63.5 39.5q-31 -17 -81 -39.5t-58 -22.5q-12 0 -7 19q32 19 92 65q35 28 55 48q10 9 16 9q4 0 13 -9l13.5 -18l19.5 -26q40 -48 64 -69q-5 -19 -15 -19zM365 369q111 0 112 6l28 148q9 54 9 77q0 28 -48 28q-2 0 -2 6q0 20 8 28q126 -6 132 -6
q7 0 121 6v-6q0 -10 -2 -17t-4 -9t-3 -2q-7 0 -30 -8.5t-27 -15.5q-12 -22 -24 -85l-74 -380q-11 -57 -11 -80q0 -10 20 -19.5t29 -9.5q2 0 2 -5q0 -17 -8 -29q-2 0 -50.5 3.5t-72.5 3.5q-25 0 -71.5 -3t-57.5 -4q-1 1 -1 6q0 8 1.5 18t3.5 10q11 0 33 7t27 16q9 16 24 82
l34 169v1q0 6 -110 6q-112 0 -114 -8l-32 -164q-10 -52 -10 -80q0 -10 19.5 -19.5t28.5 -9.5q2 0 2 -5q0 -19 -7 -29q-12 1 -38 3t-48.5 3t-40.5 1q-25 0 -69.5 -3t-56.5 -4q-1 1 -1 6q0 7 2 17.5t4 10.5q11 0 32.5 6.5t26.5 15.5q16 26 25 83l75 388q9 48 9 73
q0 15 -18.5 23.5t-29.5 8.5q-1 0 -1 4q0 24 6 30q14 -1 38.5 -2.5t44.5 -2.5t39 -1q18 0 132 6v-5q0 -8 -2.5 -18.5t-5.5 -10.5q-8 0 -31.5 -8.5t-27.5 -15.5q-6 -10 -14 -42t-10 -43l-27 -141v-2q0 -1 1 -2t5 -2t11.5 -1.5t20 -1t30.5 -0.5h44z" />
    <glyph glyph-name="hcircumflex" unicode="&#x125;" horiz-adv-x="469" 
d="M318 728q-8 0 -48.5 22.5t-63.5 39.5q-31 -17 -81 -39.5t-58 -22.5q-12 0 -7 19q32 19 92 65q35 28 55 48q10 9 16 9q4 0 13 -9l13.5 -18l19.5 -26q40 -48 64 -69q-5 -19 -15 -19zM317 449q44 0 65 -31t21 -78q0 -24 -16 -107l-20 -105q-2 -6 -2 -23q0 -24 10 -24
q14 0 39 21t34 32q2 0 10.5 -10t8.5 -14q-11 -27 -71.5 -72.5t-102.5 -45.5q-23 0 -38 14.5t-15 42.5q0 29 10 74l23 119q0 4 3 17t5 24.5t2 16.5q0 21 -6.5 31t-22.5 10q-25 0 -65.5 -85t-53.5 -151l-21 -105q-20 -6 -56 -6q-35 0 -61 6q115 594 115 603q0 22 -49 22
q-3 0 -3 8q0 14 9 23q24 0 81.5 14t83.5 25q10 -5 10 -22q0 -6 -3.5 -24t-8 -38.5t-5.5 -26.5q-54 -277 -54 -280q25 52 67.5 98.5t76.5 46.5z" />
    <glyph glyph-name="Hbar" unicode="&#x126;" horiz-adv-x="729" 
d="M390 468l-112 -1l-21 -108v-2q0 -7 112 -7q111 0 112 6l22 111q-69 1 -113 1zM247 656q18 0 132 6v-5q0 -8 -2.5 -18.5t-5.5 -10.5q-8 0 -31.5 -8.5t-27.5 -15.5q-10 -18 -23 -81q66 -1 109 -1l114 1q10 63 10 77q0 28 -48 28q-2 0 -2 6q0 20 8 28q126 -6 132 -6
q7 0 121 6v-6q0 -28 -9 -28q-7 0 -30 -8.5t-27 -15.5q-11 -19 -23 -80l61 1h2.5t3.5 -1.5t1 -5.5q-9 -37 -21 -49l-11 -4l-47 1l-64 -327q-11 -57 -11 -80q0 -10 20 -19.5t29 -9.5q2 0 2 -5q0 -17 -8 -29q-2 0 -50.5 3.5t-72.5 3.5q-25 0 -71.5 -3t-57.5 -4q-1 1 -1 6
q0 28 5 28q11 0 33 7t27 16q9 16 24 82l30 150v1q0 6 -110 6q-112 0 -114 -8l-28 -145q-10 -52 -10 -80q0 -10 19.5 -19.5t28.5 -9.5q2 0 2 -5q0 -19 -7 -29q-12 1 -38 3t-48.5 3t-40.5 1q-25 0 -69.5 -3t-56.5 -4q-1 1 -1 6q0 7 2 17.5t4 10.5q11 0 32.5 6.5t26.5 15.5
q11 18 25 83l66 331l-62 -1h-2.5t-3.5 1.5t-1 5.5q10 39 20 49l11 4l47 -1q9 45 9 72q0 15 -18.5 23.5t-29.5 8.5q-1 0 -1 4q0 24 6 30q15 -1 39 -2.5t44 -2.5t39 -1z" />
    <glyph glyph-name="hbar" unicode="&#x127;" horiz-adv-x="498" 
d="M333 449q41 0 61.5 -32t20.5 -76q0 -32 -9 -77l-25 -136q-2 -6 -2 -16q0 -30 20 -30q7 0 19.5 14t21.5 28.5t10 14.5q6 0 17 -9.5t14 -19.5q-15 -37 -54 -78t-92 -41q-30 0 -52.5 22.5t-22.5 73.5q0 23 18 103t18 106q0 24 -6 34.5t-22 10.5q-26 0 -65 -82.5t-61 -185.5
l-15 -73q-20 -6 -53 -6q-42 0 -62 6q94 486 94 488q0 6 -2 6h-58l-3 10q0 1 1 7t2 12.5t4 16t7 17.5q1 3 3 4t3 1h1h54q4 0 4 5q4 28 4 36q0 22 -49 22q-3 0 -3 8q0 7 3.5 15t5.5 8q25 0 90.5 15.5t82.5 23.5h5q3 0 6 -6.5t3 -10.5q-17 -50 -27 -90q-4 -13 -5 -21q0 -5 3 -5
h102q6 0 5 -7q0 -2 -1.5 -12.5t-4 -21.5t-6.5 -21q-1 -3 -3 -4.5t-3 -1.5h-1h-102q-3 0 -5 -5q-34 -172 -34 -178l1 -1h1q44 85 83 116q30 23 60 23z" />
    <glyph glyph-name="Itilde" unicode="&#x128;" horiz-adv-x="360" 
d="M91 739q-7 0 -3 22q5 26 26 50q45 51 92 51q36 0 83 -34t82 -34q18 0 45.5 28.5t32.5 28.5q8 0 4 -22q-5 -25 -27 -51q-42 -50 -90 -50q-36 0 -82.5 34t-82.5 34q-17 0 -46.5 -28.5t-33.5 -28.5zM280 519l-73 -380q-10 -52 -10 -80q0 -10 19.5 -19.5t28.5 -9.5q2 0 2 -5
q0 -19 -7 -29q-4 0 -50 3.5t-70 3.5q-25 0 -74.5 -3.5t-58.5 -3.5q-1 1 -1 6q0 7 2 17.5t4 10.5q11 0 32.5 6.5t26.5 15.5q16 26 25 83l75 388q9 48 9 73q0 15 -18.5 23.5t-29.5 8.5q-1 0 -1 4q0 24 6 30q14 -1 38.5 -2.5t44.5 -2.5t39 -1q18 0 132 6v-5q0 -8 -2.5 -18.5
t-5.5 -10.5q-8 0 -31.5 -8.5t-27.5 -15.5q-6 -10 -14 -42t-10 -43z" />
    <glyph glyph-name="itilde" unicode="&#x129;" horiz-adv-x="314" 
d="M149 629q29 0 67.5 -30.5t67.5 -30.5q15 0 39 24.5t25 24.5q6 -3 6 -16q0 -17 -34.5 -54t-64.5 -37t-68 30t-68 30q-13 0 -38 -25.5t-28 -25.5q-5 0 -5 19q0 25 36 58t65 33zM163 449q30 0 52.5 -22.5t22.5 -73.5q0 -25 -40 -225q-2 -6 -2 -16q0 -30 20 -30q7 0 19.5 14
t21.5 28.5t10 14.5q6 0 17 -9.5t14 -19.5q-15 -37 -54 -78t-92 -41q-33 0 -54 24.5t-21 71.5q0 7 5 37l35 188q2 6 2 16q0 30 -20 30q-7 0 -19.5 -14t-21.5 -28.5t-10 -14.5q-6 0 -17 9.5t-14 19.5q15 37 54 78t92 41z" />
    <glyph glyph-name="Imacron" unicode="&#x12a;" horiz-adv-x="360" 
d="M116 739q13 58 25 58h267q7 0 4 -10q-5 -22 -11 -36.5t-10 -18.5l-4 -4h-268h-1.5t-2 2.5t0.5 8.5zM280 519l-73 -380q-10 -52 -10 -80q0 -10 19.5 -19.5t28.5 -9.5q2 0 2 -5q0 -19 -7 -29q-4 0 -50 3.5t-70 3.5q-25 0 -74.5 -3.5t-58.5 -3.5q-1 1 -1 6q0 7 2 17.5
t4 10.5q11 0 32.5 6.5t26.5 15.5q16 26 25 83l75 388q9 48 9 73q0 15 -18.5 23.5t-29.5 8.5q-1 0 -1 4q0 24 6 30q14 -1 38.5 -2.5t44.5 -2.5t39 -1q18 0 132 6v-5q0 -8 -2.5 -18.5t-5.5 -10.5q-8 0 -31.5 -8.5t-27.5 -15.5q-6 -10 -14 -42t-10 -43z" />
    <glyph glyph-name="imacron" unicode="&#x12b;" horiz-adv-x="314" 
d="M67 521q13 58 25 58h231q7 0 4 -10q-7 -31 -19 -51l-6 -8h-232h-1.5t-2 2.5t0.5 8.5zM163 449q30 0 52.5 -22.5t22.5 -73.5q0 -25 -40 -225q-2 -6 -2 -16q0 -30 20 -30q7 0 19.5 14t21.5 28.5t10 14.5q6 0 17 -9.5t14 -19.5q-15 -37 -54 -78t-92 -41q-33 0 -54 24.5
t-21 71.5q0 7 5 37l35 188q2 6 2 16q0 30 -20 30q-7 0 -19.5 -14t-21.5 -28.5t-10 -14.5q-6 0 -17 9.5t-14 19.5q15 37 54 78t92 41z" />
    <glyph glyph-name="Ibreve" unicode="&#x12c;" horiz-adv-x="360" 
d="M269 788q20 0 45 14.5t40 31.5q2 4 5 2q4 -2 11 -13t5 -16q-1 -1 -2 -3.5t-2 -3.5q-54 -72 -114 -72t-86 72q-1 2 -1 7t11 16t16 13q2 1 4 -2q8 -17 28 -31.5t40 -14.5zM280 519l-73 -380q-10 -52 -10 -80q0 -10 19.5 -19.5t28.5 -9.5q2 0 2 -5q0 -19 -7 -29
q-4 0 -50 3.5t-70 3.5q-25 0 -74.5 -3.5t-58.5 -3.5q-1 1 -1 6q0 7 2 17.5t4 10.5q11 0 32.5 6.5t26.5 15.5q16 26 25 83l75 388q9 48 9 73q0 15 -18.5 23.5t-29.5 8.5q-1 0 -1 4q0 24 6 30q14 -1 38.5 -2.5t44.5 -2.5t39 -1q18 0 132 6v-5q0 -8 -2.5 -18.5t-5.5 -10.5
q-8 0 -31.5 -8.5t-27.5 -15.5q-6 -10 -14 -42t-10 -43z" />
    <glyph glyph-name="ibreve" unicode="&#x12d;" horiz-adv-x="314" 
d="M206 570q22 0 45 15.5t36 42.5q2 3 4 3q5 0 15 -8.5t9 -13.5q0 -1 -3 -7q-19 -41 -50.5 -66.5t-67.5 -25.5q-37 0 -62 26t-28 66v7q1 5 14.5 13.5t18.5 8.5q3 0 3 -3q2 -27 22.5 -42.5t43.5 -15.5zM163 449q30 0 52.5 -22.5t22.5 -73.5q0 -25 -40 -225q-2 -6 -2 -16
q0 -30 20 -30q7 0 19.5 14t21.5 28.5t10 14.5q6 0 17 -9.5t14 -19.5q-15 -37 -54 -78t-92 -41q-33 0 -54 24.5t-21 71.5q0 7 5 37l35 188q2 6 2 16q0 30 -20 30q-7 0 -19.5 -14t-21.5 -28.5t-10 -14.5q-6 0 -17 9.5t-14 19.5q15 37 54 78t92 41z" />
    <glyph glyph-name="Iogonek" unicode="&#x12e;" horiz-adv-x="375" 
d="M288 519l-73 -380q-10 -52 -10 -80q0 -10 19.5 -19.5t28.5 -9.5q2 0 2 -5q0 -19 -7 -29q-24 2 -46 2q-38 0 -87 -41.5t-49 -76.5q0 -9 7 -16.5t21 -7.5q21 0 38.5 7t27.5 13.5t11 6.5q5 -1 1.5 -16.5t-6.5 -18.5q-22 -25 -56 -44.5t-63 -19.5q-23 0 -40 17t-17 43
q0 39 45 93.5t78 64.5q-10 0 -118 -6q-1 1 -1 6q0 7 2 17.5t4 10.5q11 0 32.5 6.5t26.5 15.5q16 26 25 83l75 388q9 48 9 73q0 15 -18.5 23.5t-29.5 8.5q-1 0 -1 4q0 24 6 30q15 -1 39 -2.5t44 -2.5t39 -1q18 0 132 6v-5q0 -8 -2.5 -18.5t-5.5 -10.5q-8 0 -31.5 -8.5
t-27.5 -15.5q-14 -25 -24 -85z" />
    <glyph glyph-name="iogonek" unicode="&#x12f;" horiz-adv-x="319" 
d="M125 -118q0 -26 28 -26q21 0 38.5 7t27.5 13.5t11 6.5q5 -1 1.5 -16.5t-6.5 -18.5q-22 -25 -56 -44.5t-63 -19.5q-23 0 -40 16.5t-17 42.5q0 60 81 151q-55 15 -55 93q0 7 5 37l35 188q2 6 2 16q0 30 -20 30q-7 0 -19.5 -14t-21.5 -28.5t-10 -14.5q-6 0 -17 9.5t-14 19.5
q15 37 54 78t92 41q30 0 52.5 -22.5t22.5 -73.5q0 -25 -40 -225q-2 -6 -2 -16q0 -30 20 -30q7 0 19.5 14t21.5 28.5t10 14.5q6 0 17 -9.5t14 -19.5q-7 -18 -27 -45.5t-46 -48.5q-98 -78 -98 -134zM221 687q25 0 41.5 -18t16.5 -44q0 -33 -23.5 -59t-54.5 -26q-25 0 -41.5 18
t-16.5 45q0 33 23.5 58.5t54.5 25.5z" />
    <glyph glyph-name="Idotaccent" unicode="&#x130;" horiz-adv-x="360" 
d="M202 802q6 31 30.5 52.5t52.5 21.5q29 0 45 -21.5t10 -52.5t-30.5 -52.5t-53.5 -21.5q-28 0 -44 21.5t-10 52.5zM280 519l-73 -380q-10 -52 -10 -80q0 -10 19.5 -19.5t28.5 -9.5q2 0 2 -5q0 -19 -7 -29q-4 0 -50 3.5t-70 3.5q-25 0 -74.5 -3.5t-58.5 -3.5q-1 1 -1 6
q0 7 2 17.5t4 10.5q11 0 32.5 6.5t26.5 15.5q16 26 25 83l75 388q9 48 9 73q0 15 -18.5 23.5t-29.5 8.5q-1 0 -1 4q0 24 6 30q14 -1 38.5 -2.5t44.5 -2.5t39 -1q18 0 132 6v-5q0 -8 -2.5 -18.5t-5.5 -10.5q-8 0 -31.5 -8.5t-27.5 -15.5q-6 -10 -14 -42t-10 -43z" />
    <glyph glyph-name="dotlessi" unicode="&#x131;" horiz-adv-x="314" 
d="M163 449q30 0 52.5 -22.5t22.5 -73.5q0 -25 -40 -225q-2 -6 -2 -16q0 -30 20 -30q7 0 19.5 14t21.5 28.5t10 14.5q6 0 17 -9.5t14 -19.5q-15 -37 -54 -78t-92 -41q-33 0 -54 24.5t-21 71.5q0 7 5 37l35 188q2 6 2 16q0 30 -20 30q-7 0 -19.5 -14t-21.5 -28.5t-10 -14.5
q-6 0 -17 9.5t-14 19.5q15 37 54 78t92 41z" />
    <glyph glyph-name="IJ" unicode="&#x132;" horiz-adv-x="603" 
d="M389 135l75 388q9 48 9 73q0 15 -18.5 23.5t-29.5 8.5q-1 0 -1 4q0 24 6 30q14 -1 38 -2.5t44.5 -2.5t39.5 -1q18 0 132 6v-5q0 -8 -2.5 -18.5t-5.5 -10.5q-8 0 -31.5 -8.5t-27.5 -15.5q-6 -10 -14 -42t-10 -43l-73 -376q-16 -82 -44.5 -145.5t-66.5 -104.5t-75.5 -66.5
t-83.5 -44.5q-14 6 -14 24q0 14 2 18q58 48 92.5 118.5t58.5 192.5zM280 519l-73 -380q-10 -52 -10 -80q0 -10 19.5 -19.5t28.5 -9.5q2 0 2 -5q0 -19 -7 -29q-4 0 -50 3.5t-70 3.5q-25 0 -74.5 -3.5t-58.5 -3.5q-1 1 -1 6q0 7 2 17.5t4 10.5q11 0 32.5 6.5t26.5 15.5
q16 26 25 83l75 388q9 48 9 73q0 15 -18.5 23.5t-29.5 8.5q-1 0 -1 4q0 24 6 30q14 -1 38.5 -2.5t44.5 -2.5t39 -1q18 0 132 6v-5q0 -8 -2.5 -18.5t-5.5 -10.5q-8 0 -31.5 -8.5t-27.5 -15.5q-6 -10 -14 -42t-10 -43z" />
    <glyph glyph-name="ij" unicode="&#x133;" horiz-adv-x="559" 
d="M485 449q23 0 38 -14.5t15 -42.5q0 -11 -4 -38.5t-6 -35.5l-38 -198q-27 -143 -86 -222q-28 -38 -82 -73t-82 -43q-3 0 -8 14.5t-5 22.5q67 59 94 113t49 168l41 213q2 10 2 23q0 24 -10 24q-14 0 -39 -21t-34 -32q-2 0 -10.5 10t-8.5 14q11 27 71.5 72.5t102.5 45.5z
M530 689q26 0 42 -18t16 -45q0 -33 -23 -59t-55 -26q-25 0 -41.5 18t-16.5 45q0 33 23.5 59t54.5 26zM175 449q23 0 38 -14.5t15 -42.5q0 -11 -4 -38.5t-6 -35.5l-37 -190q-2 -6 -2 -23q0 -24 10 -24q14 0 39.5 21t33.5 32q3 0 11 -10t8 -14q-11 -27 -71.5 -72.5
t-102.5 -45.5q-22 0 -37.5 14.5t-15.5 42.5q0 11 4 38.5t6 35.5l37 190q2 10 2 23q0 24 -10 24q-14 0 -39.5 -21t-33.5 -32q-2 0 -10.5 10t-8.5 14q11 27 71.5 72.5t102.5 45.5zM207 687q25 0 41.5 -18t16.5 -44q0 -33 -23.5 -59t-54.5 -26q-25 0 -41.5 18t-16.5 45
q0 33 23.5 58.5t54.5 25.5z" />
    <glyph glyph-name="Jcircumflex" unicode="&#x134;" horiz-adv-x="421" 
d="M458 728q-8 0 -48.5 22.5t-63.5 39.5q-31 -17 -81 -39.5t-58 -22.5q-12 0 -7 19q32 19 92 65q35 28 55 48q10 9 16 9q4 0 13 -9l13.5 -18l19.5 -26q40 -48 64 -69q-5 -19 -15 -19zM137 135l75 388q9 48 9 73q0 15 -18.5 23.5t-29.5 8.5q-1 0 -1 4q0 24 6 30
q14 -1 38 -2.5t44.5 -2.5t39.5 -1q18 0 132 6v-5q0 -8 -2.5 -18.5t-5.5 -10.5q-8 0 -31.5 -8.5t-27.5 -15.5q-6 -10 -14 -42t-10 -43l-73 -376q-16 -82 -44.5 -145.5t-66.5 -104.5t-75.5 -66.5t-83.5 -44.5q-14 6 -14 24q0 14 2 18q58 48 92.5 118.5t58.5 192.5z" />
    <glyph glyph-name="jcircumflex" unicode="&#x135;" horiz-adv-x="363" 
d="M356 510q-7 0 -38.5 27.5t-48.5 46.5q-26 -20 -67.5 -47t-48.5 -27q-8 0 -3 23q20 17 76 78q22 25 47 57q7 10 15 10q4 0 9 -10q0 -1 8.5 -19.5t15.5 -32.5q30 -58 48 -83q-5 -23 -13 -23zM228 449q30 0 52.5 -22.5t22.5 -73.5q0 -28 -41 -233q-27 -143 -86 -222
q-29 -38 -83 -73t-81 -43q-16 10 -16 25q0 9 3 12q67 59 94 113t49 168l40 212q2 6 2 16q0 30 -20 30q-7 0 -19.5 -14t-21.5 -28.5t-10 -14.5q-6 0 -17 9.5t-14 19.5q15 37 54 78t92 41z" />
    <glyph glyph-name="Kcommaaccent" unicode="&#x136;" horiz-adv-x="711" 
d="M219 -101q0 24 35.5 34.5t78.5 10.5q12 -13 12 -47q0 -33 -46 -70t-84 -45h-3q-6 0 -13.5 4.5t-7.5 9.5q0 1 14.5 9t28.5 20.5t14 23.5q0 10 -14.5 23t-14.5 27zM280 519l-73 -380q-10 -52 -10 -80q0 -10 19.5 -19.5t28.5 -9.5q2 0 2 -5q0 -19 -7 -29q-12 1 -38 3
t-48.5 3t-40.5 1q-25 0 -69.5 -3t-56.5 -4q-1 1 -1 6q0 7 2 17.5t4 10.5q11 0 32.5 6.5t26.5 15.5q16 26 25 83l75 388q9 48 9 73q0 15 -18.5 23.5t-29.5 8.5q-1 0 -1 4q0 24 6 30q14 -1 38.5 -2.5t44.5 -2.5t39 -1q18 0 132 6v-5q0 -8 -2.5 -18.5t-5.5 -10.5
q-8 0 -31.5 -8.5t-27.5 -15.5q-6 -10 -14 -42t-10 -43zM244 333q42 27 94 75.5t181 177.5q12 12 12 24q0 9 -20.5 14.5t-31.5 5.5q-3 0 -3 11q0 14 4 21q102 -6 124 -6q4 0 118 6q0 -9 -2.5 -20.5t-5.5 -11.5q-75 -8 -111 -45l-213 -222q-10 -10 -10 -20q0 -5 3 -9l155 -222
q33 -47 59.5 -64.5t57.5 -17.5q3 0 3 -8q0 -12 -7 -22q-16 -4 -60 -4q-29 0 -45 1t-38 5t-37 12t-31.5 23.5t-31.5 38.5z" />
    <glyph glyph-name="kcommaaccent" unicode="&#x137;" horiz-adv-x="462" 
d="M132 -101q0 24 35.5 34.5t78.5 10.5q12 -13 12 -47q0 -33 -46 -70t-84 -45h-3q-6 0 -13.5 4.5t-7.5 9.5q0 1 14.5 9t28.5 20.5t14 23.5q0 10 -14.5 23t-14.5 27zM319 449q47 0 83.5 -25t36.5 -67q0 -41 -29 -77.5t-66 -56t-69 -23.5q17 -44 46 -88.5t50 -44.5
q17 0 41.5 19.5t34.5 32.5q2 0 13.5 -10t11.5 -13q-11 -28 -55 -64t-94 -36q-21 0 -42.5 14.5t-37.5 32.5t-35 48t-28 47t-23 45q-4 9 -6 13l-38 -196q-18 -8 -55 -8q-29 0 -61 8l105 544q9 46 9 59q0 22 -49 22q-3 0 -3 8q0 14 9 23q24 0 81.5 14t83.5 25q10 -5 10 -22
q0 -6 -3.5 -24t-8 -38.5t-5.5 -26.5l-45 -238q6 14 15 28t26 33t42 30.5t55 11.5zM277 376q-39 0 -76 -49t-37 -74q0 -12 33 -12q48 0 80 21q17 12 27 31.5t10 39.5q0 15 -10.5 29t-26.5 14z" />
    <glyph glyph-name="kgreenlandic" unicode="&#x138;" horiz-adv-x="500" 
d="M196 346q0 -4 1 -4t4 7q46 100 133 100q47 0 83.5 -25t36.5 -67q0 -59 -52.5 -104t-104.5 -51q18 -47 45 -91.5t48 -44.5q9 0 18 6.5t14 13.5t11.5 17.5t7.5 11.5q2 2 9 2q16 0 25 -15q-39 -106 -131 -106q-33 0 -56.5 13.5t-50.5 44.5q-17 20 -34 55.5t-26 60.5l-9 26
l-1 1q-1 0 -1 -1l-38 -196q-17 -8 -55 -8q-29 0 -61 8l59 299q9 47 9 59q0 22 -49 22q-3 0 -3 8q0 7 3.5 15t5.5 8q25 0 90.5 15.5t82.5 23.5h5q3 0 6 -6.5t3 -10.5q-25 -74 -28 -87zM292 376q-39 0 -76 -49t-37 -74q0 -12 33 -12q48 0 80 21q37 25 37 71q0 15 -10.5 29
t-26.5 14z" />
    <glyph glyph-name="Lacute" unicode="&#x139;" horiz-adv-x="522" 
d="M183 715q-5 0 -9.5 7t-4.5 12q0 3 18 20t45 38t48 33q14 8 32 8q24 0 47 -9t23 -29q0 -18 -89.5 -49t-109.5 -31zM207 139q-7 -42 -7 -57q0 -17 9.5 -22.5t51.5 -5.5h24q58 0 110 26q17 9 42 34t42 56q3 6 14 6q23 0 27 -6q-4 -8 -22 -41.5t-26 -50t-19.5 -41
t-16.5 -39.5q-53 0 -165 2t-152 2q-24 0 -56.5 -1.5t-53.5 -2.5l-21 -2q-2 4 -2 9q0 6 1.5 12t3 9.5t2.5 3.5q10 0 34 9t28 17q11 23 21 79l75 388q9 48 9 73q0 15 -18.5 23.5t-29.5 8.5q-1 0 -1 4q0 24 6 30q14 -1 38.5 -2.5t44.5 -2.5t39 -1q18 0 132 6v-5
q0 -8 -2.5 -18.5t-5.5 -10.5q-8 0 -31.5 -8.5t-27.5 -15.5q-6 -10 -14 -42t-10 -43z" />
    <glyph glyph-name="lacute" unicode="&#x13a;" horiz-adv-x="241" 
d="M133 715q-5 0 -9.5 7t-4.5 12q0 3 18 20t45 38t48 33q14 8 32 8q24 0 47 -9t23 -29q0 -18 -89.5 -49t-109.5 -31zM15 123l82 421q9 47 9 59q0 22 -49 22q-3 0 -3 8q0 14 9 23q25 0 82.5 14t82.5 25q10 -5 10 -22q0 -6 -3 -23.5t-8 -39.5t-6 -26l-89 -456q-2 -10 -2 -23
q0 -24 10 -24q15 0 40 21t33 32q3 0 11 -10t8 -14q-10 -27 -70.5 -72.5t-103.5 -45.5q-22 0 -37.5 14.5t-15.5 42.5q0 11 4 38.5t6 35.5z" />
    <glyph glyph-name="Lcommaaccent" unicode="&#x13b;" horiz-adv-x="522" 
d="M209 -101q0 24 35.5 34.5t78.5 10.5q12 -13 12 -47q0 -33 -46 -70t-84 -45h-3q-6 0 -13.5 4.5t-7.5 9.5q0 1 14.5 9t28.5 20.5t14 23.5q0 10 -14.5 23t-14.5 27zM207 139q-7 -42 -7 -57q0 -17 9.5 -22.5t51.5 -5.5h24q58 0 110 26q17 9 42 34t42 56q3 6 14 6q23 0 27 -6
q-4 -8 -22 -41.5t-26 -50t-19.5 -41t-16.5 -39.5q-53 0 -165 2t-152 2q-24 0 -56.5 -1.5t-53.5 -2.5l-21 -2q-2 4 -2 9q0 6 1.5 12t3 9.5t2.5 3.5q10 0 34 9t28 17q11 23 21 79l75 388q9 48 9 73q0 15 -18.5 23.5t-29.5 8.5q-1 0 -1 4q0 24 6 30q14 -1 38.5 -2.5t44.5 -2.5
t39 -1q18 0 132 6v-5q0 -8 -2.5 -18.5t-5.5 -10.5q-8 0 -31.5 -8.5t-27.5 -15.5q-6 -10 -14 -42t-10 -43z" />
    <glyph glyph-name="lcommaaccent" unicode="&#x13c;" horiz-adv-x="241" 
d="M34 -101q0 24 35.5 34.5t78.5 10.5q12 -13 12 -47q0 -33 -46 -70t-84 -45h-3q-6 0 -13.5 4.5t-7.5 9.5q0 1 14.5 9t28.5 20.5t14 23.5q0 10 -14.5 23t-14.5 27zM15 123l82 421q9 47 9 59q0 22 -49 22q-3 0 -3 8q0 14 9 23q25 0 82.5 14t82.5 25q10 -5 10 -22
q0 -6 -3 -23.5t-8 -39.5t-6 -26l-89 -456q-2 -10 -2 -23q0 -24 10 -24q15 0 40 21t33 32q3 0 11 -10t8 -14q-10 -27 -70.5 -72.5t-103.5 -45.5q-22 0 -37.5 14.5t-15.5 42.5q0 11 4 38.5t6 35.5z" />
    <glyph glyph-name="Lcaron" unicode="&#x13d;" horiz-adv-x="522" 
d="M504 490q0 2 15 14.5t30 31.5t15 37q0 9 -10.5 25t-10.5 32q0 65 94 65q3 -9 3 -27q0 -24 -4 -44q-8 -45 -43 -90.5t-69 -65.5h-2q-4 0 -11 8.5t-7 13.5zM207 139q-7 -42 -7 -57q0 -17 9.5 -22.5t51.5 -5.5h24q58 0 110 26q17 9 42 34t42 56q3 6 14 6q23 0 27 -6
q-4 -8 -22 -41.5t-26 -50t-19.5 -41t-16.5 -39.5q-53 0 -165 2t-152 2q-24 0 -56.5 -1.5t-53.5 -2.5l-21 -2q-2 4 -2 9q0 6 1.5 12t3 9.5t2.5 3.5q10 0 34 9t28 17q11 23 21 79l75 388q9 48 9 73q0 15 -18.5 23.5t-29.5 8.5q-1 0 -1 4q0 24 6 30q14 -1 38.5 -2.5t44.5 -2.5
t39 -1q18 0 132 6v-5q0 -8 -2.5 -18.5t-5.5 -10.5q-8 0 -31.5 -8.5t-27.5 -15.5q-6 -10 -14 -42t-10 -43z" />
    <glyph glyph-name="lcaron" unicode="&#x13e;" horiz-adv-x="241" 
d="M292 490q0 2 15 14.5t30 31.5t15 37q0 9 -10.5 25t-10.5 32q0 65 94 65q3 -9 3 -27q0 -24 -4 -44q-8 -45 -43 -90.5t-69 -65.5h-2q-4 0 -11 8.5t-7 13.5zM15 123l82 421q9 47 9 59q0 22 -49 22q-3 0 -3 8q0 14 9 23q25 0 82.5 14t82.5 25q10 -5 10 -22q0 -6 -3 -23.5
t-8 -39.5t-6 -26l-89 -456q-2 -10 -2 -23q0 -24 10 -24q15 0 40 21t33 32q3 0 11 -10t8 -14q-10 -27 -70.5 -72.5t-103.5 -45.5q-22 0 -37.5 14.5t-15.5 42.5q0 11 4 38.5t6 35.5z" />
    <glyph glyph-name="Ldot" unicode="&#x13f;" horiz-adv-x="522" 
d="M352 330q6 31 30 52t53 21t45 -21t10 -52t-30.5 -52.5t-52.5 -21.5q-29 0 -45 21.5t-10 52.5zM207 139q-7 -42 -7 -57q0 -17 9.5 -22.5t51.5 -5.5h24q58 0 110 26q17 9 42 34t42 56q3 6 14 6q23 0 27 -6q-4 -8 -22 -41.5t-26 -50t-19.5 -41t-16.5 -39.5q-53 0 -165 2
t-152 2q-24 0 -56.5 -1.5t-53.5 -2.5l-21 -2q-2 4 -2 9q0 6 1.5 12t3 9.5t2.5 3.5q10 0 34 9t28 17q11 23 21 79l75 388q9 48 9 73q0 15 -18.5 23.5t-29.5 8.5q-1 0 -1 4q0 24 6 30q14 -1 38.5 -2.5t44.5 -2.5t39 -1q18 0 132 6v-5q0 -8 -2.5 -18.5t-5.5 -10.5
q-8 0 -31.5 -8.5t-27.5 -15.5q-6 -10 -14 -42t-10 -43z" />
    <glyph glyph-name="ldot" unicode="&#x140;" horiz-adv-x="466" 
d="M305 310q6 31 30 52t53 21t45 -21t10 -52t-30.5 -52.5t-52.5 -21.5q-29 0 -45 21.5t-10 52.5zM15 123l82 421q9 47 9 59q0 22 -49 22q-3 0 -3 8q0 14 9 23q25 0 82.5 14t82.5 25q10 -5 10 -22q0 -6 -3 -23.5t-8 -39.5t-6 -26l-89 -456q-2 -10 -2 -23q0 -24 10 -24
q15 0 40 21t33 32q3 0 11 -10t8 -14q-10 -27 -70.5 -72.5t-103.5 -45.5q-22 0 -37.5 14.5t-15.5 42.5q0 11 4 38.5t6 35.5z" />
    <glyph glyph-name="Lslash" unicode="&#x141;" horiz-adv-x="533" 
d="M274 656q18 0 132 6q0 -13 -1 -18q-3 -16 -7 -16q-8 0 -35 -10t-30 -17q-14 -31 -23 -80l-29 -152l148 97q3 0 11 -15q11 -25 9 -32q-2 -8 -7 -11l-176 -113l-29 -153q-10 -54 -7 -72q1 -16 60 -16h24q58 0 110 26q17 9 42 34t42 56q3 6 14 6q23 0 27 -6
q-74 -143 -84 -172q-53 0 -165 2t-152 2l-137 -6q-3 3 0 17q3 17 6 17q11 0 36.5 8.5t30.5 16.5q11 26 23 88l11 57l-45 -29q-5 0 -12.5 17.5t-6.5 25.5q2 7 6 10l72 47l49 254q11 64 7 75q-3 8 -23.5 18t-29.5 10q-2 0 0 14q3 17 6 20q126 -6 133 -6z" />
    <glyph glyph-name="lslash" unicode="&#x142;" horiz-adv-x="274" 
d="M266 333l-39 -205q-3 -9 -3 -16q0 -30 20 -30q7 0 19.5 14t21.5 28.5t10 14.5q6 0 17 -9.5t14 -19.5q-15 -37 -54 -78t-92 -41q-33 0 -54 24.5t-21 71.5q0 16 5 36l23 121l-48 -34q-4 0 -11.5 17.5t-6.5 25.5q1 6 7 10l73 52l44 229q9 46 9 59q0 22 -49 22q-3 0 -3 8
q0 7 3.5 15t5.5 8q25 0 90.5 15.5t82.5 23.5h5q3 0 6 -6.5t3 -10.5q-18 -39 -29 -94l-34 -177l41 29q3 0 8 -9q12 -25 10 -37q-2 -7 -7 -11z" />
    <glyph glyph-name="Nacute" unicode="&#x143;" horiz-adv-x="675" 
d="M466 715q-5 0 -9.5 7t-4.5 12q0 3 18 20t45 38t48 33q14 8 32 8q24 0 47 -9t23 -29q0 -18 -89.5 -49t-109.5 -31zM251 657q54 0 93 5q9 -34 42.5 -98t87 -158t84.5 -155q2 6 10 41l44 232q6 33 6 54t-31.5 35.5t-48.5 14.5q-2 0 -2 7q0 21 6 27q105 -5 130 -5q31 0 124 5
q0 -34 -8 -34q-7 0 -20 -2t-35.5 -11t-35.5 -23q-16 -16 -27 -73l-74 -380q-8 -41 -23 -140q-4 -4 -24 -4q-11 0 -25 23l-277 506l-74 -383q-8 -40 -8 -55q0 -16 11 -28t26.5 -17.5t26.5 -8t16 -2.5q2 0 2 -5q0 -17 -6 -29q-12 1 -38 3t-48.5 3t-40.5 1q-25 0 -69.5 -3
t-56.5 -4q-2 4 -2 9t1.5 11l2.5 10t2 4q18 0 50 9.5t49 31.5q13 17 23 73l76 393q6 32 6 59q0 15 -28 23.5t-45 8.5q-3 0 -3 8q0 21 7 26q105 -5 124 -5z" />
    <glyph glyph-name="nacute" unicode="&#x144;" horiz-adv-x="513" 
d="M269 482q-4 0 -9 8.5t-5 13.5q0 7 41.5 56t62.5 69q4 3 13 3q23 0 39.5 -15t16.5 -29q0 -25 -71 -65.5t-88 -40.5zM176 449q23 0 38 -14.5t15 -42.5q0 -12 -8 -64q0 -2 -0.5 -4.5t-1.5 -8.5t-1.5 -9.5l-0.5 -3.5q26 53 68 100t75 47q44 0 65 -31t21 -78q0 -24 -16 -107
l-20 -105q-2 -6 -2 -23q0 -24 10 -24q14 0 39.5 21t33.5 32q3 0 11 -10t8 -14q-11 -27 -71.5 -72.5t-102.5 -45.5q-22 0 -37.5 14.5t-15.5 42.5q0 29 10 74l23 119q10 50 10 58q0 21 -6.5 31t-22.5 10q-25 0 -65 -85t-54 -151l-21 -105q-20 -6 -56 -6q-35 0 -59 6l60 313
q2 10 2 23q0 24 -10 24q-14 0 -39.5 -21t-33.5 -32q-2 0 -10.5 10t-8.5 14q11 27 71.5 72.5t102.5 45.5z" />
    <glyph glyph-name="Ncommaaccent" unicode="&#x145;" horiz-adv-x="675" 
d="M282 -101q0 24 35.5 34.5t78.5 10.5q12 -13 12 -47q0 -33 -46 -70t-84 -45h-3q-6 0 -13.5 4.5t-7.5 9.5q0 1 14.5 9t28.5 20.5t14 23.5q0 10 -14.5 23t-14.5 27zM251 657q54 0 93 5q9 -34 42.5 -98t87 -158t84.5 -155q2 6 10 41l44 232q6 33 6 54t-31.5 35.5t-48.5 14.5
q-2 0 -2 7q0 21 6 27q105 -5 130 -5q31 0 124 5q0 -34 -8 -34q-7 0 -20 -2t-35.5 -11t-35.5 -23q-16 -16 -27 -73l-74 -380q-8 -41 -23 -140q-4 -4 -24 -4q-11 0 -25 23l-277 506l-74 -383q-8 -40 -8 -55q0 -16 11 -28t26.5 -17.5t26.5 -8t16 -2.5q2 0 2 -5q0 -17 -6 -29
q-12 1 -38 3t-48.5 3t-40.5 1q-25 0 -69.5 -3t-56.5 -4q-2 4 -2 9t1.5 11l2.5 10t2 4q18 0 50 9.5t49 31.5q13 17 23 73l76 393q6 32 6 59q0 15 -28 23.5t-45 8.5q-3 0 -3 8q0 21 7 26q105 -5 124 -5z" />
    <glyph glyph-name="ncommaaccent" unicode="&#x146;" horiz-adv-x="513" 
d="M183 -101q0 24 35.5 34.5t78.5 10.5q12 -13 12 -47q0 -33 -46 -70t-84 -45h-3q-6 0 -13.5 4.5t-7.5 9.5q0 1 14.5 9t28.5 20.5t14 23.5q0 10 -14.5 23t-14.5 27zM176 449q23 0 38 -14.5t15 -42.5q0 -12 -8 -64q0 -2 -0.5 -4.5t-1.5 -8.5t-1.5 -9.5l-0.5 -3.5
q26 53 68 100t75 47q44 0 65 -31t21 -78q0 -24 -16 -107l-20 -105q-2 -6 -2 -23q0 -24 10 -24q14 0 39.5 21t33.5 32q3 0 11 -10t8 -14q-11 -27 -71.5 -72.5t-102.5 -45.5q-22 0 -37.5 14.5t-15.5 42.5q0 29 10 74l23 119q10 50 10 58q0 21 -6.5 31t-22.5 10q-25 0 -65 -85
t-54 -151l-21 -105q-20 -6 -56 -6q-35 0 -59 6l60 313q2 10 2 23q0 24 -10 24q-14 0 -39.5 -21t-33.5 -32q-2 0 -10.5 10t-8.5 14q11 27 71.5 72.5t102.5 45.5z" />
    <glyph glyph-name="Ncaron" unicode="&#x147;" horiz-adv-x="675" 
d="M500 807q28 17 71.5 39.5t51.5 22.5q11 0 6 -19q-24 -16 -84 -70l-46 -43q-11 -9 -16 -9q-6 0 -10 9q-11 21 -31 47q-34 45 -55 66q5 19 13 19t43.5 -22.5t56.5 -39.5zM251 657q54 0 93 5q9 -34 42.5 -98t87 -158t84.5 -155q2 6 10 41l44 232q6 33 6 54t-31.5 35.5
t-48.5 14.5q-2 0 -2 7q0 21 6 27q105 -5 130 -5q31 0 124 5q0 -34 -8 -34q-7 0 -20 -2t-35.5 -11t-35.5 -23q-16 -16 -27 -73l-74 -380q-8 -41 -23 -140q-4 -4 -24 -4q-11 0 -25 23l-277 506l-74 -383q-8 -40 -8 -55q0 -16 11 -28t26.5 -17.5t26.5 -8t16 -2.5q2 0 2 -5
q0 -17 -6 -29q-12 1 -38 3t-48.5 3t-40.5 1q-25 0 -69.5 -3t-56.5 -4q-2 4 -2 9t1.5 11l2.5 10t2 4q18 0 50 9.5t49 31.5q13 17 23 73l76 393q6 32 6 59q0 15 -28 23.5t-45 8.5q-3 0 -3 8q0 21 7 26q105 -5 124 -5z" />
    <glyph glyph-name="ncaron" unicode="&#x148;" horiz-adv-x="513" 
d="M330 604q26 20 67.5 47t48.5 27q9 0 4 -23q-28 -24 -81 -83q-12 -13 -26.5 -30.5t-17.5 -21.5q-10 -10 -13 -10q-7 0 -10 10q-13 34 -25 57q-26 49 -47 78q5 23 13 23q7 0 38.5 -27.5t48.5 -46.5zM176 449q23 0 38 -14.5t15 -42.5q0 -12 -8 -64q0 -2 -0.5 -4.5t-1.5 -8.5
t-1.5 -9.5l-0.5 -3.5q26 53 68 100t75 47q44 0 65 -31t21 -78q0 -24 -16 -107l-20 -105q-2 -6 -2 -23q0 -24 10 -24q14 0 39.5 21t33.5 32q3 0 11 -10t8 -14q-11 -27 -71.5 -72.5t-102.5 -45.5q-22 0 -37.5 14.5t-15.5 42.5q0 29 10 74l23 119q10 50 10 58q0 21 -6.5 31
t-22.5 10q-25 0 -65 -85t-54 -151l-21 -105q-20 -6 -56 -6q-35 0 -59 6l60 313q2 10 2 23q0 24 -10 24q-14 0 -39.5 -21t-33.5 -32q-2 0 -10.5 10t-8.5 14q11 27 71.5 72.5t102.5 45.5z" />
    <glyph glyph-name="Eng" unicode="&#x14a;" horiz-adv-x="774" 
d="M501 78l-247 446l-74 -383q-8 -40 -8 -55q0 -21 19.5 -34.5t36 -17.5t24.5 -4q2 0 2 -5q0 -17 -6 -29q-12 1 -38 3t-48.5 3t-40.5 1q-25 0 -69.5 -3t-56.5 -4q-2 4 -2 9t1.5 11l2.5 10t2 4q18 0 50 9.5t49 31.5q13 17 23 73l76 393q6 32 6 59q0 15 -28 23.5t-45 8.5
q-3 0 -3 8q0 21 7 26q105 -5 124 -5q54 0 93 5q9 -34 42.5 -98t87 -158t84.5 -155q2 6 10 41l44 232q6 33 6 54t-31.5 35.5t-48.5 14.5q-2 0 -2 7q0 21 6 27q105 -5 130 -5q31 0 124 5q0 -34 -8 -34q-7 0 -20 -2t-35.5 -11t-35.5 -23q-16 -16 -27 -73l-74 -380
q-31 -160 -109 -252t-164 -105q-8 3 -8 20q0 8 6 20q44 21 101.5 101.5t71.5 154.5z" />
    <glyph glyph-name="eng" unicode="&#x14b;" horiz-adv-x="527" 
d="M306 100l38 200q3 15 -5.5 28t-24.5 13q-25 0 -65.5 -85t-53.5 -151l-21 -105q-20 -6 -56 -6q-35 0 -59 6l60 312q1 3 1 16q0 30 -20 30q-7 0 -19.5 -14t-21.5 -28.5t-10 -14.5q-6 0 -17 9.5t-14 19.5q15 37 54 78t92 41q35 0 57.5 -28t22.5 -65q0 -21 -7 -44q-1 0 -1 -1
t2 -1t2 2q25 52 64.5 94.5t72.5 42.5q44 0 65 -31t21 -78q0 -24 -16 -107l-21 -113q-27 -143 -86 -222q-29 -38 -83 -73t-81 -43q-16 10 -16 25q0 9 3 12q67 59 94.5 114.5t48.5 166.5z" />
    <glyph glyph-name="Omacron" unicode="&#x14c;" horiz-adv-x="626" 
d="M254 739q13 58 25 58h267q7 0 4 -10q-5 -22 -11 -36.5t-10 -18.5l-4 -4h-268h-1.5t-2 2.5t0.5 8.5zM359 611q-81 0 -141.5 -107t-60.5 -266q0 -39 6 -72t19.5 -61t38 -43.5t57.5 -15.5q42 0 77.5 28.5t58 72t38 97.5t22.5 102.5t7 88.5q0 176 -122 176zM383 667
q106 0 173.5 -75.5t67.5 -191.5q0 -78 -32 -153.5t-83.5 -131.5t-119.5 -90.5t-137 -34.5q-106 0 -173 75.5t-67 190.5q0 78 32 154t83 132t119 90.5t137 34.5z" />
    <glyph glyph-name="omacron" unicode="&#x14d;" horiz-adv-x="407" 
d="M139 521q13 58 25 58h231q7 0 4 -10q-7 -31 -19 -51l-6 -8h-232h-1.5t-2 2.5t0.5 8.5zM240 396q-29 0 -54.5 -46.5t-39.5 -112.5t-13 -127q2 -63 33 -63t57 50.5t38.5 115t11.5 119.5q-2 64 -33 64zM250 449q77 0 112 -44.5t35 -117.5q0 -74 -32 -141.5t-88 -109.5
t-121 -42q-78 0 -112.5 44.5t-34.5 117.5q0 68 31.5 135.5t88 112.5t121.5 45z" />
    <glyph glyph-name="Obreve" unicode="&#x14e;" horiz-adv-x="626" 
d="M407 788q20 0 45 14.5t40 31.5q2 4 5 2q4 -2 11 -13t5 -16q-1 -1 -2 -3.5t-2 -3.5q-54 -72 -114 -72t-86 72q-1 2 -1 7t11 16t16 13q2 1 4 -2q8 -17 28 -31.5t40 -14.5zM359 611q-81 0 -141.5 -107t-60.5 -266q0 -39 6 -72t19.5 -61t38 -43.5t57.5 -15.5q42 0 77.5 28.5
t58 72t38 97.5t22.5 102.5t7 88.5q0 176 -122 176zM383 667q106 0 173.5 -75.5t67.5 -191.5q0 -78 -32 -153.5t-83.5 -131.5t-119.5 -90.5t-137 -34.5q-106 0 -173 75.5t-67 190.5q0 78 32 154t83 132t119 90.5t137 34.5z" />
    <glyph glyph-name="obreve" unicode="&#x14f;" horiz-adv-x="407" 
d="M287 570q22 0 45 15.5t36 42.5q2 3 4 3q5 0 15 -8.5t9 -13.5q0 -1 -3 -7q-19 -41 -50.5 -66.5t-67.5 -25.5q-37 0 -62 26t-28 66v7q1 5 14.5 13.5t18.5 8.5q3 0 3 -3q2 -27 22.5 -42.5t43.5 -15.5zM240 396q-29 0 -54.5 -46.5t-39.5 -112.5t-13 -127q2 -63 33 -63
t57 50.5t38.5 115t11.5 119.5q-2 64 -33 64zM250 449q77 0 112 -44.5t35 -117.5q0 -74 -32 -141.5t-88 -109.5t-121 -42q-78 0 -112.5 44.5t-34.5 117.5q0 68 31.5 135.5t88 112.5t121.5 45z" />
    <glyph glyph-name="Ohungarumlaut" unicode="&#x150;" horiz-adv-x="626" 
d="M661 795q0 -18 -89.5 -49t-109.5 -31q-5 0 -9.5 7t-4.5 12q0 3 18 20t45 38t48 33q14 8 32 8q24 0 47 -9t23 -29zM466 795q0 -18 -89.5 -49t-109.5 -31q-5 0 -9.5 7t-4.5 12q0 3 18 20t45 38t48 33q14 8 32 8q24 0 47 -9t23 -29zM359 611q-81 0 -141.5 -107t-60.5 -266
q0 -39 6 -72t19.5 -61t38 -43.5t57.5 -15.5q42 0 77.5 28.5t58 72t38 97.5t22.5 102.5t7 88.5q0 176 -122 176zM383 667q106 0 173.5 -75.5t67.5 -191.5q0 -78 -32 -153.5t-83.5 -131.5t-119.5 -90.5t-137 -34.5q-106 0 -173 75.5t-67 190.5q0 78 32 154t83 132t119 90.5
t137 34.5z" />
    <glyph glyph-name="ohungarumlaut" unicode="&#x151;" horiz-adv-x="407" 
d="M307 482q-4 0 -9 8.5t-5 13.5q0 7 41.5 56t62.5 69q4 3 13 3q23 0 39.5 -15t16.5 -29q0 -25 -71 -65.5t-88 -40.5zM163 482q-4 0 -9 8.5t-5 13.5q0 7 41.5 56t62.5 69q4 3 13 3q23 0 39.5 -15t16.5 -29q0 -25 -71 -65.5t-88 -40.5zM240 396q-29 0 -54.5 -46.5
t-39.5 -112.5t-13 -127q2 -63 33 -63t57 50.5t38.5 115t11.5 119.5q-2 64 -33 64zM250 449q77 0 112 -44.5t35 -117.5q0 -74 -32 -141.5t-88 -109.5t-121 -42q-78 0 -112.5 44.5t-34.5 117.5q0 68 31.5 135.5t88 112.5t121.5 45z" />
    <glyph glyph-name="OE" unicode="&#x152;" horiz-adv-x="942" 
d="M493 2q-63 0 -103 -2q-22 -1 -59.5 -5.5t-64.5 -4.5q-106 0 -173 75.5t-67 190.5q0 104 53 200.5t139.5 155t179.5 58.5q55 0 123.5 -5.5t110.5 -5.5q63 -1 160 2t141 3q-2 -30 -2 -91v-57q-5 -5 -22 -5q-11 0 -12 7q-11 38 -43.5 65t-68.5 27h-35q-59 0 -63 -13
q-12 -33 -20 -78l-30 -154q0 -2 3 -3t9 -2t12.5 -1h14.5h79q22 0 30 8.5t28 53.5q3 7 16 7q16 0 19 -5l-36 -189q-4 -4 -21 -4q-11 0 -13 8q-2 45 -11 54q-12 12 -75 12q-67 0 -69 -9l-29 -154q-8 -40 -8 -59q0 -18 9.5 -23t51.5 -5h24q58 0 110 26q17 9 42 34t42 56
q3 6 14 6q23 0 27 -6q-74 -143 -84 -172q-52 0 -170 2t-159 2zM464 143l73 378q3 17 -3 37t-24 30q-43 23 -137 23q-80 0 -141 -107t-61 -266q0 -84 28.5 -138t92.5 -54q91 0 130 24q31 19 42 73z" />
    <glyph glyph-name="oe" unicode="&#x153;" horiz-adv-x="656" 
d="M248 393q-39 0 -73 -75.5t-34 -162.5q0 -47 12 -76.5t33 -29.5q42 0 74 74.5t32 163.5q0 47 -11.5 76.5t-32.5 29.5zM503 394q-30 0 -68 -72q-8 -15 -16.5 -45t-8.5 -41q0 -4 4 -4q47 0 80 41.5t33 82.5q0 38 -24 38zM526 449q48 0 81.5 -26t33.5 -69q0 -49 -48 -91.5
t-100.5 -63t-83.5 -20.5q-4 0 -4 -10q0 -58 24.5 -84.5t54.5 -26.5q18 0 38 16.5t34 33t16 16.5q5 0 12.5 -9t7.5 -17q0 -9 -20.5 -33t-59 -48t-76.5 -24q-75 0 -118 60q-66 -60 -152 -60q-63 0 -103.5 52t-40.5 122q0 114 70.5 198t176.5 84q68 0 110 -60q69 60 147 60z
" />
    <glyph glyph-name="Racute" unicode="&#x154;" horiz-adv-x="632" 
d="M301 715q-5 0 -9.5 7t-4.5 12q0 3 18 20t45 38t48 33q14 8 32 8q24 0 47 -9t23 -29q0 -18 -89.5 -49t-109.5 -31zM376 662q29 0 59 -7.5t59.5 -22.5t48.5 -43.5t19 -65.5q0 -62 -44 -123.5t-106 -82.5q-5 -2 -2 -10q47 -139 109 -217q48 -61 94 -61q0 -18 -10 -33
q-14 -2 -36 -2q-23 0 -44 3t-36.5 6.5t-31 12t-25 14t-20.5 19t-16.5 19.5t-14.5 22.5t-12 22.5t-11.5 24t-10.5 23q-48 103 -63 119q-13 14 -32 14q-5 0 -6.5 -0.5t-5 -4t-4.5 -11.5l-27 -138q-10 -52 -10 -80q0 -10 19.5 -19.5t28.5 -9.5q2 0 2 -5q0 -19 -7 -29
q-12 1 -38 3t-48.5 3t-40.5 1q-25 0 -69.5 -3t-56.5 -4q-1 1 -1 6q0 7 2 17.5t4 10.5q11 0 32.5 6.5t26.5 15.5q16 26 25 83l76 388q9 51 9 71q0 15 -18.5 24.5t-30.5 9.5q-2 0 -2 5q0 7 3 17t5 12q105 -5 127 -5q27 0 65 2.5t66 2.5zM355 607q-37 0 -48 -4.5t-14 -20.5
l-40 -207q-1 -3 -1 -7q0 -13 14 -16.5t49 -3.5q33 0 57.5 29t35 68t10.5 80t-17 61.5t-46 20.5z" />
    <glyph glyph-name="racute" unicode="&#x155;" horiz-adv-x="437" 
d="M255 482q-4 0 -9 8.5t-5 13.5q0 7 41.5 56t62.5 69q4 3 13 3q23 0 39.5 -15t16.5 -29q0 -25 -71 -65.5t-88 -40.5zM176 449q23 0 38 -14.5t15 -42.5q0 -30 -5 -54q-7 -40 -8 -44q29 68 69.5 111.5t90.5 43.5q36 0 66 -39q0 -39 -14.5 -69.5t-46.5 -30.5q-16 0 -35 22
t-35 22q-25 0 -72 -90.5t-64 -174.5l-18 -89q-28 -6 -57 -6t-58 6l60 313q2 10 2 23q0 24 -10 24q-14 0 -39.5 -21t-33.5 -32q-2 0 -10.5 10t-8.5 14q11 27 71.5 72.5t102.5 45.5z" />
    <glyph glyph-name="Rcommaaccent" unicode="&#x156;" horiz-adv-x="632" 
d="M238 -101q0 24 35.5 34.5t78.5 10.5q12 -13 12 -47q0 -33 -46 -70t-84 -45h-3q-6 0 -13.5 4.5t-7.5 9.5q0 1 14.5 9t28.5 20.5t14 23.5q0 10 -14.5 23t-14.5 27zM376 662q29 0 59 -7.5t59.5 -22.5t48.5 -43.5t19 -65.5q0 -62 -44 -123.5t-106 -82.5q-5 -2 -2 -10
q47 -139 109 -217q48 -61 94 -61q0 -18 -10 -33q-14 -2 -36 -2q-23 0 -44 3t-36.5 6.5t-31 12t-25 14t-20.5 19t-16.5 19.5t-14.5 22.5t-12 22.5t-11.5 24t-10.5 23q-48 103 -63 119q-13 14 -32 14q-5 0 -6.5 -0.5t-5 -4t-4.5 -11.5l-27 -138q-10 -52 -10 -80
q0 -10 19.5 -19.5t28.5 -9.5q2 0 2 -5q0 -19 -7 -29q-12 1 -38 3t-48.5 3t-40.5 1q-25 0 -69.5 -3t-56.5 -4q-1 1 -1 6q0 7 2 17.5t4 10.5q11 0 32.5 6.5t26.5 15.5q16 26 25 83l76 388q9 51 9 71q0 15 -18.5 24.5t-30.5 9.5q-2 0 -2 5q0 7 3 17t5 12q105 -5 127 -5
q27 0 65 2.5t66 2.5zM355 607q-37 0 -48 -4.5t-14 -20.5l-40 -207q-1 -3 -1 -7q0 -13 14 -16.5t49 -3.5q33 0 57.5 29t35 68t10.5 80t-17 61.5t-46 20.5z" />
    <glyph glyph-name="rcommaaccent" unicode="&#x157;" horiz-adv-x="437" 
d="M30 -101q0 24 35.5 34.5t78.5 10.5q12 -13 12 -47q0 -33 -46 -70t-84 -45h-3q-6 0 -13.5 4.5t-7.5 9.5q0 1 14.5 9t28.5 20.5t14 23.5q0 10 -14.5 23t-14.5 27zM176 449q23 0 38 -14.5t15 -42.5q0 -30 -5 -54q-7 -40 -8 -44q29 68 69.5 111.5t90.5 43.5q36 0 66 -39
q0 -39 -14.5 -69.5t-46.5 -30.5q-16 0 -35 22t-35 22q-25 0 -72 -90.5t-64 -174.5l-18 -89q-28 -6 -57 -6t-58 6l60 313q2 10 2 23q0 24 -10 24q-14 0 -39.5 -21t-33.5 -32q-2 0 -10.5 10t-8.5 14q11 27 71.5 72.5t102.5 45.5z" />
    <glyph glyph-name="Rcaron" unicode="&#x158;" horiz-adv-x="632" 
d="M367 807q28 17 71.5 39.5t51.5 22.5q11 0 6 -19q-24 -16 -84 -70l-46 -43q-11 -9 -16 -9q-6 0 -10 9q-11 21 -31 47q-34 45 -55 66q5 19 13 19t43.5 -22.5t56.5 -39.5zM376 662q29 0 59 -7.5t59.5 -22.5t48.5 -43.5t19 -65.5q0 -62 -44 -123.5t-106 -82.5q-5 -2 -2 -10
q47 -139 109 -217q48 -61 94 -61q0 -18 -10 -33q-14 -2 -36 -2q-23 0 -44 3t-36.5 6.5t-31 12t-25 14t-20.5 19t-16.5 19.5t-14.5 22.5t-12 22.5t-11.5 24t-10.5 23q-48 103 -63 119q-13 14 -32 14q-5 0 -6.5 -0.5t-5 -4t-4.5 -11.5l-27 -138q-10 -52 -10 -80
q0 -10 19.5 -19.5t28.5 -9.5q2 0 2 -5q0 -19 -7 -29q-12 1 -38 3t-48.5 3t-40.5 1q-25 0 -69.5 -3t-56.5 -4q-1 1 -1 6q0 7 2 17.5t4 10.5q11 0 32.5 6.5t26.5 15.5q16 26 25 83l76 388q9 51 9 71q0 15 -18.5 24.5t-30.5 9.5q-2 0 -2 5q0 7 3 17t5 12q105 -5 127 -5
q27 0 65 2.5t66 2.5zM355 607q-37 0 -48 -4.5t-14 -20.5l-40 -207q-1 -3 -1 -7q0 -13 14 -16.5t49 -3.5q33 0 57.5 29t35 68t10.5 80t-17 61.5t-46 20.5z" />
    <glyph glyph-name="rcaron" unicode="&#x159;" horiz-adv-x="437" 
d="M288 604q26 20 67.5 47t48.5 27q9 0 4 -23q-28 -24 -81 -83q-12 -13 -26.5 -30.5t-17.5 -21.5q-10 -10 -13 -10q-7 0 -10 10q-13 34 -25 57q-26 49 -47 78q5 23 13 23q7 0 38.5 -27.5t48.5 -46.5zM176 449q23 0 38 -14.5t15 -42.5q0 -30 -5 -54q-7 -40 -8 -44
q29 68 69.5 111.5t90.5 43.5q36 0 66 -39q0 -39 -14.5 -69.5t-46.5 -30.5q-16 0 -35 22t-35 22q-25 0 -72 -90.5t-64 -174.5l-18 -89q-28 -6 -57 -6t-58 6l60 313q2 10 2 23q0 24 -10 24q-14 0 -39.5 -21t-33.5 -32q-2 0 -10.5 10t-8.5 14q11 27 71.5 72.5t102.5 45.5z" />
    <glyph glyph-name="Sacute" unicode="&#x15a;" horiz-adv-x="449" 
d="M299 718q-5 0 -9.5 7t-4.5 12q0 3 18 20t45 38t48 33q14 8 32 8q24 0 47 -9t23 -29q0 -18 -89.5 -49t-109.5 -31zM305 670q25 0 48 -4.5t52.5 -12t50.5 -11.5q-25 -177 -29 -177h-14q-7 0 -11 1t-7.5 4.5t-3.5 11.5q0 16 -5 37t-15.5 43t-30.5 37t-45 15q-26 0 -45.5 -12
t-29.5 -30t-14.5 -33.5t-4.5 -27.5q0 -9 2 -17.5t6.5 -17t8.5 -15.5t12.5 -15.5t13.5 -14t16 -14.5t15.5 -13t17 -14t16.5 -13q7 -5 27.5 -20.5t29 -23.5t22 -24t18.5 -36t5 -45q0 -57 -23.5 -104.5t-60.5 -75.5t-78.5 -43t-81.5 -15q-66 0 -165 26q5 43 5 88q0 16 -0.5 47
l-0.5 31q0 8 24 8q4 0 13 -2.5t11 -5.5q0 -46 30 -90.5t76 -44.5q28 0 50 11.5t33.5 27t19 34t9.5 30.5t2 19q0 19 -12.5 39t-24 31t-37 31.5t-30.5 24.5q-3 2 -16.5 13.5t-17 14.5t-15 13.5t-15 15.5t-12 15t-11.5 18t-7.5 19t-6 22t-1.5 24q0 48 23 90.5t59 70t77 43.5
t78 16z" />
    <glyph glyph-name="sacute" unicode="&#x15b;" horiz-adv-x="325" 
d="M206 482q-4 0 -9 8.5t-5 13.5q0 7 41.5 56t62.5 69q4 3 13 3q23 0 39.5 -15t16.5 -29q0 -25 -71 -65.5t-88 -40.5zM214 449q64 0 98 -29q11 -14 11 -37q0 -28 -11 -44t-29 -16q-17 0 -29.5 12t-19 26.5t-18 26.5t-27.5 12q-19 0 -27 -10t-8 -33q0 -19 19.5 -50.5
t42.5 -61t42.5 -65.5t19.5 -62q0 -54 -49.5 -90t-118.5 -36q-62 0 -100 32q-9 11 -9 34q0 28 11 44t29 16q17 0 30.5 -12t20.5 -26.5t18.5 -26.5t24.5 -12q19 0 27 10t8 33q0 19 -19.5 50.5t-42.5 61t-42.5 65.5t-19.5 62q0 55 49.5 90.5t118.5 35.5z" />
    <glyph glyph-name="Scircumflex" unicode="&#x15c;" horiz-adv-x="449" 
d="M457 731q-8 0 -48.5 22.5t-63.5 39.5q-31 -17 -81 -39.5t-58 -22.5q-12 0 -7 19q32 19 92 65q35 28 55 48q10 9 16 9q4 0 13 -9l13.5 -18l19.5 -26q40 -48 64 -69q-5 -19 -15 -19zM305 670q25 0 48 -4.5t52.5 -12t50.5 -11.5q-25 -177 -29 -177h-14q-7 0 -11 1t-7.5 4.5
t-3.5 11.5q0 16 -5 37t-15.5 43t-30.5 37t-45 15q-26 0 -45.5 -12t-29.5 -30t-14.5 -33.5t-4.5 -27.5q0 -9 2 -17.5t6.5 -17t8.5 -15.5t12.5 -15.5t13.5 -14t16 -14.5t15.5 -13t17 -14t16.5 -13q7 -5 27.5 -20.5t29 -23.5t22 -24t18.5 -36t5 -45q0 -57 -23.5 -104.5
t-60.5 -75.5t-78.5 -43t-81.5 -15q-66 0 -165 26q5 43 5 88q0 16 -0.5 47l-0.5 31q0 8 24 8q4 0 13 -2.5t11 -5.5q0 -46 30 -90.5t76 -44.5q28 0 50 11.5t33.5 27t19 34t9.5 30.5t2 19q0 19 -12.5 39t-24 31t-37 31.5t-30.5 24.5q-3 2 -16.5 13.5t-17 14.5t-15 13.5
t-15 15.5t-12 15t-11.5 18t-7.5 19t-6 22t-1.5 24q0 48 23 90.5t59 70t77 43.5t78 16z" />
    <glyph glyph-name="scircumflex" unicode="&#x15d;" horiz-adv-x="325" 
d="M314 510q-7 0 -38.5 27.5t-48.5 46.5q-26 -20 -67.5 -47t-48.5 -27q-8 0 -3 23q20 17 76 78q22 25 47 57q7 10 15 10q4 0 9 -10q0 -1 8.5 -19.5t15.5 -32.5q30 -58 48 -83q-5 -23 -13 -23zM214 449q64 0 98 -29q11 -14 11 -37q0 -28 -11 -44t-29 -16q-17 0 -29.5 12
t-19 26.5t-18 26.5t-27.5 12q-19 0 -27 -10t-8 -33q0 -19 19.5 -50.5t42.5 -61t42.5 -65.5t19.5 -62q0 -54 -49.5 -90t-118.5 -36q-62 0 -100 32q-9 11 -9 34q0 28 11 44t29 16q17 0 30.5 -12t20.5 -26.5t18.5 -26.5t24.5 -12q19 0 27 10t8 33q0 19 -19.5 50.5t-42.5 61
t-42.5 65.5t-19.5 62q0 55 49.5 90.5t118.5 35.5z" />
    <glyph glyph-name="Scedilla" unicode="&#x15e;" horiz-adv-x="449" 
d="M131 -35q13 1 20 1q24 0 38.5 -18.5t9.5 -41.5q-8 -42 -41 -67t-83 -25q-35 0 -49 19q0 10 2 20q4 16 10 16q1 0 19.5 -8.5t32.5 -8.5q43 0 49 34q6 33 -20 33q-17 0 -34 -7q-2 0 -7.5 8t-3.5 11q8 10 23.5 34.5t19.5 30.5h34zM305 670q25 0 48 -4.5t52.5 -12t50.5 -11.5
q-25 -177 -29 -177h-14q-7 0 -11 1t-7.5 4.5t-3.5 11.5q0 16 -5 37t-15.5 43t-30.5 37t-45 15q-26 0 -45.5 -12t-29.5 -30t-14.5 -33.5t-4.5 -27.5q0 -9 2 -17.5t6.5 -17t8.5 -15.5t12.5 -15.5t13.5 -14t16 -14.5t15.5 -13t17 -14t16.5 -13q7 -5 27.5 -20.5t29 -23.5t22 -24
t18.5 -36t5 -45q0 -57 -23.5 -104.5t-60.5 -75.5t-78.5 -43t-81.5 -15q-66 0 -165 26q5 43 5 88q0 16 -0.5 47l-0.5 31q0 8 24 8q4 0 13 -2.5t11 -5.5q0 -46 30 -90.5t76 -44.5q28 0 50 11.5t33.5 27t19 34t9.5 30.5t2 19q0 19 -12.5 39t-24 31t-37 31.5t-30.5 24.5
q-3 2 -16.5 13.5t-17 14.5t-15 13.5t-15 15.5t-12 15t-11.5 18t-7.5 19t-6 22t-1.5 24q0 48 23 90.5t59 70t77 43.5t78 16z" />
    <glyph glyph-name="scedilla" unicode="&#x15f;" horiz-adv-x="325" 
d="M68 -2h36l-22 -31q13 1 22 1q21 0 34.5 -14.5t13.5 -35.5q0 -12 -6 -27.5t-19 -33t-39.5 -29.5t-61.5 -12q-41 0 -54 8q-5 11 -5 25q0 10 7.5 18t14.5 8q9 0 24 -10.5t28 -10.5q24 0 37.5 13t13.5 29q0 25 -21 25q-17 0 -34 -7q-2 0 -8.5 7.5t-3.5 10.5q6 9 21.5 33.5
t21.5 32.5zM214 449q64 0 98 -29q11 -14 11 -37q0 -28 -11 -44t-29 -16q-17 0 -29.5 12t-19 26.5t-18 26.5t-27.5 12q-19 0 -27 -10t-8 -33q0 -19 19.5 -50.5t42.5 -61t42.5 -65.5t19.5 -62q0 -54 -49.5 -90t-118.5 -36q-62 0 -100 32q-9 11 -9 34q0 28 11 44t29 16
q17 0 30.5 -12t20.5 -26.5t18.5 -26.5t24.5 -12q19 0 27 10t8 33q0 19 -19.5 50.5t-42.5 61t-42.5 65.5t-19.5 62q0 55 49.5 90.5t118.5 35.5z" />
    <glyph glyph-name="Scaron" unicode="&#x160;" horiz-adv-x="449" 
d="M333 810q28 17 71.5 39.5t51.5 22.5q11 0 6 -19q-24 -16 -84 -70l-46 -43q-11 -9 -16 -9q-6 0 -10 9q-11 21 -31 47q-34 45 -55 66q5 19 13 19t43.5 -22.5t56.5 -39.5zM305 670q25 0 48 -4.5t52.5 -12t50.5 -11.5q-25 -177 -29 -177h-14q-7 0 -11 1t-7.5 4.5t-3.5 11.5
q0 16 -5 37t-15.5 43t-30.5 37t-45 15q-26 0 -45.5 -12t-29.5 -30t-14.5 -33.5t-4.5 -27.5q0 -9 2 -17.5t6.5 -17t8.5 -15.5t12.5 -15.5t13.5 -14t16 -14.5t15.5 -13t17 -14t16.5 -13q7 -5 27.5 -20.5t29 -23.5t22 -24t18.5 -36t5 -45q0 -57 -23.5 -104.5t-60.5 -75.5
t-78.5 -43t-81.5 -15q-66 0 -165 26q5 43 5 88q0 16 -0.5 47l-0.5 31q0 8 24 8q4 0 13 -2.5t11 -5.5q0 -46 30 -90.5t76 -44.5q28 0 50 11.5t33.5 27t19 34t9.5 30.5t2 19q0 19 -12.5 39t-24 31t-37 31.5t-30.5 24.5q-3 2 -16.5 13.5t-17 14.5t-15 13.5t-15 15.5t-12 15
t-11.5 18t-7.5 19t-6 22t-1.5 24q0 48 23 90.5t59 70t77 43.5t78 16z" />
    <glyph glyph-name="scaron" unicode="&#x161;" horiz-adv-x="325" 
d="M231 604q26 20 67.5 47t48.5 27q9 0 4 -23q-28 -24 -81 -83q-12 -13 -26.5 -30.5t-17.5 -21.5q-10 -10 -13 -10q-7 0 -10 10q-13 34 -25 57q-26 49 -47 78q5 23 13 23q7 0 38.5 -27.5t48.5 -46.5zM214 449q64 0 98 -29q11 -14 11 -37q0 -28 -11 -44t-29 -16
q-17 0 -29.5 12t-19 26.5t-18 26.5t-27.5 12q-19 0 -27 -10t-8 -33q0 -19 19.5 -50.5t42.5 -61t42.5 -65.5t19.5 -62q0 -54 -49.5 -90t-118.5 -36q-62 0 -100 32q-9 11 -9 34q0 28 11 44t29 16q17 0 30.5 -12t20.5 -26.5t18.5 -26.5t24.5 -12q19 0 27 10t8 33
q0 19 -19.5 50.5t-42.5 61t-42.5 65.5t-19.5 62q0 55 49.5 90.5t118.5 35.5z" />
    <glyph glyph-name="Tcommaaccent" unicode="&#x162;" horiz-adv-x="573" 
d="M144 135l70 362q13 67 13 80q0 20 -13 25t-62 5q-38 0 -67 -22.5t-52 -75.5q-3 -5 -10 -5q-6 0 -15 2.5t-10 4.5l49 163q38 -11 62 -11q39 0 101 -3t101 -3t103 3t103 3q23 0 67 11l-15 -164q-2 -2 -12 -4.5t-16 -2.5q-8 0 -8 5q-2 53 -23 76t-58 23q-34 0 -53 -3
t-23 -6.5t-6 -8.5q-14 -31 -25 -89l-70 -361q-10 -52 -10 -80q0 -10 19.5 -19.5t28.5 -9.5q2 0 2 -5q0 -19 -7 -29q-12 1 -37.5 3t-47.5 3t-40 1q-25 0 -71 -3t-57 -4q-1 1 -1 6q0 7 2 17.5t4 10.5q11 0 32.5 6.5t26.5 15.5q15 26 25 83zM108 -101q0 24 35.5 34.5t78.5 10.5
q12 -13 12 -47q0 -33 -46 -70t-84 -45h-3q-6 0 -13.5 4.5t-7.5 9.5q0 1 14.5 9t28.5 20.5t14 23.5q0 10 -14.5 23t-14.5 27z" />
    <glyph glyph-name="tcommaaccent" unicode="&#x163;" horiz-adv-x="289" 
d="M112 527q1 6 31 9.5t57 3.5q19 0 31 -4l-23 -107h87q10 0 10 -17q0 -24 -12 -42h-96l-47 -242q-2 -6 -2 -23q0 -24 10 -24q14 0 39 21t34 32q2 0 10.5 -10t8.5 -14q-11 -27 -71.5 -72.5t-102.5 -45.5q-23 0 -38 14.5t-15 42.5q0 11 4 38.5t6 35.5l48 247h-56q-4 0 -4 12
q0 11 4.5 26.5t9.5 20.5h58zM33 -101q0 24 35.5 34.5t78.5 10.5q12 -13 12 -47q0 -33 -46 -70t-84 -45h-3q-6 0 -13.5 4.5t-7.5 9.5q0 1 14.5 9t28.5 20.5t14 23.5q0 10 -14.5 23t-14.5 27z" />
    <glyph glyph-name="Tcaron" unicode="&#x164;" horiz-adv-x="573" 
d="M343 814q28 17 71.5 39.5t51.5 22.5q11 0 6 -19q-24 -16 -84 -70l-46 -43q-11 -9 -16 -9q-6 0 -10 9q-11 21 -31 47q-34 45 -55 66q5 19 13 19t43.5 -22.5t56.5 -39.5zM144 135l70 362q13 67 13 80q0 20 -13 25t-62 5q-38 0 -67 -22.5t-52 -75.5q-3 -5 -10 -5
q-6 0 -15 2.5t-10 4.5l49 163q38 -11 62 -11q39 0 101 -3t101 -3t103 3t103 3q23 0 67 11l-15 -164q-2 -2 -12 -4.5t-16 -2.5q-8 0 -8 5q-2 53 -23 76t-58 23q-34 0 -53 -3t-23 -6.5t-6 -8.5q-14 -31 -25 -89l-70 -361q-10 -52 -10 -80q0 -10 19.5 -19.5t28.5 -9.5q2 0 2 -5
q0 -19 -7 -29q-12 1 -37.5 3t-47.5 3t-40 1q-25 0 -71 -3t-57 -4q-1 1 -1 6q0 7 2 17.5t4 10.5q11 0 32.5 6.5t26.5 15.5q15 26 25 83z" />
    <glyph glyph-name="tcaron" unicode="&#x165;" horiz-adv-x="289" 
d="M293 490q0 2 15 14.5t30 31.5t15 37q0 9 -10.5 25t-10.5 32q0 65 94 65q3 -9 3 -27q0 -24 -4 -44q-8 -45 -43 -90.5t-69 -65.5h-2q-4 0 -11 8.5t-7 13.5zM112 527q1 6 31 9.5t57 3.5q19 0 31 -4l-23 -107h87q10 0 10 -17q0 -24 -12 -42h-96l-47 -242q-2 -6 -2 -23
q0 -24 10 -24q14 0 39 21t34 32q2 0 10.5 -10t8.5 -14q-11 -27 -71.5 -72.5t-102.5 -45.5q-23 0 -38 14.5t-15 42.5q0 11 4 38.5t6 35.5l48 247h-56q-4 0 -4 12q0 11 4.5 26.5t9.5 20.5h58z" />
    <glyph glyph-name="Tbar" unicode="&#x166;" horiz-adv-x="610" 
d="M420 657q39 0 103 3t103 3q23 0 67 11l-15 -164q-7 -7 -28 -7q-8 0 -8 5q-4 99 -81 99q-75 0 -82 -18q-14 -31 -25 -89l-26 -136h93q7 0 6 -7q-9 -39 -16 -55q-1 -3 -3 -4.5t-4 -1.5h-1h-89l-30 -157q-9 -48 -8 -81q1 -7 23 -17.5t29 -10.5q4 0 1 -16q-3 -13 -6 -18
q-12 1 -38.5 3t-49 3t-40.5 1q-25 0 -76.5 -3.5t-59.5 -3.5q-3 6 -1 16q3 18 7 18q10 0 36 10t31 18q13 30 21 77l31 161h-91l-3 10q0 1 1 7t2 12.5t4 16t7 17.5q1 3 3 4t3 1h2h86l25 133q16 79 11 92q-2 6 -3.5 8.5t-18.5 6t-51 3.5q-77 0 -119 -98q-2 -5 -10 -5
q-20 0 -25 7l49 163q38 -11 62 -11q39 0 101 -3t101 -3z" />
    <glyph glyph-name="tbar" unicode="&#x167;" horiz-adv-x="319" 
d="M123 527q3 13 88 13q19 0 31 -4l-23 -107h87q10 0 10 -17q0 -24 -12 -42h-96l-10 -51h90q7 0 6 -7q-6 -28 -14 -47q-1 -3 -3 -4.5t-3 -1.5h-1h-87l-26 -134q-1 -4 -1 -13q0 -30 20 -30q8 0 20 14t21 28l9 15q6 0 18 -10t13 -19q-22 -40 -37.5 -61.5t-44.5 -39.5t-67 -18
q-29 0 -50 24.5t-21 68.5q0 20 4 39l26 136h-53l-3 10q0 1 0.5 5.5t1.5 9.5t3.5 13.5t6.5 16.5q1 3 3 4t3 1h1h49l10 51h-56q-4 0 -4 12q0 11 4.5 26.5t9.5 20.5h58z" />
    <glyph glyph-name="Utilde" unicode="&#x168;" horiz-adv-x="679" 
d="M120 739q-7 0 -3 22q5 26 26 50q45 51 92 51q36 0 83 -34t82 -34q18 0 45.5 28.5t32.5 28.5q8 0 4 -22q-5 -25 -27 -51q-42 -50 -90 -50q-36 0 -82.5 34t-82.5 34q-17 0 -46.5 -28.5t-33.5 -28.5zM85 522q11 68 8 78q-3 8 -23 16.5t-30 8.5q-3 0 0 17q3 18 5 20
q126 -6 134 -6q17 0 131 6v-18q-3 -19 -8 -19q-8 0 -35 -8.5t-30 -15.5q-13 -29 -23 -85l-46 -237q-18 -92 10 -148t94 -56q32 0 60.5 10.5t56 33.5t48.5 65.5t33 101.5l46 238q0 1 2 11.5t3 16.5t1.5 15.5t-0.5 16.5t-4 12q-7 11 -31.5 20t-35.5 9q-3 1 -2.5 8.5t2.5 17
t5 11.5q84 -8 121 -8q23 0 64 3.5t53 4.5q2 -8 0 -18q-1 -5 -4 -12t-5 -7q-8 0 -18.5 -1.5t-31 -9.5t-33.5 -22q-16 -16 -27 -73l-45 -228q-28 -146 -109 -221t-187 -75q-55 0 -95.5 17t-69 54.5t-34.5 97.5t9 147z" />
    <glyph glyph-name="utilde" unicode="&#x169;" horiz-adv-x="513" 
d="M244 629q29 0 67.5 -30.5t67.5 -30.5q15 0 39 24.5t25 24.5q6 -3 6 -16q0 -17 -34.5 -54t-64.5 -37t-68 30t-68 30q-13 0 -38 -25.5t-28 -25.5q-5 0 -5 19q0 25 36 58t65 33zM175 449q23 0 38 -14.5t15 -42.5q0 -29 -10 -74l-23 -119q-1 -4 -3.5 -17t-4.5 -24.5t-2 -16.5
q0 -21 6.5 -31t22.5 -10q25 0 65.5 85t53.5 151l21 105q20 6 56 6q35 0 59 -6l-60 -313q-2 -10 -2 -23q0 -24 10 -24q14 0 39.5 21t33.5 32q3 0 11 -10t8 -14q-11 -27 -71.5 -72.5t-102.5 -45.5q-22 0 -37.5 14.5t-15.5 42.5q0 16 8 64q0 2 0.5 4.5t1.5 8.5t1.5 9.5l0.5 3.5
q-26 -53 -68 -100t-75 -47q-44 0 -65 31t-21 78q0 24 16 107l20 105q2 6 2 23q0 24 -10 24q-14 0 -39.5 -21t-33.5 -32q-2 0 -10.5 10t-8.5 14q11 27 71.5 72.5t102.5 45.5z" />
    <glyph glyph-name="Umacron" unicode="&#x16a;" horiz-adv-x="679" 
d="M145 739q13 58 25 58h267q7 0 4 -10q-5 -22 -11 -36.5t-10 -18.5l-4 -4h-268h-1.5t-2 2.5t0.5 8.5zM85 522q11 68 8 78q-3 8 -23 16.5t-30 8.5q-3 0 0 17q3 18 5 20q126 -6 134 -6q17 0 131 6v-18q-3 -19 -8 -19q-8 0 -35 -8.5t-30 -15.5q-13 -29 -23 -85l-46 -237
q-18 -92 10 -148t94 -56q32 0 60.5 10.5t56 33.5t48.5 65.5t33 101.5l46 238q0 1 2 11.5t3 16.5t1.5 15.5t-0.5 16.5t-4 12q-7 11 -31.5 20t-35.5 9q-3 1 -2.5 8.5t2.5 17t5 11.5q84 -8 121 -8q23 0 64 3.5t53 4.5q2 -8 0 -18q-1 -5 -4 -12t-5 -7q-8 0 -18.5 -1.5t-31 -9.5
t-33.5 -22q-16 -16 -27 -73l-45 -228q-28 -146 -109 -221t-187 -75q-55 0 -95.5 17t-69 54.5t-34.5 97.5t9 147z" />
    <glyph glyph-name="umacron" unicode="&#x16b;" horiz-adv-x="513" 
d="M162 521q13 58 25 58h231q7 0 4 -10q-7 -31 -19 -51l-6 -8h-232h-1.5t-2 2.5t0.5 8.5zM175 449q23 0 38 -14.5t15 -42.5q0 -29 -10 -74l-23 -119q-1 -4 -3.5 -17t-4.5 -24.5t-2 -16.5q0 -21 6.5 -31t22.5 -10q25 0 65.5 85t53.5 151l21 105q20 6 56 6q35 0 59 -6
l-60 -313q-2 -10 -2 -23q0 -24 10 -24q14 0 39.5 21t33.5 32q3 0 11 -10t8 -14q-11 -27 -71.5 -72.5t-102.5 -45.5q-22 0 -37.5 14.5t-15.5 42.5q0 16 8 64q0 2 0.5 4.5t1.5 8.5t1.5 9.5l0.5 3.5q-26 -53 -68 -100t-75 -47q-44 0 -65 31t-21 78q0 24 16 107l20 105q2 6 2 23
q0 24 -10 24q-14 0 -39.5 -21t-33.5 -32q-2 0 -10.5 10t-8.5 14q11 27 71.5 72.5t102.5 45.5z" />
    <glyph glyph-name="Ubreve" unicode="&#x16c;" horiz-adv-x="679" 
d="M298 788q20 0 45 14.5t40 31.5q2 4 5 2q4 -2 11 -13t5 -16q-1 -1 -2 -3.5t-2 -3.5q-54 -72 -114 -72t-86 72q-1 2 -1 7t11 16t16 13q2 1 4 -2q8 -17 28 -31.5t40 -14.5zM85 522q11 68 8 78q-3 8 -23 16.5t-30 8.5q-3 0 0 17q3 18 5 20q126 -6 134 -6q17 0 131 6v-18
q-3 -19 -8 -19q-8 0 -35 -8.5t-30 -15.5q-13 -29 -23 -85l-46 -237q-18 -92 10 -148t94 -56q32 0 60.5 10.5t56 33.5t48.5 65.5t33 101.5l46 238q0 1 2 11.5t3 16.5t1.5 15.5t-0.5 16.5t-4 12q-7 11 -31.5 20t-35.5 9q-3 1 -2.5 8.5t2.5 17t5 11.5q84 -8 121 -8q23 0 64 3.5
t53 4.5q2 -8 0 -18q-1 -5 -4 -12t-5 -7q-8 0 -18.5 -1.5t-31 -9.5t-33.5 -22q-16 -16 -27 -73l-45 -228q-28 -146 -109 -221t-187 -75q-55 0 -95.5 17t-69 54.5t-34.5 97.5t9 147z" />
    <glyph glyph-name="ubreve" unicode="&#x16d;" horiz-adv-x="513" 
d="M301 570q22 0 45 15.5t36 42.5q2 3 4 3q5 0 15 -8.5t9 -13.5q0 -1 -3 -7q-19 -41 -50.5 -66.5t-67.5 -25.5q-37 0 -62 26t-28 66v7q1 5 14.5 13.5t18.5 8.5q3 0 3 -3q2 -27 22.5 -42.5t43.5 -15.5zM175 449q23 0 38 -14.5t15 -42.5q0 -29 -10 -74l-23 -119
q-1 -4 -3.5 -17t-4.5 -24.5t-2 -16.5q0 -21 6.5 -31t22.5 -10q25 0 65.5 85t53.5 151l21 105q20 6 56 6q35 0 59 -6l-60 -313q-2 -10 -2 -23q0 -24 10 -24q14 0 39.5 21t33.5 32q3 0 11 -10t8 -14q-11 -27 -71.5 -72.5t-102.5 -45.5q-22 0 -37.5 14.5t-15.5 42.5q0 16 8 64
q0 2 0.5 4.5t1.5 8.5t1.5 9.5l0.5 3.5q-26 -53 -68 -100t-75 -47q-44 0 -65 31t-21 78q0 24 16 107l20 105q2 6 2 23q0 24 -10 24q-14 0 -39.5 -21t-33.5 -32q-2 0 -10.5 10t-8.5 14q11 27 71.5 72.5t102.5 45.5z" />
    <glyph glyph-name="Uring" unicode="&#x16e;" horiz-adv-x="679" 
d="M256 827q-5 -23 6.5 -38.5t32.5 -15.5t38 15.5t22 38.5t-6.5 38.5t-32.5 15.5t-38 -15.5t-22 -38.5zM213 827q7 40 40 69t71 29t59 -29t14 -69t-40 -69.5t-71 -29.5q-37 0 -59 29t-14 70zM85 522q11 68 8 78q-3 8 -23 16.5t-30 8.5q-3 0 0 17q3 18 5 20q126 -6 134 -6
q17 0 131 6v-18q-3 -19 -8 -19q-8 0 -35 -8.5t-30 -15.5q-13 -29 -23 -85l-46 -237q-18 -92 10 -148t94 -56q32 0 60.5 10.5t56 33.5t48.5 65.5t33 101.5l46 238q0 1 2 11.5t3 16.5t1.5 15.5t-0.5 16.5t-4 12q-7 11 -31.5 20t-35.5 9q-3 1 -2.5 8.5t2.5 17t5 11.5
q84 -8 121 -8q23 0 64 3.5t53 4.5q2 -8 0 -18q-1 -5 -4 -12t-5 -7q-8 0 -18.5 -1.5t-31 -9.5t-33.5 -22q-16 -16 -27 -73l-45 -228q-28 -146 -109 -221t-187 -75q-55 0 -95.5 17t-69 54.5t-34.5 97.5t9 147z" />
    <glyph glyph-name="uring" unicode="&#x16f;" horiz-adv-x="513" 
d="M315 663q-26 0 -43.5 -21t-17.5 -46q0 -18 10 -29.5t30 -11.5q26 0 43.5 21t17.5 46q0 18 -10 29.5t-30 11.5zM324 707q33 0 53.5 -22.5t20.5 -56.5q0 -46 -35.5 -82t-77.5 -36q-33 0 -53.5 22.5t-20.5 56.5q0 47 35.5 82.5t77.5 35.5zM175 449q23 0 38 -14.5t15 -42.5
q0 -29 -10 -74l-23 -119q-1 -4 -3.5 -17t-4.5 -24.5t-2 -16.5q0 -21 6.5 -31t22.5 -10q25 0 65.5 85t53.5 151l21 105q20 6 56 6q35 0 59 -6l-60 -313q-2 -10 -2 -23q0 -24 10 -24q14 0 39.5 21t33.5 32q3 0 11 -10t8 -14q-11 -27 -71.5 -72.5t-102.5 -45.5
q-22 0 -37.5 14.5t-15.5 42.5q0 16 8 64q0 2 0.5 4.5t1.5 8.5t1.5 9.5l0.5 3.5q-26 -53 -68 -100t-75 -47q-44 0 -65 31t-21 78q0 24 16 107l20 105q2 6 2 23q0 24 -10 24q-14 0 -39.5 -21t-33.5 -32q-2 0 -10.5 10t-8.5 14q11 27 71.5 72.5t102.5 45.5z" />
    <glyph glyph-name="Uhungarumlaut" unicode="&#x170;" horiz-adv-x="679" 
d="M554 795q0 -18 -89.5 -49t-109.5 -31q-5 0 -9.5 7t-4.5 12q0 3 18 20t45 38t48 33q14 8 32 8q24 0 47 -9t23 -29zM359 795q0 -18 -89.5 -49t-109.5 -31q-5 0 -9.5 7t-4.5 12q0 3 18 20t45 38t48 33q14 8 32 8q24 0 47 -9t23 -29zM85 522q11 68 8 78q-3 8 -23 16.5
t-30 8.5q-3 0 0 17q3 18 5 20q126 -6 134 -6q17 0 131 6v-18q-3 -19 -8 -19q-8 0 -35 -8.5t-30 -15.5q-13 -29 -23 -85l-46 -237q-18 -92 10 -148t94 -56q32 0 60.5 10.5t56 33.5t48.5 65.5t33 101.5l46 238q0 1 2 11.5t3 16.5t1.5 15.5t-0.5 16.5t-4 12q-7 11 -31.5 20
t-35.5 9q-3 1 -2.5 8.5t2.5 17t5 11.5q84 -8 121 -8q23 0 64 3.5t53 4.5q2 -8 0 -18q-1 -5 -4 -12t-5 -7q-8 0 -18.5 -1.5t-31 -9.5t-33.5 -22q-16 -16 -27 -73l-45 -228q-28 -146 -109 -221t-187 -75q-55 0 -95.5 17t-69 54.5t-34.5 97.5t9 147z" />
    <glyph glyph-name="uhungarumlaut" unicode="&#x171;" horiz-adv-x="513" 
d="M337 482q-4 0 -9 8.5t-5 13.5q0 7 41.5 56t62.5 69q4 3 13 3q23 0 39.5 -15t16.5 -29q0 -25 -71 -65.5t-88 -40.5zM193 482q-4 0 -9 8.5t-5 13.5q0 7 41.5 56t62.5 69q4 3 13 3q23 0 39.5 -15t16.5 -29q0 -25 -71 -65.5t-88 -40.5zM175 449q23 0 38 -14.5t15 -42.5
q0 -29 -10 -74l-23 -119q-1 -4 -3.5 -17t-4.5 -24.5t-2 -16.5q0 -21 6.5 -31t22.5 -10q25 0 65.5 85t53.5 151l21 105q20 6 56 6q35 0 59 -6l-60 -313q-2 -10 -2 -23q0 -24 10 -24q14 0 39.5 21t33.5 32q3 0 11 -10t8 -14q-11 -27 -71.5 -72.5t-102.5 -45.5
q-22 0 -37.5 14.5t-15.5 42.5q0 16 8 64q0 2 0.5 4.5t1.5 8.5t1.5 9.5l0.5 3.5q-26 -53 -68 -100t-75 -47q-44 0 -65 31t-21 78q0 24 16 107l20 105q2 6 2 23q0 24 -10 24q-14 0 -39.5 -21t-33.5 -32q-2 0 -10.5 10t-8.5 14q11 27 71.5 72.5t102.5 45.5z" />
    <glyph glyph-name="Uogonek" unicode="&#x172;" horiz-adv-x="695" 
d="M274 -118q0 -26 28 -26q21 0 38.5 7t27.5 13.5t11 6.5q5 -1 1.5 -16.5t-6.5 -18.5q-22 -25 -56 -44.5t-63 -19.5q-23 0 -40 16.5t-17 42.5q0 30 29 75.5t64 78.5q-15 -2 -44 -2q-93 0 -148 50.5t-55 155.5q0 45 10 95l44 227q9 48 9 73q0 15 -18 23.5t-29 8.5q-1 0 -1 4
q0 24 6 30q15 -1 39 -2.5t44 -2.5t39 -1q18 0 132 6v-5q0 -8 -2.5 -18.5t-5.5 -10.5q-8 0 -31.5 -8.5t-27.5 -15.5q-14 -25 -24 -85l-44 -223q-12 -60 -12 -104q0 -60 26.5 -88.5t86.5 -28.5q38 0 64.5 7t53.5 26.5t46 60t31 102.5l47 242q15 81 13 93q-1 10 -29.5 16
t-44.5 6q-1 0 -1 6q0 20 8 28q105 -5 117 -5q14 0 109 5q0 -34 -8 -34q-14 0 -46.5 -4.5t-35.5 -11.5q-5 -13 -22 -98l-47 -238q-33 -169 -130 -236q-49 -35 -92.5 -80t-43.5 -78z" />
    <glyph glyph-name="uogonek" unicode="&#x173;" horiz-adv-x="544" 
d="M231 99q27 0 63 86.5t49 149.5l22 108q20 6 56 6q35 0 59 -6l-60 -315q-1 -3 -1 -16q0 -30 20 -30q7 0 19 14t21 28.5t10 14.5q6 0 17.5 -9.5t14.5 -19.5q-7 -17 -28.5 -45.5t-48.5 -50.5q-32 -26 -50 -42.5t-33.5 -41.5t-15.5 -48q0 -26 28 -26q21 0 38.5 7t27.5 13.5
t11 6.5q5 -1 1.5 -16.5t-6.5 -18.5q-22 -25 -56 -44.5t-63 -19.5q-23 0 -40 16.5t-17 42.5q0 62 82 152q-26 9 -41 34t-15 55q0 21 7 44q0 2 -2 2q-1 -1 -1 -2q-64 -137 -131 -137q-44 0 -65 31t-21 78q0 29 15 107l19 102q3 15 3 19q0 30 -20 30q-7 0 -19 -14t-21 -28.5
t-10 -14.5q-6 0 -17.5 9.5t-14.5 19.5q9 21 24 45t49 49t73 25q74 0 74 -97q0 -10 -7 -52q-29 -114 -29 -160q0 -41 30 -41z" />
    <glyph glyph-name="Wcircumflex" unicode="&#x174;" horiz-adv-x="1015" 
d="M562 728q-8 0 -48.5 22.5t-63.5 39.5q-31 -17 -81 -39.5t-58 -22.5q-12 0 -7 19q32 19 92 65q35 28 55 48q10 9 16 9q4 0 13 -9l13.5 -18l19.5 -26q40 -48 64 -69q-5 -19 -15 -19zM149 656q14 0 128 6v-5q0 -9 -2 -20.5t-5 -11.5q-44 0 -50 -34q-1 -8 5 -31
q103 -368 104 -368q1 -1 24 29t44 59l22 30l-60 217q-18 64 -25 73q-18 25 -49 25q-3 0 0 19q3 16 5 18q126 -6 128 -6q10 0 124 6v-6q0 -9 -2 -20t-5 -11q-15 0 -30.5 -7.5t-18.5 -24.5q-1 -8 5 -31l32 -115l62 95q27 42 29 52t-6 17t-20 10t-21 4t-15 1q-2 0 -2 11
q0 19 8 25q87 -6 109 -6q4 0 118 6q1 -6 -1.5 -21t-5.5 -15q-14 0 -38.5 -10t-35.5 -20q-32 -31 -69 -86l-92 -138l52 -175q2 1 97.5 143t136.5 204q23 35 26 50q2 12 -12 20t-27 10t-21 2q-2 0 -2 13q0 17 8 23q87 -6 110 -6q21 0 40.5 1t42 2.5t34.5 2.5q0 -36 -7 -36
q-14 0 -37 -9t-34 -19q-31 -29 -71 -88l-325 -491q-10 -15 -21 -23.5t-17 -8.5q-7 0 -9 5l-68 241l-153 -214q-10 -14 -21 -23t-17 -9q-5 0 -7 5l-148 535q-15 53 -28 77q-5 10 -22.5 15.5t-29.5 5.5q-3 0 0 19q3 16 5 18q126 -6 131 -6z" />
    <glyph glyph-name="wcircumflex" unicode="&#x175;" horiz-adv-x="686" 
d="M419 510q-7 0 -38.5 27.5t-48.5 46.5q-26 -20 -67.5 -47t-48.5 -27q-8 0 -3 23q20 17 76 78q22 25 47 57q7 10 15 10q4 0 9 -10q0 -1 8.5 -19.5t15.5 -32.5q30 -58 48 -83q-5 -23 -13 -23zM175 449q23 0 38 -14.5t15 -42.5t-8 -64l-32 -163q-3 -15 -3 -37q0 -40 26 -40
q57 0 101 77q7 69 14.5 114.5t18.5 87.5t27.5 62t38.5 20q31 0 43 -18.5t12 -51.5q0 -53 -38 -197q-2 -14 -2 -34q0 -36 5.5 -48t22.5 -12q27 0 61 31.5t58.5 79.5t24.5 89q0 23 -18.5 52.5t-18.5 54.5q0 26 21.5 40t47.5 14q29 0 41 -11q10 -17 10 -58q0 -66 -29.5 -137
t-72 -124.5t-90.5 -88t-85 -34.5q-42 0 -70.5 22t-29.5 65q-80 -87 -143 -87q-42 0 -70.5 24.5t-28.5 68.5q0 26 5 52l34 172q2 10 2 23q0 24 -10 24q-14 0 -39.5 -21t-33.5 -32q-2 0 -10.5 10t-8.5 14q11 27 71.5 72.5t102.5 45.5z" />
    <glyph glyph-name="Ycircumflex" unicode="&#x176;" horiz-adv-x="590" 
d="M341 728q-8 0 -48.5 22.5t-63.5 39.5q-31 -17 -81 -39.5t-58 -22.5q-12 0 -7 19q32 19 92 65q35 28 55 48q10 9 16 9q4 0 13 -9l13.5 -18l19.5 -26q40 -48 64 -69q-5 -19 -15 -19zM151 656q19 0 133 6q1 -2 1 -9q0 -9 -3 -18.5t-5 -9.5q-14 0 -33 -5.5t-21 -15.5t3 -22
l63 -179q140 178 145 200q2 10 -12.5 16t-42.5 6q-2 0 -2 9q0 21 8 28q84 -6 112 -6q25 0 106 6q0 -13 -1 -18q-3 -18 -7 -18q-17 0 -40.5 -9t-39.5 -27q-30 -34 -123 -153.5t-95 -132.5l-31 -159q-11 -52 -9 -87q0 -7 22 -16t30 -9q3 0 0 -19q-3 -15 -5 -18q-7 0 -55.5 4
t-72.5 4q-25 0 -74.5 -3.5t-61.5 -4.5q-3 6 -1 16q3 21 7 21q10 0 35.5 8.5t30.5 16.5q11 27 23 81l33 170q1 7 -17 64t-37 110l-18 54q-19 60 -36 73q-9 6 -23.5 10.5t-23.5 4.5q-2 0 -2 9q0 7 3 16t7 12q5 0 53.5 -3t76.5 -3z" />
    <glyph glyph-name="ycircumflex" unicode="&#x177;" horiz-adv-x="509" 
d="M422 510q-7 0 -38.5 27.5t-48.5 46.5q-26 -20 -67.5 -47t-48.5 -27q-8 0 -3 23q20 17 76 78q22 25 47 57q7 10 15 10q4 0 9 -10q0 -1 8.5 -19.5t15.5 -32.5q30 -58 48 -83q-5 -23 -13 -23zM219 449q12 0 23 -10.5t20 -27.5t17 -41.5t14.5 -50t12 -55t9 -55.5t7 -52.5
t5 -43.5t3 -32l1.5 -15q16 20 50.5 90.5t34.5 116.5q0 27 -12 61.5t-24 54.5q0 23 20 41.5t45 18.5q23 0 39.5 -16t16.5 -39q0 -86 -32 -177.5t-83 -167t-111 -137t-121.5 -96t-109.5 -34.5q-26 0 -43 12.5t-17 40.5q0 25 18 45q44 -12 76 -12t56.5 8.5t35.5 18t23 24.5
q21 27 21 89q0 57 -14 146t-39 178q-8 28 -24 28q-14 0 -39.5 -21t-33.5 -32q-3 0 -11 10t-8 14q11 27 71.5 72.5t102.5 45.5z" />
    <glyph glyph-name="Ydieresis" unicode="&#x178;" horiz-adv-x="590" 
d="M253 802q6 31 30.5 52.5t52.5 21.5q29 0 45 -21.5t10 -52.5t-30.5 -52.5t-52.5 -21.5q-29 0 -45 21.5t-10 52.5zM39 802q6 31 30.5 52.5t52.5 21.5q29 0 45 -21.5t10 -52.5t-30.5 -52.5t-52.5 -21.5q-29 0 -45 21.5t-10 52.5zM151 656q19 0 133 6q1 -2 1 -9
q0 -9 -3 -18.5t-5 -9.5q-14 0 -33 -5.5t-21 -15.5t3 -22l63 -179q140 178 145 200q2 10 -12.5 16t-42.5 6q-2 0 -2 9q0 21 8 28q84 -6 112 -6q25 0 106 6q0 -13 -1 -18q-3 -18 -7 -18q-17 0 -40.5 -9t-39.5 -27q-30 -34 -123 -153.5t-95 -132.5l-31 -159q-11 -52 -9 -87
q0 -7 22 -16t30 -9q3 0 0 -19q-3 -15 -5 -18q-7 0 -55.5 4t-72.5 4q-25 0 -74.5 -3.5t-61.5 -4.5q-3 6 -1 16q3 21 7 21q10 0 35.5 8.5t30.5 16.5q11 27 23 81l33 170q1 7 -17 64t-37 110l-18 54q-19 60 -36 73q-9 6 -23.5 10.5t-23.5 4.5q-2 0 -2 9q0 7 3 16t7 12
q5 0 53.5 -3t76.5 -3z" />
    <glyph glyph-name="Zacute" unicode="&#x179;" horiz-adv-x="615" 
d="M316 715q-5 0 -9.5 7t-4.5 12q0 3 18 20t45 38t48 33q14 8 32 8q24 0 47 -9t23 -29q0 -18 -89.5 -49t-109.5 -31zM303 656h102q85 0 217 10q3 -1 4 -13.5t-1 -19.5q-1 -4 -112.5 -141.5t-222.5 -273.5l-111 -136q-9 -11 -10 -15q-1 -5 2 -7.5t9 -2.5h148q65 0 113.5 34
t73.5 83q3 6 13 6q23 0 28 -6q-8 -17 -30.5 -59.5t-34.5 -68t-19 -46.5h-481q-7 12 -3 26q2 12 7 17l451 556h-159q-33 0 -57 -7.5t-41 -24.5t-25.5 -30.5t-23.5 -41.5q-4 -7 -6 -11q-4 -6 -13 -6q-27 0 -30 4q43 112 63 180q21 -6 149 -6z" />
    <glyph glyph-name="zacute" unicode="&#x17a;" horiz-adv-x="431" 
d="M236 482q-4 0 -9 8.5t-5 13.5q0 7 41.5 56t62.5 69q4 3 13 3q23 0 39.5 -15t16.5 -29q0 -25 -71 -65.5t-88 -40.5zM170 449q35 0 89 -11t89 -11q15 0 37.5 11t37.5 11q19 0 19 -34l-304 -307q6 1 15 4t16.5 5t15.5 2q24 0 61 -11t62 -11q15 0 30 12.5t26 25t15 12.5
q12 0 21 -28l-13 -26t-18.5 -30.5t-26.5 -33t-31.5 -23t-38.5 -10.5q-35 0 -88.5 12t-87.5 12q-20 0 -49 -12t-39 -12q-9 0 -15 9.5t-7 17.5l305 314q-20 -9 -37 -9q-21 0 -51.5 11t-55.5 11q-15 0 -30 -13t-26.5 -25.5t-16.5 -12.5q-6 0 -13.5 8t-11.5 17q17 41 52.5 83
t68.5 42z" />
    <glyph glyph-name="Zdotaccent" unicode="&#x17b;" horiz-adv-x="615" 
d="M322 802q6 31 30.5 52.5t52.5 21.5q29 0 45 -21.5t10 -52.5t-30.5 -52.5t-53.5 -21.5q-28 0 -44 21.5t-10 52.5zM303 656h102q85 0 217 10q3 -1 4 -13.5t-1 -19.5q-1 -4 -112.5 -141.5t-222.5 -273.5l-111 -136q-9 -11 -10 -15q-1 -5 2 -7.5t9 -2.5h148q65 0 113.5 34
t73.5 83q3 6 13 6q23 0 28 -6q-8 -17 -30.5 -59.5t-34.5 -68t-19 -46.5h-481q-7 12 -3 26q2 12 7 17l451 556h-159q-33 0 -57 -7.5t-41 -24.5t-25.5 -30.5t-23.5 -41.5q-4 -7 -6 -11q-4 -6 -13 -6q-27 0 -30 4q43 112 63 180q21 -6 149 -6z" />
    <glyph glyph-name="zdotaccent" unicode="&#x17c;" horiz-adv-x="431" 
d="M241 614q6 31 30 52t53 21t45 -21t10 -52t-30.5 -52.5t-52.5 -21.5q-29 0 -45 21.5t-10 52.5zM170 449q35 0 89 -11t89 -11q15 0 37.5 11t37.5 11q19 0 19 -34l-304 -307q6 1 15 4t16.5 5t15.5 2q24 0 61 -11t62 -11q15 0 30 12.5t26 25t15 12.5q12 0 21 -28l-13 -26
t-18.5 -30.5t-26.5 -33t-31.5 -23t-38.5 -10.5q-35 0 -88.5 12t-87.5 12q-20 0 -49 -12t-39 -12q-9 0 -15 9.5t-7 17.5l305 314q-20 -9 -37 -9q-21 0 -51.5 11t-55.5 11q-15 0 -30 -13t-26.5 -25.5t-16.5 -12.5q-6 0 -13.5 8t-11.5 17q17 41 52.5 83t68.5 42z" />
    <glyph glyph-name="Zcaron" unicode="&#x17d;" horiz-adv-x="615" 
d="M380 807q28 17 71.5 39.5t51.5 22.5q11 0 6 -19q-24 -16 -84 -70l-46 -43q-11 -9 -16 -9q-6 0 -10 9q-11 21 -31 47q-34 45 -55 66q5 19 13 19t43.5 -22.5t56.5 -39.5zM303 656h102q85 0 217 10q3 -1 4 -13.5t-1 -19.5q-1 -4 -112.5 -141.5t-222.5 -273.5l-111 -136
q-9 -11 -10 -15q-1 -5 2 -7.5t9 -2.5h148q65 0 113.5 34t73.5 83q3 6 13 6q23 0 28 -6q-8 -17 -30.5 -59.5t-34.5 -68t-19 -46.5h-481q-7 12 -3 26q2 12 7 17l451 556h-159q-33 0 -57 -7.5t-41 -24.5t-25.5 -30.5t-23.5 -41.5q-4 -7 -6 -11q-4 -6 -13 -6q-27 0 -30 4
q43 112 63 180q21 -6 149 -6z" />
    <glyph glyph-name="zcaron" unicode="&#x17e;" horiz-adv-x="431" 
d="M287 604q26 20 67.5 47t48.5 27q9 0 4 -23q-28 -24 -81 -83q-12 -13 -26.5 -30.5t-17.5 -21.5q-10 -10 -13 -10q-7 0 -10 10q-13 34 -25 57q-26 49 -47 78q5 23 13 23q7 0 38.5 -27.5t48.5 -46.5zM170 449q35 0 89 -11t89 -11q15 0 37.5 11t37.5 11q19 0 19 -34
l-304 -307q6 1 15 4t16.5 5t15.5 2q24 0 61 -11t62 -11q15 0 30 12.5t26 25t15 12.5q12 0 21 -28l-13 -26t-18.5 -30.5t-26.5 -33t-31.5 -23t-38.5 -10.5q-35 0 -88.5 12t-87.5 12q-20 0 -49 -12t-39 -12q-9 0 -15 9.5t-7 17.5l305 314q-20 -9 -37 -9q-21 0 -51.5 11
t-55.5 11q-15 0 -30 -13t-26.5 -25.5t-16.5 -12.5q-6 0 -13.5 8t-11.5 17q17 41 52.5 83t68.5 42z" />
    <glyph glyph-name="Scommaaccent" unicode="&#x218;" horiz-adv-x="449" 
d="M90 -101q0 24 35.5 34.5t78.5 10.5q12 -13 12 -47q0 -33 -46 -70t-84 -45h-3q-6 0 -13.5 4.5t-7.5 9.5q0 1 14.5 9t28.5 20.5t14 23.5q0 10 -14.5 23t-14.5 27zM305 670q25 0 48 -4.5t52.5 -12t50.5 -11.5q-25 -177 -29 -177h-14q-7 0 -11 1t-7.5 4.5t-3.5 11.5
q0 16 -5 37t-15.5 43t-30.5 37t-45 15q-26 0 -45.5 -12t-29.5 -30t-14.5 -33.5t-4.5 -27.5q0 -9 2 -17.5t6.5 -17t8.5 -15.5t12.5 -15.5t13.5 -14t16 -14.5t15.5 -13t17 -14t16.5 -13q7 -5 27.5 -20.5t29 -23.5t22 -24t18.5 -36t5 -45q0 -57 -23.5 -104.5t-60.5 -75.5
t-78.5 -43t-81.5 -15q-66 0 -165 26q5 43 5 88q0 16 -0.5 47l-0.5 31q0 8 24 8q4 0 13 -2.5t11 -5.5q0 -46 30 -90.5t76 -44.5q28 0 50 11.5t33.5 27t19 34t9.5 30.5t2 19q0 19 -12.5 39t-24 31t-37 31.5t-30.5 24.5q-3 2 -16.5 13.5t-17 14.5t-15 13.5t-15 15.5t-12 15
t-11.5 18t-7.5 19t-6 22t-1.5 24q0 48 23 90.5t59 70t77 43.5t78 16z" />
    <glyph glyph-name="scommaaccent" unicode="&#x219;" horiz-adv-x="325" 
d="M47 -101q0 24 35.5 34.5t78.5 10.5q12 -13 12 -47q0 -33 -46 -70t-84 -45h-3q-6 0 -13.5 4.5t-7.5 9.5q0 1 14.5 9t28.5 20.5t14 23.5q0 10 -14.5 23t-14.5 27zM214 449q64 0 98 -29q11 -14 11 -37q0 -28 -11 -44t-29 -16q-17 0 -29.5 12t-19 26.5t-18 26.5t-27.5 12
q-19 0 -27 -10t-8 -33q0 -19 19.5 -50.5t42.5 -61t42.5 -65.5t19.5 -62q0 -54 -49.5 -90t-118.5 -36q-62 0 -100 32q-9 11 -9 34q0 28 11 44t29 16q17 0 30.5 -12t20.5 -26.5t18.5 -26.5t24.5 -12q19 0 27 10t8 33q0 19 -19.5 50.5t-42.5 61t-42.5 65.5t-19.5 62
q0 55 49.5 90.5t118.5 35.5z" />
    <glyph glyph-name="uni021A" unicode="&#x21a;" horiz-adv-x="573" 
d="M108 -101q0 24 35.5 34.5t78.5 10.5q12 -13 12 -47q0 -33 -46 -70t-84 -45h-3q-6 0 -13.5 4.5t-7.5 9.5q0 1 14.5 9t28.5 20.5t14 23.5q0 10 -14.5 23t-14.5 27zM144 135l70 362q13 67 13 80q0 20 -13 25t-62 5q-38 0 -67 -22.5t-52 -75.5q-3 -5 -10 -5q-6 0 -15 2.5
t-10 4.5l49 163q38 -11 62 -11q39 0 101 -3t101 -3t103 3t103 3q23 0 67 11l-15 -164q-2 -2 -12 -4.5t-16 -2.5q-8 0 -8 5q-2 53 -23 76t-58 23q-34 0 -53 -3t-23 -6.5t-6 -8.5q-14 -31 -25 -89l-70 -361q-10 -52 -10 -80q0 -10 19.5 -19.5t28.5 -9.5q2 0 2 -5q0 -19 -7 -29
q-12 1 -37.5 3t-47.5 3t-40 1q-25 0 -71 -3t-57 -4q-1 1 -1 6q0 7 2 17.5t4 10.5q11 0 32.5 6.5t26.5 15.5q15 26 25 83z" />
    <glyph glyph-name="uni021B" unicode="&#x21b;" horiz-adv-x="289" 
d="M33 -101q0 24 35.5 34.5t78.5 10.5q12 -13 12 -47q0 -33 -46 -70t-84 -45h-3q-6 0 -13.5 4.5t-7.5 9.5q0 1 14.5 9t28.5 20.5t14 23.5q0 10 -14.5 23t-14.5 27zM112 527q1 6 31 9.5t57 3.5q19 0 31 -4l-23 -107h87q10 0 10 -17q0 -24 -12 -42h-96l-47 -242q-2 -6 -2 -23
q0 -24 10 -24q14 0 39 21t34 32q2 0 10.5 -10t8.5 -14q-11 -27 -71.5 -72.5t-102.5 -45.5q-23 0 -38 14.5t-15 42.5q0 11 4 38.5t6 35.5l48 247h-56q-4 0 -4 12q0 11 4.5 26.5t9.5 20.5h58z" />
    <glyph glyph-name="uni0237" unicode="&#x237;" horiz-adv-x="363" 
d="M228 449q30 0 52.5 -22.5t22.5 -73.5q0 -28 -41 -233q-27 -143 -86 -222q-29 -38 -83 -73t-81 -43q-16 10 -16 25q0 9 3 12q67 59 94 113t49 168l40 212q2 6 2 16q0 30 -20 30q-7 0 -19.5 -14t-21.5 -28.5t-10 -14.5q-6 0 -17 9.5t-14 19.5q15 37 54 78t92 41z" />
    <glyph glyph-name="uni02F3" unicode="&#x2f3;" horiz-adv-x="228" 
d="M311 535q-17 0 -88 40.5t-71 65.5q0 14 16.5 29t39.5 15q8 0 13 -3q21 -20 62.5 -69t41.5 -56q0 -5 -5 -13.5t-9 -8.5z" />
    <glyph glyph-name="uni02F4" unicode="&#x2f4;" horiz-adv-x="228" 
d="M198 535q-4 0 -9 8.5t-5 13.5q0 7 41.5 56t62.5 69q4 3 13 3q23 0 39.5 -15t16.5 -29q0 -25 -71 -65.5t-88 -40.5z" />
    <glyph glyph-name="uni02F5" unicode="&#x2f5;" horiz-adv-x="266" 
d="M239 706q-8 0 -40 18.5t-53 34.5q-28 -16 -68 -34.5t-48 -18.5q-5 0 -6 7.5t0 12.5q4 4 28 23.5l40 32.5q31 26 48 46q9 9 16 9q8 0 15 -9q17 -25 33 -44q9 -11 22 -26t19.5 -23t6.5 -9q-5 -20 -13 -20z" />
    <glyph glyph-name="uni02F6" unicode="&#x2f6;" horiz-adv-x="400" 
d="M516 791q0 -23 -31.5 -55.5t-75.5 -32.5q-33 0 -79 27t-79 27q-16 0 -44.5 -22.5t-29.5 -22.5q-5 0 -5 17q0 25 34 58t76 33q33 0 78.5 -27t78.5 -27q12 0 29 11t29.5 22.5t13.5 11.5q5 0 5 -20z" />
    <glyph glyph-name="gravecomb" unicode="&#x300;" horiz-adv-x="228" 
d="M311 494q-17 0 -88 40.5t-71 65.5q0 14 16.5 29t39.5 15q8 0 13 -3q21 -20 62.5 -69t41.5 -56q0 -5 -5 -13.5t-9 -8.5z" />
    <glyph glyph-name="acutecomb" unicode="&#x301;" horiz-adv-x="228" 
d="M198 494q-4 0 -9 8.5t-5 13.5q0 7 41.5 56t62.5 69q4 3 13 3q23 0 39.5 -15t16.5 -29q0 -25 -71 -65.5t-88 -40.5z" />
    <glyph glyph-name="uni0302" unicode="&#x302;" horiz-adv-x="263" 
d="M334 493q-7 0 -38.5 27.5t-48.5 46.5q-26 -20 -67.5 -47t-48.5 -27q-8 0 -3 23q20 17 76 78q22 25 47 57q7 10 15 10q4 0 9 -10q0 -1 8.5 -19.5t15.5 -32.5q30 -58 48 -83q-5 -23 -13 -23z" />
    <glyph glyph-name="tildecomb" unicode="&#x303;" horiz-adv-x="410" 
d="M260 636q29 0 67.5 -30.5t67.5 -30.5q15 0 39 24.5t25 24.5q6 -3 6 -16q0 -17 -34.5 -54t-64.5 -37t-68 30t-68 30q-13 0 -38 -25.5t-28 -25.5q-5 0 -5 19q0 25 36 58t65 33z" />
    <glyph glyph-name="uni0304" unicode="&#x304;" horiz-adv-x="354" 
d="M157 541q13 58 25 58h231q7 0 4 -10q-7 -31 -19 -51l-6 -8h-232h-1.5t-2 2.5t0.5 8.5z" />
    <glyph glyph-name="uni0305" unicode="&#x305;" horiz-adv-x="526" 
d="M131 744q0 5 9.5 33.5t15.5 28.5h541q6 0 4 -9q-5 -30 -18 -56q-1 -3 -3.5 -4.5t-3.5 -2.5h-2h-539z" />
    <glyph glyph-name="uni0306" unicode="&#x306;" horiz-adv-x="233" 
d="M233 581q22 0 45 15.5t36 42.5q2 3 4 3q5 0 15 -8.5t9 -13.5q0 -1 -3 -7q-19 -41 -50.5 -66.5t-67.5 -25.5q-37 0 -62 26t-28 66v7q1 5 14.5 13.5t18.5 8.5q3 0 3 -3q2 -27 22.5 -42.5t43.5 -15.5z" />
    <glyph glyph-name="uni0307" unicode="&#x307;" horiz-adv-x="285" 
d="M191 616q6 31 30 52t53 21t45 -21t10 -52t-30.5 -52.5t-52.5 -21.5q-29 0 -45 21.5t-10 52.5z" />
    <glyph glyph-name="uni0308" unicode="&#x308;" horiz-adv-x="343" 
d="M371 604q27 0 41.5 -20t9.5 -49t-28.5 -49.5t-50.5 -20.5t-41.5 20.5t-9.5 49.5q5 28 28.5 48.5t50.5 20.5zM195 604q27 0 41.5 -20t9.5 -49t-28 -49.5t-50 -20.5t-41.5 20.5t-9.5 49.5t28 49t50 20z" />
    <glyph glyph-name="hookabovecomb" unicode="&#x309;" horiz-adv-x="167" 
d="M242 674q28 0 43 -16.5t10 -41.5q-5 -26 -22.5 -45.5t-39.5 -28.5q-35 -14 -38 -27q0 -1 -0.5 -3.5t-0.5 -4.5q-1 -2 -14.5 -5.5t-23.5 -3.5q-9 7 -6 17q5 29 51 49q36 16 42 42q5 30 -17 30q-30 0 -38 -36q-4 -22 -41 -22q-7 0 -12.5 4.5t-4.5 12.5q7 36 40.5 57.5
t71.5 21.5z" />
    <glyph glyph-name="uni030A" unicode="&#x30a;" horiz-adv-x="426" 
d="M267 609q-5 -23 6.5 -38.5t32.5 -15.5t38 15.5t22 38.5t-6.5 38.5t-32.5 15.5t-38 -15.5t-22 -38.5zM224 609q7 40 40.5 69t71.5 29q37 0 58.5 -28.5t13.5 -69.5q-7 -40 -40 -69.5t-71 -29.5q-37 0 -59 29t-14 70z" />
    <glyph glyph-name="uni030B" unicode="&#x30b;" horiz-adv-x="350" 
d="M284 494q-4 0 -9 8.5t-5 13.5q0 7 41.5 56t62.5 69q4 3 13 3q23 0 39.5 -15t16.5 -29q0 -25 -71 -65.5t-88 -40.5zM140 494q-4 0 -9 8.5t-5 13.5q0 7 41.5 56t62.5 69q4 3 13 3q23 0 39.5 -15t16.5 -29q0 -25 -71 -65.5t-88 -40.5z" />
    <glyph glyph-name="uni030C" unicode="&#x30c;" horiz-adv-x="263" 
d="M251 587q26 20 67.5 47t48.5 27q9 0 4 -23q-28 -24 -81 -83q-12 -13 -26.5 -30.5t-17.5 -21.5q-10 -10 -13 -10q-7 0 -10 10q-13 34 -25 57q-26 49 -47 78q5 23 13 23q7 0 38.5 -27.5t48.5 -46.5z" />
    <glyph glyph-name="uni0312" unicode="&#x312;" horiz-adv-x="131" 
d="M229 518q0 -24 -35.5 -34.5t-78.5 -10.5q-12 13 -12 47q0 33 46 70t84 45h3q6 0 13.5 -4.5t7.5 -9.5q0 -1 -14.5 -9t-28.5 -20.5t-14 -23.5q0 -10 14.5 -23t14.5 -27z" />
    <glyph glyph-name="uni0315" unicode="&#x315;" horiz-adv-x="131" 
d="M105 476q0 2 15 14.5t30 31.5t15 37q0 9 -10.5 25t-10.5 32q0 65 94 65q3 -9 3 -27q0 -24 -4 -44q-8 -45 -43 -90.5t-69 -65.5h-2q-4 0 -11 8.5t-7 13.5z" />
    <glyph glyph-name="dotbelowcomb" unicode="&#x323;" horiz-adv-x="285" 
d="M48 -118q6 31 30.5 52.5t53.5 21.5q28 0 44 -21.5t10 -52.5t-30.5 -52.5t-52.5 -21.5q-29 0 -45 21.5t-10 52.5z" />
    <glyph glyph-name="uni0326" unicode="&#x326;" horiz-adv-x="131" 
d="M-3 -101q0 24 35.5 34.5t78.5 10.5q12 -13 12 -47q0 -33 -46 -70t-84 -45h-3q-6 0 -13.5 4.5t-7.5 9.5q0 1 14.5 9t28.5 20.5t14 23.5q0 10 -14.5 23t-14.5 27z" />
    <glyph glyph-name="uni0327" unicode="&#x327;" horiz-adv-x="406" 
d="M202 -28q11 1 18 1q20 0 32 -15.5t8 -35.5q-7 -36 -35.5 -57t-70.5 -21q-30 0 -41 16q0 13 1 17q1 5 4.5 9.5t5.5 4.5q1 0 16 -7.5t27 -7.5q36 0 42 29q6 28 -17 28q-14 0 -29 -6q-2 0 -7 6.5t-3 9.5q6 8 19.5 28.5t17.5 26.5h30z" />
    <glyph glyph-name="mu" unicode="&#x3bc;" horiz-adv-x="467" 
d="M184 446q9 0 30.5 -14t19.5 -23q-13 -64 -43 -143l-14 -43q-11 -59 -3 -96t31 -37q62 0 96 114l48 229q22 15 46 13q29 -2 46 -14t14 -23q-8 -48 -52 -163l-9 -23q-15 -61 -13.5 -103t28.5 -42q15 0 33.5 11t26.5 20q3 0 8 -13q2 -10 -1 -20q-15 -33 -43 -56.5t-54 -23.5
q-30 1 -44.5 40.5t-10.5 91.5q-25 -43 -42 -68t-44.5 -47t-56.5 -22q-6 0 -11 1.5t-8.5 5.5t-6.5 7.5t-5 10t-3.5 11t-3 13t-2 12t-1.5 13t-1 11.5q0 -4 -9.5 -42t-17 -75.5t-7 -82t15.5 -67.5q-6 -8 -24.5 -22t-29.5 -14q-54 0 -54 100q0 56 82 331q3 14 8.5 50.5t6.5 43.5
q1 3 25 128q4 6 22 13t27 7z" />
    <glyph glyph-name="uni2002" unicode="&#x2002;" horiz-adv-x="478" 
 />
    <glyph glyph-name="uni2003" unicode="&#x2003;" horiz-adv-x="806" 
 />
    <glyph glyph-name="uni2009" unicode="&#x2009;" horiz-adv-x="92" 
 />
    <glyph glyph-name="uni200A" unicode="&#x200a;" horiz-adv-x="46" 
 />
    <glyph glyph-name="uni200B" unicode="&#x200b;" 
 />
    <glyph glyph-name="uni2010" unicode="&#x2010;" horiz-adv-x="288" 
d="M88 267l227 12q6 0 6 -12q0 -11 -9.5 -36.5t-16.5 -26.5l-226 -11q-5 0 -5 15q0 11 8.5 34.5t15.5 24.5z" />
    <glyph glyph-name="uni2011" unicode="&#x2011;" horiz-adv-x="288" 
d="M88 267l227 12q6 0 6 -12q0 -11 -9.5 -36.5t-16.5 -26.5l-226 -11q-5 0 -5 15q0 11 8.5 34.5t15.5 24.5z" />
    <glyph glyph-name="figuredash" unicode="&#x2012;" horiz-adv-x="462" 
d="M470 268q7 0 7 -16q0 -15 -8.5 -34t-13.5 -24h-386q-7 0 -7 16q0 15 8.5 34t13.5 24h386z" />
    <glyph glyph-name="endash" unicode="&#x2013;" horiz-adv-x="462" 
d="M470 268q7 0 7 -16q0 -15 -8.5 -34t-13.5 -24h-386q-7 0 -7 16q0 15 8.5 34t13.5 24h386z" />
    <glyph glyph-name="emdash" unicode="&#x2014;" horiz-adv-x="824" 
d="M823 268q7 0 7 -16q0 -15 -8.5 -34t-13.5 -24h-739q-7 0 -7 16q0 15 8.5 34t13.5 24h739z" />
    <glyph glyph-name="afii00208" unicode="&#x2015;" horiz-adv-x="1005" 
d="M1007 268q7 0 7 -16q0 -15 -8.5 -34t-13.5 -24h-923q-7 0 -7 16q0 15 8.5 34t13.5 24h923z" />
    <glyph glyph-name="quoteleft" unicode="&#x2018;" horiz-adv-x="148" 
d="M122 555q8 42 40 79.5t58.5 54.5t33.5 17q6 0 17 -9t12 -17q-28 -16 -48.5 -37.5t-26.5 -33.5t-8 -19q-2 -13 13 -35.5t12 -36.5q-4 -18 -25.5 -31t-44.5 -13q-21 0 -32 11q-10 23 -1 70z" />
    <glyph glyph-name="quoteright" unicode="&#x2019;" horiz-adv-x="153" 
d="M265 625q-8 -42 -40 -79.5t-58 -54.5t-33 -17q-6 0 -17 9t-12 17q28 16 48.5 37.5t26.5 33.5t8 19q2 13 -13 35.5t-12 36.5q4 18 25.5 31t44.5 13q21 0 32 -11q10 -21 0 -70z" />
    <glyph glyph-name="quotesinglbase" unicode="&#x201a;" horiz-adv-x="148" 
d="M148 43q-8 -42 -40 -79.5t-58.5 -54.5t-33.5 -17q-6 0 -16.5 9t-11.5 17q28 16 48 37.5t26 33t8 19.5q2 13 -13 35.5t-12 36.5q4 18 25.5 31t44.5 13q21 0 32 -11q10 -23 1 -70z" />
    <glyph glyph-name="quotedblleft" unicode="&#x201c;" horiz-adv-x="307" 
d="M260 555q8 42 40 79.5t58.5 54.5t33.5 17q6 0 16.5 -9t11.5 -17q-28 -16 -48 -37.5t-26 -33t-8 -19.5q-2 -13 13 -35.5t12 -36.5q-4 -18 -25.5 -31t-44.5 -13q-22 0 -33 11q-10 21 0 70zM122 555q8 42 40 79.5t58.5 54.5t33.5 17q6 0 17 -9t12 -17q-28 -16 -48.5 -37.5
t-26.5 -33.5t-8 -19q-2 -13 13 -35.5t12 -36.5q-4 -18 -25.5 -31t-44.5 -13q-21 0 -32 11q-10 23 -1 70z" />
    <glyph glyph-name="quotedblright" unicode="&#x201d;" horiz-adv-x="307" 
d="M272 625q-8 -42 -40 -79.5t-58.5 -54.5t-33.5 -17q-6 0 -16.5 9t-11.5 17q28 16 48 37.5t26 33t8 19.5q2 13 -13 35.5t-12 36.5q4 18 25.5 31t44.5 13q21 0 32 -11q10 -23 1 -70zM409 625q-8 -42 -40 -79.5t-58 -54.5t-33 -17q-6 0 -17 9t-12 17q28 16 48.5 37.5
t26.5 33.5t8 19q2 13 -13 35.5t-12 36.5q4 18 25.5 31t44.5 13q21 0 32 -11q10 -21 0 -70z" />
    <glyph glyph-name="quotedblbase" unicode="&#x201e;" horiz-adv-x="297" 
d="M155 43q-8 -42 -40 -79.5t-58.5 -54.5t-33.5 -17q-6 0 -16.5 9t-11.5 17q28 16 48.5 37.5t26.5 33.5t8 19q2 13 -13 35.5t-12 36.5q4 18 25 31t44 13q22 0 33 -11q10 -21 0 -70zM293 43q-8 -42 -40 -79.5t-58.5 -54.5t-33.5 -17q-6 0 -16.5 9t-11.5 17q28 16 48 37.5
t26 33t8 19.5q2 13 -13 35.5t-12 36.5q4 18 25.5 31t44.5 13q21 0 32 -11q10 -23 1 -70z" />
    <glyph glyph-name="dagger" unicode="&#x2020;" horiz-adv-x="341" 
d="M210 -10q-11 5 -40 5q-27 0 -42 -5q68 308 78 360q2 10 -6 10h-4q-2 0 -99 -5q2 5 9 38q6 33 7 44q95 -5 97 -5h4q7 0 9 8q9 46 29 189q22 -4 40 -4q19 0 43 4q-41 -169 -45 -189q-2 -8 5 -8h4q3 0 100 5q-9 -33 -11 -44q-2 -7 -5 -38q-95 5 -98 5h-4q-7 0 -9 -10
q-17 -88 -62 -360z" />
    <glyph glyph-name="daggerdbl" unicode="&#x2021;" horiz-adv-x="341" 
d="M256 270q-2 -10 6 -10h4q2 0 99 5q-2 -5 -9 -38q-6 -33 -7 -44q-95 5 -97 5h-4q-7 0 -9 -8q-5 -26 -28 -189q-22 4 -41 4q-18 0 -42 -4q41 169 45 189q2 8 -6 8h-5l-98 -5q6 22 10 44q4 16 6 38q95 -5 96 -5h5q7 0 9 10l16 80q2 10 -6 10h-4q-2 0 -99 -5q2 5 9 38
q6 33 7 44q95 -5 97 -5h4q7 0 9 8q9 46 29 189q22 -4 40 -4q19 0 43 4q-41 -169 -45 -189q-2 -8 5 -8h4q3 0 100 5q-9 -33 -11 -44q-2 -7 -5 -38q-95 5 -98 5h-4q-7 0 -9 -10z" />
    <glyph glyph-name="bullet" unicode="&#x2022;" horiz-adv-x="377" 
d="M108 263q11 58 57.5 99.5t100.5 41.5t83.5 -41.5t18.5 -99.5t-57 -99t-100 -41t-84 41t-19 99z" />
    <glyph glyph-name="onedotenleader" unicode="&#x2024;" horiz-adv-x="644" 
d="M403 66q-6 -31 -29.5 -54t-51.5 -23q-29 0 -45 23.5t-10 53.5t30.5 51.5t52.5 21.5t43.5 -21.5t9.5 -51.5z" />
    <glyph glyph-name="ellipsis" unicode="&#x2026;" horiz-adv-x="728" 
d="M704 66q-6 -31 -29.5 -54t-51.5 -23q-29 0 -45.5 23.5t-10.5 53.5t30.5 51.5t52.5 21.5t44 -21.5t10 -51.5zM445 66q-6 -31 -29.5 -54t-51.5 -23q-29 0 -45 23.5t-10 53.5t30.5 51.5t52.5 21.5t43.5 -21.5t9.5 -51.5zM187 66q-6 -31 -29.5 -54t-51.5 -23
q-29 0 -45.5 23.5t-10.5 53.5t30.5 51.5t52.5 21.5t44 -21.5t10 -51.5z" />
    <glyph glyph-name="perthousand" unicode="&#x2030;" horiz-adv-x="951" 
d="M813 268q-49 0 -67 -94q-25 -136 37 -136q26 0 43.5 27.5t24.5 64.5q27 138 -38 138zM653 153q12 63 63.5 108t112.5 45t95 -45t22 -108t-63.5 -107.5t-112.5 -44.5t-95 44.5t-22 107.5zM281 605q-49 0 -67 -95q-25 -135 38 -135q26 0 43.5 27.5t24.5 63.5
q27 139 -39 139zM121 489q12 63 63.5 108t112.5 45t95 -45t22 -108t-63.5 -107.5t-112.5 -44.5t-95 44.5t-22 107.5zM492 268q-49 0 -67 -94q-25 -136 38 -136q26 0 43.5 27.5t24.5 64.5q27 138 -39 138zM332 153q12 63 63.5 108t112.5 45t95 -45t22 -108t-63.5 -107.5
t-112.5 -44.5t-95 44.5t-22 107.5zM690 629l-568 -622q-11 -11 -33 -11q-11 0 -19 2.5t-11.5 5.5t-3.5 6l569 622q14 14 20 14q29 0 46 -17z" />
    <glyph glyph-name="minute" unicode="&#x2032;" horiz-adv-x="141" 
d="M220 699q16 0 27 -9t8 -23q-6 -32 -41.5 -87t-64.5 -86q-10 -10 -15 -10q-10 0 -8 12q0 1 3.5 13.5t8.5 32t11 41.5t12.5 45t11.5 38q3 10 18.5 21.5t28.5 11.5z" />
    <glyph glyph-name="second" unicode="&#x2033;" horiz-adv-x="276" 
d="M345 699q15 0 26.5 -9t8.5 -23q-6 -32 -41.5 -87t-63.5 -86q-10 -10 -15 -10q-11 0 -9 12q0 1 3.5 13.5t8.5 32t11 41.5t12.5 45t11.5 38q3 10 18.5 21.5t28.5 11.5zM220 699q16 0 27 -9t8 -23q-6 -32 -41.5 -87t-64.5 -86q-10 -10 -15 -10q-10 0 -8 12q0 1 3.5 13.5
t8.5 32t11 41.5t12.5 45t11.5 38q3 10 18.5 21.5t28.5 11.5z" />
    <glyph glyph-name="uni2038" unicode="&#x2038;" horiz-adv-x="356" 
d="M281 -61q-10 0 -39 28.5t-49 60.5q-29 -31 -71.5 -60t-52.5 -29q-3 0 -4 6t-1 12l1 6q2 3 23 20t52 49.5t56 70.5q1 2 2 5q2 5 7 5q9 0 12 -5t10.5 -27.5t20.5 -47.5q6 -10 18 -26.5t21.5 -29t9.5 -13.5q-8 -25 -16 -25z" />
    <glyph glyph-name="guilsinglleft" unicode="&#x2039;" horiz-adv-x="299" 
d="M183 248l53 -71q56 -72 54 -79q-1 -8 -16 -16t-22 -9q-2 3 -15 18.5t-53 54.5t-93 81q-6 3 -4 14q3 17 13 27q22 13 43.5 26t39 25t34.5 23.5t30 21.5t24.5 18.5t20.5 16l15 12.5t10 9l4 3q6 -1 17.5 -9t10.5 -16q-2 -8 -84 -79z" />
    <glyph glyph-name="guilsinglright" unicode="&#x203a;" horiz-adv-x="299" 
d="M225 248l-54 71q-56 72 -54 79q1 8 16 16t22 9l7 -9q8 -10 21 -24.5t31 -33.5t45 -42.5t57 -45.5q6 -9 2 -27q-2 -11 -9 -14q-69 -43 -124 -81t-75.5 -54.5t-21.5 -18.5q-6 1 -17.5 9t-10.5 16q2 8 84 79z" />
    <glyph glyph-name="uni203E" unicode="&#x203e;" horiz-adv-x="667" 
d="M591 807q7 0 7 -16q0 -15 -8.5 -34t-13.5 -24h-493q-7 0 -7 16q0 15 8.5 34t13.5 24h493z" />
    <glyph glyph-name="Euro" unicode="&#x20ac;" horiz-adv-x="633" 
d="M29 243q-9 0 -9 15q0 23 12 38h41q5 32 11 50h-37q-9 0 -9 15q0 18 12 38h53q46 106 137 174.5t195 68.5q93 0 198 -28q0 -11 -4.5 -73t-5.5 -69q-3 -15 -26 -15q-2 0 -14 3q-1 13 -4.5 27.5t-14.5 33t-27 33t-44 24.5t-64 10q-136 0 -194 -189h163q8 0 8 -14
q0 -25 -16 -39h-168q-7 -35 -9 -50h165q8 0 8 -14q0 -25 -16 -39h-161q-1 -88 35 -142.5t108 -54.5q74 0 125 44q15 12 32.5 33.5t28.5 36t12 14.5q7 0 18.5 -10.5t13.5 -19.5q-2 -11 -25 -40.5t-60 -57.5q-67 -52 -197 -52q-101 0 -165.5 71.5t-65.5 177.5h-40z" />
    <glyph glyph-name="arrowleft" unicode="&#x2190;" horiz-adv-x="717" 
d="M202 319l-37 -35h514q7 0 7 -13q0 -9 -9 -32t-17 -29h-510l23 -33q14 -20 28.5 -39.5t20 -27t5.5 -11.5q0 -9 -14.5 -16.5t-23.5 -9.5q-1 2 -17.5 18.5t-59 54.5t-95.5 81q-4 1 -4 11q0 17 13 30q137 79 232 155q6 -1 17 -8.5t11 -15.5q0 -2 -19 -20q-32 -29 -65 -60z
" />
    <glyph glyph-name="arrowup" unicode="&#x2191;" horiz-adv-x="334" 
d="M157 577l-38 -37q-81 -74 -89 -74q-7 0 -11 13.5t-4 22.5q3 1 21.5 19.5t64 69.5t97.5 117q4 6 14 6q16 0 23 -8q10 -27 21 -52.5t20.5 -45t19 -36.5t17.5 -30t13.5 -21.5t9.5 -14.5l4 -6q-2 -7 -13 -20.5t-18 -13.5q-6 0 -58 74l-26 36l-120 -606q-2 -6 -13 -6
q-8 0 -21.5 3.5t-23.5 6.5l-10 4z" />
    <glyph glyph-name="arrowright" unicode="&#x2192;" horiz-adv-x="704" 
d="M537 209h-514q-7 0 -7 13q0 9 9 33t17 30h510l-25 34q-56 72 -54 79q1 8 16 16t22 9l7 -9q8 -10 21 -24.5t31 -33.5t45 -42.5t57 -45.5q6 -9 2 -27q-2 -11 -9 -14q-69 -43 -124 -81t-75.5 -54.5t-21.5 -18.5q-6 1 -17.5 9t-10.5 16q2 8 84 79z" />
    </font>
</defs>
</svg>
